<?xml version="1.0" encoding="utf-8"?>
<!-- Generator: Adobe Illustrator 21.1.0, SVG Export Plug-In . SVG Version: 6.00 Build 0)  -->
<svg version="1.1" xmlns="http://www.w3.org/2000/svg" xmlns:xlink="http://www.w3.org/1999/xlink" x="0px" y="0px"
	 viewBox="0 0 864 864" style="enable-background:new 0 0 864 864;" xml:space="preserve">
<style type="text/css">
	.st0{fill:#FFFFFF;}
	.st1{fill:#1C1A1F;}
	.st2{fill:#151548;}
	.st3{fill:#A98E30;}
	.st4{fill:#A7ACAC;}
	.st5{fill:#A78C31;}
</style>
<g id="Layer_2">
	<path class="st0" d="M431.1,856.3c-13-0.2-27.5-0.8-42-2.3c-79.7-8.4-151.4-36.8-214.8-85.7c-52.2-40.3-93-90-122.1-149.2
		c-15.2-30.9-26.3-63.2-33.6-96.8c-3.1-14.5-5.4-29.1-7-43.8c-2.3-20.7-2.8-41.5-2-62.3c2.1-57.3,15.3-112,39.7-163.9
		c0.7-1.6,0.8-2.9,0.4-4.6c-3.6-13.4-5.1-27-4.7-40.8c0.5-14.3,1.8-28.6,4.4-42.7c4.9-26.4,14.3-51,30.8-72.5
		c5.2-6.9,11-13.3,17.1-19.5c4.8-4.8,10.3-8.6,16-12.2c21.4-13.3,43.9-24.2,67.9-31.9c7.8-2.5,16-3.8,24-5.6
		c10.5-2.3,21-4.2,31.6-5.6c14.1-1.9,28.3-2.9,42.6-1.6c9.5,0.9,18.7,3.5,27.6,6.9c2.4,0.9,4.8,1.8,7.1,2.8c1.1,0.5,2.1,0.5,3.2,0.2
		c12.4-3.5,24.9-6.4,37.5-8.8c9.8-1.9,19.7-3.3,29.6-4.6c20.9-2.6,41.9-3.4,63-2.7c8.8,0.3,17.6,0.9,26.3,1.7
		c10.9,1.1,21.7,2.5,32.5,4.4c24.9,4.3,49.1,10.8,72.8,19.5C631.8,54.2,678.7,83,720,121.1c44.6,41.2,79,89.7,102.9,145.5
		c11.5,26.9,20,54.7,25.6,83.4c2.7,13.6,4.6,27.4,6,41.3c1.9,18.8,2.3,37.7,1.7,56.6c-0.4,11.7-1.3,23.3-2.7,34.9
		c-4,33.9-11.9,66.8-23.9,98.7c-20,53.2-49.6,100.4-88.6,141.7c-40.4,42.8-87.6,76-141.8,99.2c-27.8,11.9-56.7,20.7-86.4,26.3
		c-14.6,2.8-29.3,4.8-44.2,6C456.7,855.8,444.7,856.3,431.1,856.3z"/>
</g>
<g id="IP18_x5F_MedalionLogo_x5F_cmyk_xA0_Image_1_">
	<g>
		<path class="st1" d="M431.1,856.3c-13-0.2-27.5-0.8-42-2.3c-79.7-8.4-151.4-36.8-214.8-85.7c-52.2-40.3-93-90-122.1-149.2
			c-15.2-30.9-26.3-63.2-33.6-96.8c-3.1-14.5-5.4-29.1-7-43.8c-2.3-20.7-2.8-41.5-2-62.3c2.1-57.3,15.3-112,39.7-163.9
			c0.7-1.6,0.8-2.9,0.4-4.6c-3.6-13.4-5.1-27-4.7-40.8c0.5-14.3,1.8-28.6,4.4-42.7c4.9-26.4,14.3-51,30.8-72.5
			c5.2-6.9,11-13.3,17.1-19.5c4.8-4.8,10.3-8.6,16-12.2c21.4-13.3,43.9-24.2,67.9-31.9c7.8-2.5,16-3.8,24-5.6
			c10.5-2.3,21-4.2,31.6-5.6c14.1-1.9,28.3-2.9,42.6-1.6c9.5,0.9,18.7,3.5,27.6,6.9c2.4,0.9,4.8,1.8,7.1,2.8
			c1.1,0.5,2.1,0.5,3.2,0.2c12.4-3.5,24.9-6.4,37.5-8.8c9.8-1.9,19.7-3.3,29.6-4.6c20.9-2.6,41.9-3.4,63-2.7
			c8.8,0.3,17.6,0.9,26.3,1.7c10.9,1.1,21.7,2.5,32.5,4.4c24.9,4.3,49.1,10.8,72.8,19.5C631.8,54.2,678.7,83,720,121.1
			c44.6,41.2,79,89.7,102.9,145.5c11.5,26.9,20,54.7,25.6,83.4c2.7,13.6,4.6,27.4,6,41.3c1.9,18.8,2.3,37.7,1.7,56.6
			c-0.4,11.7-1.3,23.3-2.7,34.9c-4,33.9-11.9,66.8-23.9,98.7c-20,53.2-49.6,100.4-88.6,141.7c-40.4,42.8-87.6,76-141.8,99.2
			c-27.8,11.9-56.7,20.7-86.4,26.3c-14.6,2.8-29.3,4.8-44.2,6C456.7,855.8,444.7,856.3,431.1,856.3z M455.3,619.9
			c0.2,0.2,0.4,0.4,0.7,0.1c-0.1-0.1-0.3-0.3-0.4-0.4c0-0.4-0.3-0.5-0.6-0.6c-4.4-5.6-5.1-12.1-4-18.9c0.5-3.3,2.1-6.2,3.1-9.3
			c5.5-18.2,10.1-36.6,13.3-55.4c0.5-2.8,0.7-5.7,1.1-8.6c0.1-1,0-1.5-1.2-1.9c-4-1.3-7.8-3.3-11.5-5.3c-15.4-8.2-30.2-17.3-45-26.5
			c-2.2-1.3-4.3-2.7-6.4-4c1,0,1.9,0.3,2.8,0.7c7.5,3,15.2,5.4,23,7.5c15.5,4.1,31.2,7.3,47,10c2.4,0.4,4.8,1.2,7.3,1
			c2.8,1,5.8,1.1,8.7,1.6c12.9,2.2,25.8,3.5,38.9,3.9c6.2,0.2,12.1-1.1,17.7-3.6c0.9-0.4,1.6-1,2.1-1.9c1.3-2.3,2.3-4.7,3.2-7.2
			c1.6-4.7,1.6-9.6,1.7-14.5c0.1-2-0.5-4-1.4-5.8c-2.6-5.1-4.9-10.4-8.9-14.7c-0.2-0.2-0.3-0.5-0.5-0.9c2.1-1,4.2-2,6.4-2
			c3.5,0,6.1-1.6,8.7-3.6c1.9-1.4,2.3-3.2,1.4-5.3c-1.1-2.8-2.2-3.4-5-2.9c-5.3,0.9-10.3,2.7-15.6,3.8c-2.6,0.5-4.8,1.7-5.9,4.4
			c-0.3,0.8-1,1.5-1.5,2.1c-0.3,0.4-0.7,1-1.6,0.6c0.5-7.1,5.3-11.5,10-15.9c-0.3,2-1.6,3.6-2.3,5.7c3.5-1,6.7-1.9,9.9-2.8
			c5.3-1.6,9.5-4.7,13.2-8.7c2.5-2.7,3.2-5.8,2.2-9.3c-0.6-2.1-1.1-4.2-1.7-6.2c-0.7-2.2,0.1-4,1.3-5.8c1.8-2.6,4.4-4.4,6.7-6.4
			c1.2-1.1,2.4-1.3,3.9-0.9c4.1,1,8.3,1.7,12.6,1.7c3.5,0,5.9-1.7,7.2-4.9c0.7-1.7,1-3.5,1.5-5.3c0.4-1.3,0.2-2.4-0.4-3.6
			c-4.9-11-9.8-22-14.7-33c-5.7-12.9-11.5-25.8-17.2-38.7c-0.3-0.7-0.9-1.4-0.5-2.4c1.3-3.7,1.2-7.5,0.9-11.4
			c-0.4-4.8-1.2-9.5-2.1-14.2c-2.1-10.4-4.9-20.7-7.8-30.9c-0.3-1.1-0.8-1.7-2.1-1.5c-3.6,0.3-7.2,0.5-10.8,0.7
			c-1.6,0.1-2.9,0.6-4.1,1.7c-1.2,1.1-2.5,2-3.7,3c-4.2,3.5-8.9,6.2-14.3,7.5c-0.5,0.1-0.9,0.3-1.4,0.5c-3.4,1.3-5.6,3.5-6.2,7.2
			c-0.2,1.3-0.5,2.5-0.9,3.7c-0.6,1.9-2,2.9-4,2.9c-1.2,0-2.4-0.1-3.6-0.4c-2.6-0.6-5-1.6-7.5-2.4c-1.7-0.6-3.5-1.2-5.3-1.5
			c-2.3-0.4-3.5,0.2-4.6,2.4c-0.3,0.5-0.4,1.2-1.3,1.2c-0.2-2,1-3.1,2.3-4c1.7-1.1,3.7-1.5,5.7-1.6c3.3-0.2,6.5,0.5,9.7,1.1
			c2.9,0.5,3.9,0.1,5.2-2.5c1.5-2.9,3.8-5.1,6.7-6.7c2.5-1.4,5.2-2.5,7.9-3.4c0.5-0.2,1.1-0.1,1.3-0.7c-1.8-1.2-3.9-1.9-5.8-3.8
			c5.7,0.2,10.8-0.4,15.7-3c-1.8-0.3-3.4,0.2-4.9,0.3c-5.6,0.6-11.1,1.4-16.5,3.1c-17.8,5.5-35.6,10.6-53.5,15.6
			c-2,0.6-4.1,1.2-6.4,1.8c2.9,3,4.6,6.3,6.3,9.7c1.3,2.5,3.3,4.2,6,4.7c5.6,1.2,11.3,2.3,17.3,1.5c-1.2,1.3-2.7,1.9-4.2,2.4
			c-4.7,1.5-9.3,1.2-13.9-0.2c-2.8-0.9-5.6-1.9-8.4-2.8c-2.5-0.8-5.1-1.3-7.8-0.9c-3.6,0.4-6.7,2.1-9.5,4.3
			c-4.9,3.8-9.3,8.1-13.5,12.5c-3.4,3.6-7.5,5.4-12.2,5.8c-2.6,0.3-5.1-0.1-7.2-2c-2.6-2.3-5.7-3.2-9.1-3.3
			c-5.5-0.2-11-0.3-16.6-0.5c-5.4-0.2-10.5,0.5-15.2,3.4c-0.2,0.1-0.4,0.3-0.6,0.3c-1.1,0.2-1.6,0.9-2.2,1.7
			c-4.7,6.6-9.9,12.8-15.3,18.7c-1.1,1.2-2.1,2.4-3.3,3.6c0.8,0.3,1.3,0,1.8-0.2c2.2-0.8,4.3-1.7,6.5-2.5c3.3-1.3,6.4-2.9,9-5.3
			c1.2-1.1,2.8-1.9,4.4-2.4c2.6-0.8,5.3-1.3,8-1.5c6.3-0.5,12.4,0.7,18.4,2.6c3.7,1.2,7.4,2.5,11.2,3.4c4.9,1.2,9.7,1,14.3-1.2
			c3.7-1.8,7.6-3.4,11.5-4.9c6.2-2.4,10.1-6.5,10.4-13.5c0.1-3.2,1.9-5.4,5-6.4c2.7-0.9,5.3-2.1,8-3.3c2.7-1.2,5.1-0.8,7.5,0.8
			c1,0.7,2,1.5,3.1,2.3c4.1,3.2,8.6,3.9,13.5,2c1.9-0.7,3.6-1.7,5.4-2.6c1.6-0.9,3.2-1.8,4.9-2.6c0.9-0.4,2.3-1.5,2.9-0.6
			c0.7,0.9-0.8,1.9-1.5,2.7c-2.3,2.3-4.5,4.8-7.4,6.4c-1.4,0.8-1.4,2-0.2,3.1c0.7,0.6,1.6,1,2.6,1.2c0.6,0.1,1.3,0,1.7,0.7
			c-0.6,0.2-1.1,0.3-1.6,0.4c-5.2,0.9-10.3,1.9-15.3,3.8c-0.3,0.1-0.6,0.1-0.9,0.2c-3.9,1-7.6,0.7-11-1.6c-1.7-1.1-3.5-1.9-5.3-2.7
			c-1.4-0.7-2.9-1.3-4.5-1.7c-3.4-0.8-4.4-0.1-5,2.9c-0.7,3.6-2.2,7-3.9,10.3c-2,4.1-5.1,7.1-9.1,9.3c-3.2,1.7-6.4,3.3-9.7,4.8
			c-6.2,2.8-12.5,3.4-19.2,1.7c-4.4-1.2-8.9-1.2-13.3-0.5c-6,0.9-11.3,3.3-15.9,7.2c-2.5,2.1-5.3,3.3-8.5,3.6
			c-2.1,0.2-4.3,0.6-6.4,0.7c-4.9,0.3-9.7,0.8-14.6,0.7c-3.3-0.1-6.2-1-7.8-4.1c-0.1-0.2-0.3-0.4-0.6-0.6c-4,4.6-8.5,8.7-12.8,13
			c-0.1,0.1,0,0.3,0,0.6c0.5,0.1,0.9-0.1,1.3-0.3c1.7-0.8,3.5-1.6,5.3-2.3c4.7-1.8,9.4-1.6,14,0.4c2.2,1,4.3,2.1,6.3,3.4
			c1.6,1.1,3.2,2.1,4.8,3.1c3.1,2,6.4,2.5,9.9,1.5c10-2.9,19.3-7.1,27.8-13c1.3-0.9,2.6-1.9,4-2.7c3.5-2,7-1.9,10.5-0.1
			c1.3,0.7,2.4,1.5,3.6,2.4c2.6,2,5.2,3.9,7.9,5.9c1.7,1.3,3.6,2.4,5.6,3.3c2.6,1.2,5.2,1.5,7.9,0.5c5.9-2.1,11.4-5.1,16-9.5
			c1.8-1.7,3.3-3.8,4.9-5.7c-0.8,7.9-3.8,14.7-9.9,19.9c-4.8,4.1-10.2,7.1-16.2,9.1c-3.5,1.2-7.2,1.6-10.9,0.7
			c-3.3-0.8-6-2.6-8.6-4.6c-2.2-1.7-4.3-3.6-6.6-5.1c-3.4-2.3-7-3-11-1.8c-5,1.4-10,2.8-15,4.1c-4.7,1.2-9.5,1.9-14.2,0.6
			c-7.7-2.1-15.4-3.5-23.3-4.4c-5.7-0.6-11.5-1-17.2-0.2c-2.3,0.3-4.4,0.9-6.3,2.6c-14.4,13.1-29.2,25.7-44.2,38
			c-0.5,0.4-1.2,0.8-1.5,1.5c-0.2,0.1-0.5,0.1-0.3,0.4c0.1,0.2,0.4,0.1,0.6-0.1c2.3-0.2,4.5-1.1,6.8-1.2c1.4-0.1,2.4,0.3,3.1,1.6
			c0.8,1.7,2,2.8,4,3c1.1,0.1,2,0.9,2.8,1.8c2.3,2.9,4,6.2,4.6,9.9c0.2,1.5,0.2,3-0.9,4.2c-1-0.9-1.2-2.2-1.8-3.2
			c-1.4-2.6-3.2-4.8-5.9-6.1c-3.7-1.8-7.6-2.5-11.7-1.7c-1.6,0.3-3.3,0.7-4.9,1c-2.6,0.5-5.2,1.1-7.8,0.3c-0.7-0.2-1.2,0.1-1.8,0.5
			c-2,1.5-4.1,3-6.2,4.6c-1.8,1.3-1.7,2.5,0.4,3.5c1.7,0.7,3.5,0.7,5.2,0.3c2.3-0.4,4.5-1,6.8-1.5c1-0.2,1.9-0.7,3.1-0.2
			c-0.4,1.2-1.4,1.8-2.3,2.3c-3.9,2.6-8.2,4.2-12.7,5.3c-2.5,0.6-4.9,1.6-6.8,3.4c-2.1,2.1-1.8,4,0.8,5.3c3.8,1.9,7.7,2,11.5-0.1
			c2.1-1.2,3.9-2.8,5.7-4.4c1.4-1.2,2.7-2.5,4.3-3.4c1.3-0.8,2.6-1.2,4.1-0.9c1.7,0.4,2,1.1,0.9,2.4c-1.1,1.2-2.6,2.1-4,3
			c-4.7,2.8-9.6,5.1-14.4,7.6c-4.4,2.3-8.7,4.8-12.9,7.4c-2.3,1.5-2.7,3.6-2.8,6.2c1.5-0.4,2.7-1.1,3.9-1.7c1.5-0.7,3.1-1.4,4.7-1.7
			c0.6-0.1,1.4-0.5,1.8,0.1c0.5,0.8-0.4,1.3-0.9,1.7c-0.9,0.7-1.8,1.4-2.7,1.9c-1.4,0.9-2.9,1.4-4.4,1.9c-1.6,0.6-3.3,1.5-3.8,3.1
			c-0.9,2.8-1.6,5.7-0.2,8.6c0.9,2,1.8,4.1,2.5,6.2c1.5,4.7,4.6,8.1,8.2,11.3c2,1.8,4.4,2.8,7.2,3c0.7,0.1,1.4,0.2,2.1,0.3
			c6.6,1.4,12.9,0.8,18.6-3.2c0.7-0.5,1.4-1,2.2-1.4c0.3-0.2,0.7-0.8,1.3-0.1c-1.7,1.9-3.7,3.4-5.7,5.1c-3.3,2.8-7.1,3.8-11.4,3
			c-2-0.4-4.1-0.5-6.2-0.5c-2.1,0-2.5,0.5-1.7,2.4c1.1,2.5,2.6,4.7,4.1,7c0.5,0.7,1,0.8,1.8,0.7c3.4-0.6,6.7-1.6,9.9-2.7
			c4.8-1.6,9.7-3.3,14.1-5.8c3.2-1.8,5.5-4.4,6.7-7.8c0.8-2.3,1.6-4.5,2.3-6.8c0.9-2.6,1.2-5.3,0.6-8c-0.2-1.2-0.1-2.4,0.4-3.5
			c0.3,0,0.4-0.2,0.5-0.5c1.8-0.9,3.7-1.5,5.6-2c4.5-1.2,9-2.7,13.4-4.4c0.8-0.3,1.7-0.4,2.4-1.4c-5.6-0.3-10.8,0.7-15.8,2.7
			c-2.5,1-4.6,2.5-6.1,4.8c-0.1,0.1-0.2,0.2-0.3,0.3c-7,6.3-19.5,13.4-23.2,13.1c1.3-2.1,3.3-3.4,5.2-4.6c4.1-2.6,7.4-6,10-10.1
			c1-1.6,2.1-3.3,3.8-4.3c4.5-2.7,8.6-6.5,14.3-6.8c1.6-0.1,2.5-1.1,2.4-1.9c-0.1-0.9-1.2-1.3-2.8-1.4c-1.6,0-3,0.5-4.4,1.2
			c-4,1.9-7.9,3.8-11.9,5.7c-0.2-0.1-0.4-0.3-0.5-0.4c2.8-2.4,5.9-4.4,9.1-6.1c2.9-1.6,6-2.6,9.3-3.1c4.3-0.6,8.7-1.5,13.1-1
			c0.7,0.1,1.5,0,2.1-0.2c1.8-0.4,3.3-1.1,4.3-2.7c0.3-0.5,0.6-1,0.1-1.5c-0.4-0.4-0.8-0.4-1.3-0.4c-5.7,1-11.4-0.3-17-0.8
			c0.7-0.2,1.4-0.3,2.1-0.4c4.3-0.3,8.6-1,12.7-2.4c1.5-0.5,3.1-0.7,4.7-0.8c1.4-0.1,2.7-0.3,4-0.5c2.5-0.4,4.4-1.7,5.3-4.2
			c1-2.7,2.1-5.4,3.1-8c0.2-0.5,0.6-1,0.1-1.6c-3.5,1.6-7.1,2.7-11,3c-3.1,0.3-6.2,0.5-9.3,0.9c-6.9,1-12.4-1.7-17.6-5.8
			c0.1-0.1,0.2-0.2,0.3-0.3c1.8,0.5,3.5,1,5.3,1.4c4.7,1.3,9.5,2.2,14.4,2.1c4.9-0.1,9.5-1.2,13.3-4.6c2.2-2,4.3-4.1,6.2-6.3
			c1.4-1.6,2.7-3.2,3.5-5.1c0.4-0.9,1-1.9,0.1-3.1c-3.5,3.3-7.7,5.1-12.2,6.4c-9.1,2.7-18.3,3.4-27.6,0.7c-0.4-0.1-1-0.1-1-0.8
			c2.8-0.4,5.7-0.7,8.5-1.1c5.7-0.8,11.4-1.6,17-2.9c5-1.1,8.2-4.3,10.6-8.6c0.2-0.5,0.7-0.9,0.1-1.6c-2.5,1.1-5.1,2.2-7.6,3.3
			c-3,1.4-6.2,2.1-9.5,2.2c-7.5,0.3-14.6-1.4-21.6-3.8c-0.6-0.2-1.3-0.3-2-1.1c1.1,0.1,2,0.2,2.8,0.3c6.5,1,13,1.3,19.6,0.7
			c3.9-0.3,7.7-1.2,11.4-2.6c2.4-1,3.6-2.7,4.1-5.2c-1.6-0.3-3.1-0.5-4.6-0.7c-3-0.5-6.1-0.8-8.8-2.1c-4.4-2.2-8.5-4.7-12.5-7.5
			c0.2-0.2,0.4-0.4,0.7-0.6c3.2,1.1,6.3,2.3,9.5,3.2c6.2,1.9,12.4,4.3,19.1,4c0.8,0,0.9,0.6,1.1,1c0.1,0.7,0.3,1.4,0.5,2.1
			c1.4,4.7,2.9,9.3,5.2,13.6c1.8,3.4,4.5,5.8,8.2,6.8c2,0.5,4,1.1,6,1.5c3.4,0.7,5.9,2.6,7.5,5.8c1,2.1,2.1,4.1,3.3,6.1
			c1.9,3.1,4.8,4.7,8.5,5.1c5.9,0.6,11.6-0.2,17.1-2.3c0.1,0.1,0.2,0.2,0.3,0.3c-1.9,2.1-4.4,3.1-7,4c-2.9,0.9-5.8,1.6-8.9,1.9
			c-5.7,0.6-9.3-1.3-11.8-6.5c-1-2.1-2-4.2-3-6.3c-1.2-2.5-3.2-4.1-5.9-4.8c-1.9-0.5-3.9-0.9-5.9-1.2c-2.1-0.3-4,0.2-5.5,1.8
			c-1,1-2.2,1.9-3.4,2.6c-0.4,0.3-1.1,0.4-1.1,1.1c1.6,2.1,2.6,4.6,3.1,7.2c1,4.9,0.7,9.7-0.4,14.5c-1.5,6.5-5,11.5-10.8,14.8
			c-0.6,0.3-1.1,0.7-1.6,1c-0.7,0.5-0.8,1.1-0.5,1.9c0.9,2.6,0.7,3.3-1.5,5c-2.7,2-5.7,3.2-9,3.8c-3.6,0.6-7.2,0.4-10.8,0.8
			c-3.9,0.4-6.5,2.1-7.8,6c-2.9,8.7-3.8,17.6-3.6,26.7c0,1.4,0.2,2.7-0.5,4c-0.7,1.2-1.1,2.5-1.6,3.7c-3.5,10-7,20.1-10.5,30.1
			c-2.3,6.6-4.6,13.3-7.7,19.6c-0.3,0.5-0.8,1-0.6,1.7c0.6,0.2,1.1,0,1.7-0.1c5.5-1.3,11.2-1.9,16.8-2.2c5.4-0.2,10.9,0,16.3,0
			c2,0.4,4.1,0.4,6.2,0.6c12.7,1.3,25.2,3.6,37.7,6.5c12.7,3,25.3,6.6,37.7,10.6c3.2,1.1,6.5,2.2,9.7,3.2c3.2,1.1,6.4,2.4,9.8,3.1
			c-0.6-0.9-1.3-1.5-2-2.1c-4.3-3.8-8.3-7.9-11.8-12.5c-2.8-3.7-5.3-7.6-6.7-12.1c-0.1-0.5-0.5-0.9-0.1-1.4c0.7,0.1,0.9,0.5,1.3,0.8
			c9.7,8.2,19.7,16,30.1,23.4c1.1,0.8,2.1,1.8,3.4,2.2c0.6,0.8,1.4,1.3,2.2,1.8c4.4,2.9,8.9,5.9,13.4,8.7c4.9,3,9.7,6,14.9,8.4
			C454.6,619.7,455,619.8,455.3,619.9z M461.7,137.8l1,0.2c0.9-0.2,1.7-0.2,2.6-0.1c4.1,0.6,8.2,1.3,12.3,1.8
			c7.5,1,14.9,2.6,22.3,4.2c12.6,2.8,24.9,6.7,37.1,11.2c6.2,2.3,12.3,4.9,18.3,7.6c5.6,2.6,11.1,5.2,16.5,8.2
			c7,3.8,13.8,7.7,20.4,12c10.5,6.7,20.5,14.1,30.1,22.1c6,5,11.7,10.3,17.4,15.7c4.9,4.6,9.3,9.6,13.8,14.6
			c2.8,3.1,5.7,6.3,8.3,9.6c4.4,5.5,8.7,11,12.7,16.7c8.1,11.5,15.4,23.5,21.9,36c2,3.9,4,7.8,5.7,11.9c1.9,4.3,3.8,8.6,5.6,13
			c3.7,9.1,6.8,18.4,9.6,27.8c2.5,8.5,4.6,17.1,6.2,25.8c1.1,5.5,2.1,10.9,2.8,16.5c0.4,3.4,1,6.8,1.2,10.2c0.1,2.1,0.2,4.2,0.5,6.2
			c0.6,3.6,0.6,7.3,0.7,10.9c0.3,8.5,0.1,17.1,0.1,25.7c0,0.6,0.1,1.1,0,1.7c-0.8,3.4-0.4,7-0.8,10.5c-0.4,3.9-0.8,7.9-1.2,11.9
			c-0.4,3.7-1.1,7.4-1.7,11.1c-1.1,7.2-2.6,14.2-4.2,21.3c-2.7,11.5-6.2,22.8-10.3,33.8c-3,7.9-6.2,15.7-9.9,23.4
			c-2.6,5.4-5.3,10.8-8.2,16c-3,5.4-6,10.7-9.4,15.9c-7.6,11.8-15.7,23.1-24.9,33.6c-3.7,4.3-7.4,8.6-11.3,12.6
			c-6.3,6.4-12.6,12.7-19.4,18.6c-4.3,3.7-8.6,7.4-13.1,10.8c-7.6,5.9-15.5,11.5-23.7,16.7c-7.6,4.8-15.3,9.2-23.3,13.3
			c-7.5,3.9-15.2,7.4-23.1,10.6c-11.4,4.7-23.2,8.7-35.1,11.9c-12.7,3.4-25.6,5.9-38.6,7.7c-6.5,0.9-13.1,1.6-19.7,1.9
			c-5.3,0.2-10.7,0.7-16,0.6c-3.7-0.1-7.4,0.3-11-0.1c-4.4-0.6-8.9-0.1-13.4-0.7c-2.7-0.4-5.6-0.4-8.3-0.7
			c-5.4-0.6-10.7-1.3-16.1-2.2c-7.4-1.2-14.7-2.6-22-4.3c-12.1-2.8-24-6.6-35.7-10.9c-7-2.6-14-5.4-20.7-8.7
			c-8.3-4-16.5-8.2-24.4-12.8c-6.1-3.6-12.1-7.4-18-11.4c-6.2-4.3-12.2-8.9-18.2-13.6c-7.5-5.9-14.5-12.3-21.4-18.8
			c-6.5-6.1-12.3-12.7-18.1-19.4c-3.6-4.1-7-8.5-10.4-12.8c-5.7-7.3-10.9-14.9-15.9-22.7c-3.9-6.1-7.6-12.4-10.9-18.9
			c-2.9-5.6-5.7-11.3-8.3-17c-3.2-7.1-6.2-14.4-8.8-21.7c-4-11.3-7.5-22.7-10.1-34.4c-1.7-7.8-3.2-15.7-4.4-23.7
			c-0.8-5.6-1.4-11.2-1.9-16.8c-0.5-5.6-0.7-11.1-0.9-16.7c-0.5-8.9,0.3-17.7,0.4-26.6c0-0.2,0-0.3,0-0.5c0.7-4.4,0.8-8.9,1.3-13.3
			c0.5-4.3,1-8.7,1.7-13c1.1-6.8,2.5-13.4,3.8-20.2c0.4-2,0.3-2.1-1.5-2.8c-2.6-0.9-5-2.2-7.3-3.5c-8.9-5.2-16.9-11.5-24.4-18.5
			c-3.9-3.6-7.8-7-11.3-11c-3.1-3.6-6.5-7-9.6-10.7c-4.8-5.6-9.2-11.4-13.4-17.4c-3.9-5.7-7.5-11.5-10.8-17.5
			c-2.4-4.4-4.6-8.8-6.7-13.3c-0.9-2-1.5-4.2-2.8-5.9c-0.7,0.1-0.8,0.7-1,1.1c-0.7,1.7-1.4,3.4-2.1,5.1c-3.7,8.6-7,17.3-10,26.1
			c-5,14.6-9.2,29.4-12.5,44.4c-1.5,6.8-2.8,13.5-4,20.4c-1,6-2,11.9-2.7,17.9c-0.7,5.4-1.3,10.9-1.6,16.4c-0.1,2.5-0.1,5-0.5,7.4
			c-0.6,4.2-0.7,8.4-0.7,12.6c-0.1,11.4-0.5,22.8,0.2,34.3c0.3,4.2,0.7,8.4,0.6,12.7c0,0.2,0,0.5,0.1,0.7c0.6,2.6,0.4,5.2,0.8,7.8
			c0.5,3.6,0.7,7.3,1.1,10.9c0.5,3.9,1.2,7.7,1.8,11.5c1.1,8,2.7,16,4.4,23.9c2.4,11.5,5.4,22.8,8.9,34c2.5,8.1,5.2,16.1,8.2,24
			c5.9,15.4,12.4,30.4,20.1,45c3.3,6.3,6.7,12.5,10.3,18.6c6.7,11.5,14.1,22.6,21.9,33.4c8.2,11.3,17,22.1,26.3,32.5
			c4.8,5.4,9.7,10.6,14.8,15.7c3.7,3.8,7.6,7.3,11.4,11c2.1,2,4.3,4.1,6.5,6c5.8,4.9,11.4,9.9,17.4,14.6
			c7.4,5.9,14.9,11.5,22.6,16.9c9.6,6.6,19.4,12.9,29.6,18.7c8.9,5,17.9,9.9,27.1,14.3c10.8,5.1,21.8,9.9,33,14.1
			c14.3,5.4,28.8,9.9,43.6,13.7c9.3,2.4,18.7,4.4,28.2,6.1c4.1,0.7,8.1,1.4,12.2,2c4.2,0.5,8.3,1.2,12.5,1.6c4.3,0.4,8.7,0.9,13,1.4
			c2.6,0.3,5.3,0.1,7.9,0.5c4.3,0.6,8.6,0.7,12.9,0.7c11.5,0.1,23,0.6,34.5-0.3c2.8-0.2,5.6-0.2,8.4-0.4c5.6-0.4,11.3-0.9,16.9-1.5
			c5.6-0.5,11.2-1.2,16.8-2.1c7.5-1.2,15-2.6,22.5-4.1c14-2.9,27.7-6.6,41.4-10.8c7.6-2.4,15.1-5.1,22.6-8c10.2-4,20.3-8.2,30.1-13
			c13.1-6.4,25.9-13.3,38.2-21c10-6.2,19.7-12.8,29.1-19.8c7.6-5.6,14.8-11.5,22-17.6c5.4-4.5,10.6-9.2,15.7-14
			c8-7.7,15.8-15.6,23.2-23.9c5.1-5.8,10.2-11.6,15.1-17.6c7.1-8.7,13.7-17.8,20-27.1c5-7.4,9.7-15,14.3-22.7
			c4.6-7.7,8.7-15.6,12.9-23.5c2.4-4.6,4.5-9.4,6.6-14.1c4.1-8.9,7.8-18,11.2-27.2c5.1-13.5,9.2-27.2,12.9-41.1
			c1.8-6.7,3.2-13.5,4.6-20.2c1.1-5.3,2.1-10.6,2.9-16c0.8-5.2,1.5-10.4,2.1-15.6c0.7-5.1,1.1-10.3,1.7-15.4c0.5-4.4,0.7-8.9,1-13.3
			c0.3-4.8,0.4-9.6,0.5-14.3c0.1-6.7,0.2-13.4-0.2-20.1c-0.3-5.2-0.5-10.5-0.7-15.8c-0.1-2.3-0.3-4.6-0.5-6.9
			c-0.3-3.9-1-7.7-1.3-11.6c-0.4-5.5-1.3-10.9-2.1-16.3c-1.3-8.1-2.8-16.1-4.5-24.1c-2.5-11.4-5.4-22.6-8.8-33.7
			c-5.8-18.6-12.7-36.8-21.1-54.4c-4.9-10.4-10.2-20.6-16-30.6c-6.8-11.6-14-22.9-21.8-33.7c-4.1-5.7-8.3-11.3-12.7-16.8
			c-4.5-5.5-9.1-10.9-13.7-16.3c-4.9-5.7-10.2-11-15.3-16.5c-4.3-4.5-8.9-8.8-13.4-13c-1.9-1.7-3.7-3.5-5.6-5.2
			c-5.6-4.7-11.1-9.6-16.9-14.1c-6.9-5.5-14-10.8-21.2-15.9c-6-4.2-12.1-8.2-18.4-12.2c-8.4-5.3-17-10.2-25.7-14.8
			c-8.2-4.3-16.5-8.4-25-12.1c-9.4-4.2-19-8-28.6-11.5c-14.4-5.1-28.9-9.5-43.8-13c-8.5-2-17.1-3.7-25.7-5.2
			c-4.7-0.8-9.4-1.3-14.2-2c-2.8-0.4-5.7-0.6-8.5-1.1c-3.9-0.6-7.7-0.8-11.6-1.2c-4.5-0.5-9-0.7-13.6-0.9c-4.8-0.3-9.6-0.4-14.3-0.5
			c-7.6-0.1-15.2,0-22.8,0.4c-3.7,0.2-7.5,0.8-11.2,0.6c-0.2,0-0.3,0-0.5,0c-4.5,0.5-9,0.9-13.5,1.4c-3.4,0.3-6.8,0.6-10.2,1.1
			c-4.1,0.5-8.2,1.2-12.3,1.8c-4.6,0.7-9.1,1.4-13.7,2.2c-6,1.1-12,2.2-18,3.6c-2.2,0.5-4.5,0.8-6.6,1.6c0.2,0.8,0.8,0.9,1.3,1.1
			c6.4,3.5,12.8,7.2,19,11.2c7,4.5,13.8,9.2,20,14.8c2.4,2.1,4.8,4.1,7.3,6.2c3.8,3.2,7.6,6.4,11.3,9.6c2.7,2.3,5.4,4.7,8.1,7.1
			c3.9,3.4,7.9,6.7,11.9,10c3.9,3.3,7.6,6.8,11.6,10c4.7,3.8,9.2,7.9,13.7,12c5.5,5,10.8,10.2,16,15.5
			C454.2,133.5,457.4,136.4,461.7,137.8z M251.2,587.9c-4.8-3.8-10.4-2.9-16-2.6c3.1,1.7,6.3,3.3,9.5,4.8c0.9,0.4,1.8,1.1,2.9,1.1
			c1.2,1.2,2.6,1.9,4.4,1.5c-0.1,0.9-0.2,1.7-0.7,2.5c-4.4,7.5-8.7,15.1-13.1,22.6c-0.5,0.8-0.9,1.8-1.8,2.2c-1.5,0.8-2.2,2.3-3,3.6
			c-1.1,1.8-2.1,3.6-3.1,5.4c-1.7,3.2-1.5,2.5,0.7,4.8c10.5,10.5,21.8,20.2,33.8,29c5.6,4.1,11.4,8,17.3,11.7
			c1.9,1.2,1.7,1.5,3.2-0.5c0-0.1,0.1-0.1,0.1-0.2c5.4-7.1,11.2-14,17.3-20.5c0.4-0.4,1-0.8,1.1-1.5c2.3-2.1,4.6-4.2,6.8-6.3
			c10.4-9.7,21.8-17.8,35-23.2c8.7-3.6,17.8-5.7,27-7.2c11.3-1.9,22.7-2.9,34.1-1.7c2,0.2,4.1,0.4,6.1,0.5c-0.7-0.6-1.4-1-2.2-1.4
			c-12.6-5.3-25.4-10.4-38.4-14.8c-19.9-6.8-40.1-12.5-61-15.2c-2.8-0.4-5.5-1-8.3-0.6c-0.6-0.1-1.2-0.3-1.9-0.4
			c-8.3-0.5-16.6-0.5-24.8,1c-1.7,0.3-3.6,0.3-5,1.3c-1.5,1-3.1,1.5-4.7,2.3c-3.9,2-8.3,2.6-12.1,4.7c-0.6-1,0.9-1,0.8-1.9
			C253.9,588.8,252.7,588,251.2,587.9z M240.3,600.4c0.3-2.2-0.9-3.8-2.2-5.4c-1.9-2.3-4.3-4.1-6.6-5.9c-1.9-1.5-3.9-3.1-5.4-5.1
			c-4.3-5.6-7.5-11.9-11-17.9c-0.3-0.4-0.2-1.1-0.9-1.2c-1.1,1.3-2.1,2.6-2.8,4.1c-3.5,6.9-7,13.8-10.5,20.7
			c-0.2,0.4-0.6,0.9-0.5,1.3c0.6,2.3,0.7,4.6,0.5,6.9c0,0.5,0.3,0.9,0.5,1.3c3.8,5.2,7.6,10.2,11.8,15.2c1-1.5,1.5-3.1,2.2-4.6
			c0.6-1.3,0.3-1.9-0.8-2.7c-5.3-3.8-9.5-8.7-13.2-14.1c0.2-0.1,0.4-0.2,0.6-0.4c0.2,0.1,0.5,0.2,0.6,0.3
			c7.5,5.5,15.3,10.5,22.4,16.5c1.5,1.2,3,2.4,4.7,3.2c1.1,0.6,2.3,0.8,3.3-0.2c1.3-0.1,2-1.2,2.7-2.1c2-2.4,3.2-5.2,4.2-8.2
			C240.4,601.6,240.6,601,240.3,600.4z M291.8,528.6c-1.2-0.5-2.2,0.1-3.2,0.4c-2.8,1-5.5,2-8.3,3.1c-5.2,2-10.4,4.1-15.9,5.3
			c-4.4,0.9-8.9,1.2-13.2-0.8c-1.1-0.5-2.8-0.9-2.6-2.1c0.2-1.4,2-1.1,3.2-1.3c5.1-0.7,10.3-0.9,15.5-1.9c5.6-1.1,10.7-3.4,14.7-7.6
			c2.6-2.7,4-6.3,3.9-9.8c-1.8,2.3-3.9,4-6.3,5.4c-6.9,3.8-14.2,5.6-22.1,4.8c-2.4-0.3-4.8-0.7-6.9-1.9c-5.3-3.2-10.3-6.7-14.3-11.5
			c-1.1-1.3-2.2-2.7-3.6-3.9c-1.3,1.3-3,1.9-3.6,3.8c-0.6,2-0.6,3.8,0.4,5.8c1.3,2.6,2.7,5.1,4.5,7.3c1.5,1.8,3,3.5,4.5,5.3
			c0.5,0.6,1,1.3,1.4,2c0.4,0.8,0.1,1.2-0.8,1.2c-1.2,0-2.2-0.5-3.1-1.1c-2.5-1.4-4.7-3.3-6.8-5.2c-0.4-0.3-0.6-1-1.4-0.6
			c-0.3,1.6-0.5,3.1-0.8,4.7c-1,5.3-0.9,5.6,3,9.4c0.5,0.5,1.1,1,1.6,1.5c0.4,0.4,0.9,0.7,0.7,1.4c-1.7,0.2-1.8,0.4-3-0.3
			c-2.4-1.3-4-0.5-5.7,1.2c-2,2.1-2.1,2-0.9,4.7c1.9,4.5,4.3,8.7,6.8,12.9c0.5,0.8,1.1,1.5,1.2,2.6c-1.1,0.3-1.9-0.4-2.8-0.7
			c-1.9-0.7-3.7-1.6-5.6-2.1c-1.4-0.3-1.7,0.1-1.8,1.4c0,1.1,0.4,2,1.1,2.8c3.8,4.4,8.4,7,14.3,7.1c1.5,0,3,0,4.5,0.4
			c0.5,0.1,1,0.3,1.1,0.8c0.1,0.6-0.4,1-1,1.2c-2,0.8-4.1,1.4-6.2,1.9c-1.8,0.4-3.7,0.5-5.7,0.7c0.9,3.1,2.2,5.6,4.7,7.3
			c0.7,0.5,1.2,0.5,1.8-0.3c1.3-1.7,2.7-3.3,4-5.1c0.8-1.2,1.7-1.5,3.2-1.2c4,1,8.1,1.9,12.2,2.6c2.9,0.5,5.8,1.4,8.8,1.1
			c0.9,0.3,1.7,0.2,2.5-0.3c2.1-1.4,3.1-3.3,2.8-5.8c0.1-1.1-0.3-1.9-1.4-1.6c-3.4,0.9-6.8,0.7-10.2,1.4c-4.5,0.9-8.7-0.1-12.7-2.1
			c-0.4-0.2-1-0.3-0.7-0.9c5.9-0.7,11.8-1.5,17.6-1.9c5.2-0.4,8.6-3.8,12.3-6.7c-2,0-3.8,0.7-5.5,1.4c-2.2,0.9-4.5,1.1-6.8,0.9
			c-4.7-0.3-9.3-1.1-14-2.1c-0.5-0.1-1.1-0.4-2-0.8c6-0.7,11.3-1.9,16.8-2.9c6.4-1.2,12.2-3.6,17-8.1c0.4-0.4,1-0.6,0.9-1.4
			c-0.8,0-1.6,0-2.3,0.1c-3.7,0.4-7.3,0.3-11,0.3c-5.3,0-10.3-1.3-15.2-3.1c-0.7-0.3-1.8-0.5-1.7-1.4c0.1-1,1.2-0.8,2-0.9
			c4-0.6,8-0.4,12-0.5c3.8-0.1,7.7-0.3,11.5-0.8c2.5-0.4,4.7-1.3,6.5-3.2c3.1-3.4,6.1-6.7,8.8-10.4
			C290.4,529.9,290.7,528.9,291.8,528.6c-0.1-0.1-0.3-0.2-0.4-0.4c0,0.1,0,0.1,0,0.1C291.5,528.5,291.6,528.6,291.8,528.6z
			 M442.2,629.1c-0.2-0.3-0.4-0.3-0.7-0.2c-0.3-0.1-0.6-0.1-0.9-0.2c-0.1-0.1-0.2-0.3-0.3-0.3c-5.3-1.5-10.6-3.2-16.1-4.3
			c-4.6-1.1-9.1-2.1-13.8-2.8c-6.8-1.1-13.7-2-20.6-1.9c-0.9-0.3-1.9-0.1-2.9-0.1c-5.6,0.5-11.3,1-16.9,1.7
			c-18.9,2.3-35.8,9.3-50.8,20.8c-12.7,9.7-23.6,21.3-33.8,33.5c-0.2,0.2-0.4,0.5-0.2,1c0.6,0.4,1.3,0.9,2.1,1.3
			c4.5,2.7,9,5.2,13.6,7.6c26.9,14,55.2,23.6,85.2,28.5c1.1,0.2,2.2,0.6,3.3,0.3c2.3,0.9,4.7,1.1,7.1,1c0.3,0.3,0.7,0.4,1.1,0.5
			c3.4,0.4,6.8,0.8,10.2,1c2.2,0.1,4.4,0.7,6.6,0.4c8.3,0.2,16.5,0.2,24.8-0.1c0.4,1,1.3,0.8,2.1,0.8c5.6-0.1,11.1-0.6,16.7-0.9
			c0.7,0,1-0.4,1.1-1c6.4-0.7,12.8-1.3,19.1-2.3c2.6-0.4,5.1-1.1,7.8-1.1c0,0.3,0.2,0.5,0.5,0.4c5.7-1.1,11.4-2.4,17-3.8
			c0.7-0.2,0.9-0.6,1-1.2c1.4-0.4,2.8-0.8,4.1-1.2c6.7-2.2,13.5-4.2,20.1-6.7c0.8,0.5,1.4,0.9,2.6,0.5c5.4-2.1,10.8-4.2,16.1-6.6
			c0.5-0.2,1.1-0.3,1.2-1c1.7-0.7,3.4-1.4,5-2.1c2.4-1,4.9-1.7,7-3.3c2.9-1.1,5.5-2.5,8-4.2c0.4-0.1,0.8-0.2,1.1-0.4
			c4.6-2.5,9-5.1,13.4-7.9c0.3-0.2,0.5-0.4,0.4-0.8c-1.2-0.3-2.4-0.6-3.6-0.9c-17.1-4.5-34-9.8-51-14.9c-5.9-1.8-11.8-3.8-18.1-4.6
			c-9.6-1.2-19.2-2.2-28.9-2.5c-12.8-0.4-25.6,0.1-38.2,2.6c-15.4,3.1-28.6,10.3-39.2,22c-7.3,8-12.6,17.4-17.2,27.2
			c-0.9,1.9-1.9,3.8-2.4,6c-0.6,0.3-0.5,1.2-1.2,1.5c-0.1-1.1,0.8-1.9,0.8-2.9c0.2-0.4,0.4-0.9,0.5-1.3c2.7-7.7,6-15.1,10.1-22.1
			c9-15.3,21.5-26.6,38.1-33.1c11.5-4.5,23.6-6.5,35.9-7.8c2.5-0.3,5.1-0.5,7.6-0.7c-5.2-2.4-10.2-4.8-15.2-7.1
			c-1.6-0.8-3.2-1.4-4.9-1.7c-0.7-0.1-1.4-0.3-2-0.6C450.5,631.4,446.4,630.1,442.2,629.1z M426.4,150.6c-7.5,5.9-18.2,13.2-27,16.8
			c-1.1,0.4-1.6,1-1.9,2.1c-1.4,5.7-4.3,10.2-9.7,13c-2.4,1.2-4,3.1-4.9,5.6c-1.1,3.1-3.2,5.5-5.8,7.4c-0.9,0.7-2,2-3.1,1
			c-1.2-1-0.1-2.4,0.5-3.4c1.7-2.7,2.9-5.7,4.3-8.6c1-2.2,2-4.5,3.2-6.7c2.3-4.2,3.1-8.7,3.1-13.4c0-5.3,0-10.6,0-15.8
			c0.1-9.8,3-18.7,9.3-26.3c1.7-2,3.4-4,5-6.1c2.8-3.8,6.6-4.8,11-3.7c2.6,0.7,5.1,1.7,7.6,2.9c6.3,3,12.5,6,18.8,9
			c1.1,0.8,2.2,1.6,4,1.8c-1.2-1.2-2.2-1.9-3.4-2.4c-14.9-10-28.6-21.5-42-33.5c-9.1-8.1-18.3-16-27.6-23.9
			c-15-12.7-31.3-23.5-49.2-31.7c-18.7-8.6-38.4-13-59-13.1c-8.1,0-16.1,0.9-24.1,2c-13.9,1.9-27.5,4.8-41,8.5
			c-19.8,5.4-39.1,12.5-57.3,22c-19.3,10-35.9,23.3-48.8,40.9c-22,30.2-34.8,63.7-37,101.1c-1,16.4,0.9,32.6,5.9,48.3
			c4.6,14.7,12.1,27.8,21.2,40.1c14.5,19.7,32.8,35.4,53.5,48.1c13.2,8.1,27.2,14.7,41.5,20.8c1.5,0.6,2.4,0.5,3.6-0.5
			c13.3-10.3,26.8-20.6,40.1-30.9c6.8-5.3,13.8-10.4,20-16.5c23.2-22.8,45.1-46.7,65.9-71.7c7.9-9.5,14.7-19.7,20.1-30.9
			c4.3-9,8.8-17.9,12.8-27c6.7-14.9,13.1-30,18.1-45.6c1.9-6,3.6-12.1,3.7-18.5c0.3-12.1-1.7-23.9-5.1-35.4c-1.2-4.1-2.6-8-4.2-12
			c-0.3-0.8-1-1.6-0.3-2.7c1.5,0.8,2.3,2.1,3.2,3.3c2.5,3.7,4.4,7.8,5.9,12c5.8,16.4,6.7,33.3,4.6,50.4c-1.5,12.3-5,24.1-9.7,35.5
			c-6.8,16.6-15.6,32-25.5,46.9c-20,30-43.5,57-69.9,81.7c-22.4,21-44.9,41.9-67.6,62.6c-0.6,0.5-1.3,0.9-1.5,1.8
			c0.3,0.2,0.7,0.4,1,0.6c10.1,5.8,20.1,11.8,30,17.9c7.2,4.4,12.9,9.9,16.7,17.6c5.2,10.4,10.3,20.8,12.2,32.6
			c0.8-0.2,1.3-0.8,1.9-1.3c25.7-21.2,51.5-42.4,77.2-63.6c8.9-7.4,16.9-15.7,23.5-25.2c8-11.6,13.6-24.2,14.9-38.4
			c0.2-2.7,0.7-5.4,2.3-7.7c0.7-1,1.3-1.7,2.7-1c0.7,0.4,1.5,0.4,2.3,0.5c8.1,1.4,16.3,2.2,24.5,2.5c12.3,0.6,24.5-0.1,36.6-1.7
			c14.1-1.9,27.7-5.4,41.1-10.2c26.1-9.4,52.7-16.5,80.6-18.3c7.5-0.5,15-0.4,22.5,0.6c6.1,0.8,12.2,1.4,18.4,1.2
			c2.8-0.1,5.6-0.5,8.1-1.7c2.1-1,3.1-2.7,3.1-5c0.1-4.5-1.4-8.2-4.9-11.2c-18.7-16.5-37.8-32.6-57.2-48.3
			c-10.5-8.5-21.6-15.9-33.5-22.2c-12.1-6.4-24.2-12.7-36.4-18.8c-9.6-4.8-19.1-9.6-28.9-14c-1.9-0.9-3.9-1.6-6-0.7
			c-1.9,0.8-3.6,0.4-5.2-0.5c-0.6-0.3-1.2-0.5-1.8-0.8c-4.6-1.8-9.1-4-13.8-5.6c-3.2-1.1-6.3-1-9.3,0.6c-2.6,1.3-5.3,2.6-7.9,3.9
			c-1.9,1-3.4,2.5-4.5,4.3c-3.8,6.3-4.3,13.2-4.4,20.6c9.6-4.4,19.8-6,29.2-10.1C423.1,152.6,426.2,150.6,426.4,150.6z M194,588.2
			c1.1-1.4,1.8-2.4,2.6-3.4c0.8-1,1.2-2,1.1-3.3c-0.4-4.1,1.2-7.5,4.2-10.3c3.6-3.4,7.1-6.9,10.9-10.2c1.6-1.3,1.9-3.4,3.2-4.9
			c0.3-0.3,0.1-0.9,0.1-1.4c0-1-0.2-1.9-0.4-2.8c-0.6-2.3-0.3-4.4,1.3-6.3c0.7-0.9,1.3-1.8,2-2.7c1.1-1.3,1.5-2.8,1.4-4.5
			c-0.1-1.2,0-2.4,0.1-3.6c0.5-4,1.5-7.8,2.7-11.6c1.6-5.1,1.8-10.2,0.6-15.4c-0.2-0.7-0.3-1.4-0.3-2.1c-0.1-3.2,1-4.9,4.1-5.5
			c1.3-0.3,1.7-0.8,1.5-1.9c-0.3-2.9-0.4-5.9-1.7-8.6c-0.8-1.7-1.4-3.6-1.9-5.4c-0.8-2.7-0.8-5.5-0.1-8.3c0.6-2.4,1.3-4.8,2.2-7.1
			c1.1-2.7,2.1-5.4,2.5-8.2c0.4-3.1,1.5-5.9,3.3-8.4c3-4.1,4-9,5.9-13.6c0.1-0.3,0.2-0.6,0.1-0.9c-0.3-1.8,0.4-3.5,1.1-5.1
			c0.7-1.4,0.6-2.7,0.1-4.1c-3.2-9.2-6.6-18.3-10.6-27.2c-3-6.7-6.2-13.3-10.7-19.2c-2.2-2.9-5-5.1-8.5-6.4c-3.3-1.2-6.7-2.2-10.1-3
			c-6.7-1.6-13.5-2.6-20.3-3.2c-5.4-0.5-10.8-0.9-16.2,0.1c-0.7,0.1-1.4,0-2.1-0.1c-1.6-0.3-3.1-0.7-4.7-1.1
			c-2.9-0.7-2.8-0.7-3.4,2.1c-1.6,7.7-3,15.5-4,23.3c-1,7.6-1.8,15.2-2.1,22.9c-0.5,13.3-0.5,26.7,0.7,40c0.7,7.2,1.5,14.5,2.7,21.6
			c2.2,13.5,5.3,26.8,9.5,39.8c6.8,21.3,15.8,41.5,27.3,60.6C190,581.9,191.9,584.9,194,588.2z M370.5,312.9
			c0.3,0.1,0.4,0.3,0.6,0.2c7.2-1.3,14.2,0,21.1,1.6c4.7,1.1,9.3,3,13.8,4.7c4.6,1.8,8.7,1.3,12.6-1.8c2.5-2,4.9-4.1,7.3-6.2
			c8.3-7.2,18.1-10.4,29.1-10.6c0.5,0,1.1,0.4,1.5-0.4c-5.7-5.5-12.6-7.7-20.3-7.2c-3.8,0.3-7.6,1-11.4,1.5
			c-10.7,1.3-21.5,1.9-32.3,1.3c-6.6-0.4-13.2-1.2-19.5-4.3C375.3,299.4,373.4,306.2,370.5,312.9z M383.8,349.2
			c-1.9-1.8-3.8-2.7-5.8-3.4c-3.5-1.2-7-1.6-10.5-0.1c-8.3,3.5-16.9,5.8-25.9,6.5c-0.6,0-1.1,0-1.5,0.5c-1.9,2-3.8,4-5.7,6
			c0.6,0.5,1.1,0.5,1.6,0.5c4.6,0.1,9.3,0.3,13.9,0c5.4-0.4,10.5-1.8,15.1-4.8c2.1-1.4,4.4-2.1,6.9-2.7
			C375.8,351,379.6,350.1,383.8,349.2z M224.7,627.4c1.9-3.5,2.9-6.9,3.8-10.4c0.1-0.6,0.1-1.1-0.4-1.5c-2.5-2.2-5.5-3.7-8.5-5.2
			c-0.8,2.9-1.1,5.6-1.5,8.3c-0.1,0.7-0.1,1.4,0.4,2C220.5,622.7,222.5,624.9,224.7,627.4z M560.3,269.8c0.2-0.9,0.6-1.8-0.6-2.7
			C560,268.3,560.1,269.1,560.3,269.8z M317.8,375.5c0.1,0.1,0.1,0.2,0.2,0.3c0.1-0.1,0.2-0.1,0.2-0.2c0-0.1-0.1-0.2-0.1-0.3
			C317.9,375.4,317.9,375.5,317.8,375.5z"/>
		<path class="st2" d="M461.7,137.8c-4.3-1.4-7.5-4.3-10.6-7.5c-5.2-5.3-10.5-10.5-16-15.5c-4.5-4.1-8.9-8.2-13.7-12
			c-4-3.2-7.7-6.7-11.6-10c-3.9-3.4-7.9-6.7-11.9-10c-2.7-2.3-5.4-4.7-8.1-7.1c-3.8-3.2-7.5-6.4-11.3-9.6c-2.4-2.1-4.9-4.1-7.3-6.2
			c-6.2-5.6-13-10.3-20-14.8c-6.2-4-12.5-7.7-19-11.2c-0.5-0.3-1.1-0.3-1.3-1.1c2.1-0.8,4.4-1.1,6.6-1.6c6-1.4,12-2.5,18-3.6
			c4.5-0.8,9.1-1.5,13.7-2.2c4.1-0.6,8.2-1.3,12.3-1.8c3.4-0.4,6.8-0.7,10.2-1.1c4.5-0.5,9-0.9,13.5-1.4c0.2,0,0.3,0,0.5,0
			c3.8,0.2,7.5-0.4,11.2-0.6c7.6-0.4,15.2-0.5,22.8-0.4c4.8,0.1,9.6,0.3,14.3,0.5c4.5,0.2,9.1,0.4,13.6,0.9
			c3.9,0.5,7.8,0.6,11.6,1.2c2.8,0.4,5.7,0.6,8.5,1.1c4.7,0.7,9.5,1.2,14.2,2c8.6,1.5,17.2,3.2,25.7,5.2c14.8,3.5,29.4,7.9,43.8,13
			c9.7,3.5,19.2,7.3,28.6,11.5c8.5,3.8,16.8,7.8,25,12.1c8.8,4.6,17.3,9.6,25.7,14.8c6.2,3.9,12.4,7.9,18.4,12.2
			c7.2,5.1,14.3,10.4,21.2,15.9c5.7,4.6,11.3,9.4,16.9,14.1c1.9,1.6,3.8,3.5,5.6,5.2c4.6,4.2,9.2,8.4,13.4,13
			c5.1,5.5,10.4,10.8,15.3,16.5c4.7,5.4,9.2,10.8,13.7,16.3c4.4,5.5,8.6,11.1,12.7,16.8c7.9,10.9,15.1,22.2,21.8,33.7
			c5.8,9.9,11.1,20.2,16,30.6c8.4,17.6,15.3,35.8,21.1,54.4c3.4,11.1,6.3,22.4,8.8,33.7c1.7,8,3.2,16.1,4.5,24.1
			c0.9,5.4,1.7,10.8,2.1,16.3c0.3,3.9,1,7.7,1.3,11.6c0.2,2.3,0.4,4.6,0.5,6.9c0.2,5.3,0.4,10.5,0.7,15.8c0.4,6.7,0.4,13.4,0.2,20.1
			c-0.1,4.8-0.2,9.6-0.5,14.3c-0.3,4.4-0.5,8.9-1,13.3c-0.6,5.1-1,10.3-1.7,15.4c-0.7,5.2-1.3,10.4-2.1,15.6
			c-0.8,5.3-1.8,10.7-2.9,16c-1.4,6.8-2.9,13.5-4.6,20.2c-3.6,13.9-7.8,27.6-12.9,41.1c-3.5,9.2-7.1,18.3-11.2,27.2
			c-2.2,4.7-4.2,9.5-6.6,14.1c-4.2,7.9-8.3,15.8-12.9,23.5c-4.6,7.7-9.3,15.3-14.3,22.7c-6.3,9.3-12.9,18.4-20,27.1
			c-4.9,6-9.9,11.8-15.1,17.6c-7.4,8.3-15.2,16.2-23.2,23.9c-5.1,4.8-10.3,9.5-15.7,14c-7.2,6.1-14.5,12-22,17.6
			c-9.4,7-19.1,13.6-29.1,19.8c-12.4,7.7-25.1,14.6-38.2,21c-9.8,4.8-19.9,9.1-30.1,13c-7.4,2.9-14.9,5.6-22.6,8
			c-13.6,4.3-27.4,8-41.4,10.8c-7.5,1.5-15,2.9-22.5,4.1c-5.6,0.9-11.2,1.6-16.8,2.1c-5.6,0.5-11.2,1.1-16.9,1.5
			c-2.8,0.2-5.6,0.2-8.4,0.4c-11.5,0.9-23,0.5-34.5,0.3c-4.3-0.1-8.6-0.1-12.9-0.7c-2.6-0.4-5.2-0.2-7.9-0.5
			c-4.3-0.5-8.7-0.9-13-1.4c-4.2-0.4-8.4-1.1-12.5-1.6c-4.1-0.5-8.2-1.2-12.2-2c-9.5-1.7-18.9-3.7-28.2-6.1
			c-14.8-3.8-29.3-8.3-43.6-13.7c-11.2-4.2-22.2-9-33-14.1c-9.2-4.4-18.2-9.3-27.1-14.3c-10.2-5.7-20-12-29.6-18.7
			c-7.7-5.3-15.2-11-22.6-16.9c-5.9-4.7-11.6-9.7-17.4-14.6c-2.2-1.9-4.4-4-6.5-6c-3.8-3.6-7.7-7.2-11.4-11
			c-5-5.1-10-10.3-14.8-15.7c-9.3-10.4-18.1-21.2-26.3-32.5c-7.8-10.8-15.2-21.9-21.9-33.4c-3.6-6.1-7-12.4-10.3-18.6
			c-7.7-14.6-14.3-29.6-20.1-45c-3-7.9-5.7-15.9-8.2-24c-3.5-11.2-6.5-22.5-8.9-34c-1.7-7.9-3.3-15.9-4.4-23.9
			c-0.5-3.9-1.3-7.7-1.8-11.5c-0.5-3.6-0.6-7.3-1.1-10.9c-0.4-2.6-0.2-5.3-0.8-7.8c-0.1-0.2-0.1-0.5-0.1-0.7
			c0.1-4.2-0.3-8.5-0.6-12.7c-0.7-11.4-0.4-22.9-0.2-34.3c0.1-4.2,0.1-8.4,0.7-12.6c0.4-2.4,0.3-4.9,0.5-7.4
			c0.3-5.5,1-10.9,1.6-16.4c0.7-6,1.7-12,2.7-17.9c1.2-6.8,2.5-13.6,4-20.4c3.3-15,7.4-29.8,12.5-44.4c3-8.8,6.4-17.6,10-26.1
			c0.7-1.7,1.4-3.4,2.1-5.1c0.2-0.4,0.3-1,1-1.1c1.3,1.7,1.9,3.9,2.8,5.9c2.1,4.5,4.3,8.9,6.7,13.3c3.3,6,6.9,11.9,10.8,17.5
			c4.2,6,8.6,11.9,13.4,17.4c3.1,3.6,6.5,7,9.6,10.7c3.5,4,7.5,7.4,11.3,11c7.5,6.9,15.5,13.3,24.4,18.5c2.3,1.4,4.8,2.6,7.3,3.5
			c1.8,0.7,1.8,0.8,1.5,2.8c-1.3,6.7-2.7,13.4-3.8,20.2c-0.7,4.3-1.2,8.7-1.7,13c-0.5,4.4-0.6,8.9-1.3,13.3c0,0.2,0,0.3,0,0.5
			c-0.2,8.9-0.9,17.7-0.4,26.6c0.3,5.6,0.4,11.1,0.9,16.7c0.5,5.6,1.1,11.2,1.9,16.8c1.2,7.9,2.6,15.8,4.4,23.7
			c2.6,11.7,6.1,23.1,10.1,34.4c2.6,7.4,5.6,14.6,8.8,21.7c2.6,5.8,5.5,11.4,8.3,17c3.3,6.5,7,12.7,10.9,18.9
			c4.9,7.8,10.2,15.5,15.9,22.7c3.4,4.3,6.8,8.7,10.4,12.8c5.8,6.7,11.7,13.4,18.1,19.4c6.9,6.5,13.9,12.9,21.4,18.8
			c6,4.7,12,9.3,18.2,13.6c5.9,4,11.9,7.8,18,11.4c7.9,4.7,16.1,8.8,24.4,12.8c6.8,3.3,13.7,6.1,20.7,8.7
			c11.7,4.3,23.5,8.1,35.7,10.9c7.3,1.7,14.6,3.1,22,4.3c5.3,0.9,10.7,1.6,16.1,2.2c2.8,0.3,5.6,0.4,8.3,0.7
			c4.4,0.6,8.9,0.2,13.4,0.7c3.6,0.5,7.4,0,11,0.1c5.4,0.1,10.7-0.4,16-0.6c6.6-0.2,13.2-1,19.7-1.9c13-1.7,25.9-4.2,38.6-7.7
			c11.9-3.2,23.7-7.2,35.1-11.9c7.8-3.2,15.6-6.7,23.1-10.6c7.9-4.1,15.7-8.6,23.3-13.3c8.2-5.1,16-10.8,23.7-16.7
			c4.5-3.5,8.8-7.1,13.1-10.8c6.8-5.9,13.1-12.2,19.4-18.6c4-4,7.6-8.4,11.3-12.6c9.2-10.6,17.3-21.9,24.9-33.6
			c3.3-5.2,6.4-10.5,9.4-15.9c2.9-5.2,5.5-10.6,8.2-16c3.7-7.6,7-15.4,9.9-23.4c4.1-11.1,7.6-22.4,10.3-33.8
			c1.7-7,3.2-14.1,4.2-21.3c0.5-3.7,1.3-7.4,1.7-11.1c0.4-3.9,0.8-7.9,1.2-11.9c0.4-3.5-0.1-7,0.8-10.5c0.1-0.5,0-1.1,0-1.7
			c0-8.6,0.2-17.1-0.1-25.7c-0.1-3.6-0.1-7.3-0.7-10.9c-0.3-2-0.4-4.1-0.5-6.2c-0.2-3.4-0.7-6.8-1.2-10.2c-0.7-5.5-1.7-11-2.8-16.5
			c-1.7-8.7-3.7-17.3-6.2-25.8c-2.8-9.4-5.9-18.7-9.6-27.8c-1.8-4.4-3.8-8.6-5.6-13c-1.7-4-3.7-8-5.7-11.9
			c-6.5-12.5-13.8-24.5-21.9-36c-4.1-5.7-8.3-11.3-12.7-16.7c-2.6-3.3-5.5-6.4-8.3-9.6c-4.5-5-8.9-10-13.8-14.6
			c-5.7-5.3-11.4-10.7-17.4-15.7c-9.6-8-19.6-15.3-30.1-22.1c-6.6-4.3-13.5-8.2-20.4-12c-5.4-2.9-11-5.6-16.5-8.2
			c-6-2.8-12.1-5.3-18.3-7.6c-12.1-4.5-24.4-8.4-37.1-11.2c-7.4-1.7-14.8-3.3-22.3-4.2c-4.1-0.5-8.2-1.2-12.3-1.8
			c-0.9-0.1-1.8-0.1-2.6,0.1C462.4,137.9,462.1,137.8,461.7,137.8z M390.4,779.3c0.7,0.3,1.4,0.1,2-0.4c0.7-0.6,1.5-1.1,2.3-1.8
			c4.5-4,8.2-8.7,12.8-12.7c0.8-0.7,0.6-1.4,0.3-2.2c-0.8-2.1-2-4-3.5-5.7c-1.7-1.8-3.2-3.8-4.6-5.8c-0.9-1.3-1.9-2.6-3-3.8
			c-1.6-1.9-3.7-3-6.1-3.6c-1.3-0.3-2.5-0.2-3.7,0.3c-2.7,1.2-5.3,2.6-7.7,4.4c-4.6,3.4-8.4,7.7-12.3,11.7c-0.7,0.8-1.1,1.8-1.2,2.8
			c-0.3,2.6,0.8,4.7,2.4,6.6c1.7,2.1,3.9,3.6,5.8,5.3c1.8,1.6,3.8,2.9,5.6,4.9c-1.8,0.9-3.3,2-4.5,3.4c-3.2,3.7-6.9,6.9-10.7,9.9
			c-1.5,1.2-2.7,2.5-3.6,4.1c-0.9,1.6-1.2,3.2-0.6,5c0.9,2.9,2.5,5.4,4.4,7.6c3.9,4.6,8.8,8.2,13.2,12.2c0.9,0.8,2,1.1,3.1,0.7
			c1.9-0.8,3.9-1.4,5.6-2.7c3.5-2.5,7-5,10.5-7.6c3.2-2.4,6.2-5,8.8-8.1c1-1.2,1.3-2.3,0.6-3.9c-2-4.4-4.8-8.3-7.9-12
			c-2.6-3.1-5.5-5.8-8.2-8.7C390.2,779.5,390.3,779.4,390.4,779.3z M621.8,691c0.2,0.1,0.4,0.2,0.6,0.4c7,6.3,14.2,12.4,21,18.9
			c9.1,8.8,17.5,18.3,23.9,29.2c0.5,0.8,1.1,1.6,1.8,2.3c2.4,2.5,4.5,2.5,7.1,0.2c3.4-3.1,3.5-4.1,0.3-7.5c-3.1-3.3-6.4-6.5-9.5-9.8
			c-2.8-2.9-5.5-5.8-7.8-9.1c-0.6-0.8-0.9-1.6-0.4-2.6c3.3-6.1,5.7-12.7,9.1-18.8c1.3-2.3,2.8-4.5,4.6-6.4c0.8-0.9,1.4-1,2.3-0.1
			c2,1.9,4,3.7,6.1,5.5c6.6,5.9,13.1,11.9,18.5,19c1.4,1.9,2,2,4.3,1.2c1.6-0.6,2.9-1.7,4.2-2.7c1.8-1.3,1.8-1.7,0.3-3.3
			c-0.2-0.2-0.4-0.5-0.7-0.7c-2.6-1.7-4.8-3.9-7.3-5.8c-7-5.3-13.4-11.4-19.3-17.9c-5.5-6-10.7-12.3-16.7-17.9
			c-1.6-1.5-2.8-3-3.3-5.1c-0.1-0.6-0.3-1.3-0.7-1.7c-1.4-1.3-2.9-2.5-4.3-3.8c-0.4-0.3-0.9-0.4-1.3-0.1c-2.3,1.7-4.6,3.5-6.2,6
			c-0.4,0.6-0.4,1.1,0.1,1.7c1.8,1.8,3.3,3.9,4.8,6c0.4,0.5,0.8,0.9,1.6,0.8c3-0.3,5.4,1.1,7.5,3.1c1.5,1.5,2.7,3.1,4,4.8
			c1.6,2.1,1.8,3.1,0.4,5.4c-1.3,2.2-2.7,4.4-4.3,6.3c-2.5,3.2-4.5,6.6-6.4,10.1c-1.2,2.3-2.7,4.5-4.4,6.5c-0.7,0.8-1.3,1.1-2.3,0.2
			c-4.9-4.5-9.8-8.9-14.7-13.4c-0.8-0.7-1.3-1.6-1.4-2.7c0-0.7-0.1-1.6-0.6-2c-1.8-1.7-3.1-3.8-4.9-5.5c-1.8-1.8-3.8-1.4-5,0.9
			c-0.8,1.5-1.5,3-2.2,4.5c-0.2,0.4-0.3,1-1,0.7c-1.9-0.6-3.4,0.6-4.9,1.4c-2.9,1.5-5.3,3.6-7.8,5.6c-4.4,3.6-8.9,7-14.4,8.9
			c-4.2,1.4-7.8,4-11.7,6.1c-4.8,2.7-9.6,5.4-14.4,8.1c-0.7,0.4-1.6,0.5-1.4,1.6c0.3,2.4,0.9,4.7,2.4,6.7c0.7,1,1.5,1.4,2.7,0.7
			c1.3-0.8,2.9-1.2,3.8-2.7c0.3-0.5,0.8-0.9,1.4-0.9c2.3,0.1,3.8-1.5,5.4-2.7c2.7-1.9,5.3-3.8,8.5-4.9c2.5-0.9,2.5-0.9,3.4,1.6
			c0.3,0.8,0.6,1.6,0.8,2.5c0.2,0.8,0.6,1.4,1.3,1.9c3.7,2.7,6.4,6.2,8.7,10.1c2,3.4,3.7,6.9,5.4,10.4c0.9,1.9,1.7,3.9,2.9,5.5
			c3.5,4.5,6.3,9.4,9.1,14.4c1.8,3.2,3.7,6.4,5.9,9.3c1.4,1.8,2.2,1.9,4,0.5c0.8-0.6,1.5-1.5,2.4-2c1.1-0.7,1.2-1.6,1-2.7
			c-0.4-2.6-1.4-5.1-2.6-7.4c-1.3-2.5-3-4.8-3.8-7.5c-1.4-4.4-3.9-8-7-11.3c-1.6-1.8-3.2-3.5-4.6-5.5c-1.1-1.5-2.1-3-2.5-4.9
			c-0.7-3.3-2.4-6-4.6-8.6c-1.8-2.1-3.9-4.1-5.5-6.3c-1.2-1.7-2.1-3.5-2.4-5.7c-0.2-1.2,0.1-2.1,1.2-2.8c1.5-1,3.1-2,4.4-3.3
			c2.5-2.5,5.4-4.2,8.5-5.8c1.7-0.9,3.4-1.8,5-2.8c1.6-1,2.6-2.1,1.6-4.1C621.6,691.2,621.7,691.1,621.8,691z M280.7,793.5
			c2.7,0.1,5.3,0,7.8-0.5c4.2-0.8,8.2-1.7,11.5-4.9c2.1-2.1,4.7-3.6,7.5-4.7c4.9-1.9,8-5.5,9.9-10.2c1.2-3,1.9-6.1,2.8-9.2
			c1.1-3.9,2.1-7.9,4.6-11.2c0.5-0.7,0.5-1.4,0.4-2.3c-0.2-1.7-0.7-3.5,0-5c0.9-2,0.2-3.2-1.1-4.4c-0.9-0.9-1.8-1.7-2.3-3
			c-1.2-3.3-3.1-6.1-5.5-8.6c-1.6-1.7-3.3-3.5-4.9-5.3c-0.8-0.9-1.7-1.4-2.8-1.7c-2-0.5-4-1.1-6-1.5c-1.2-0.2-2-0.8-2.7-1.8
			c-1.5-2.2-3.7-3.2-6.4-3.1c-1.9,0.1-3.6,0.5-5.4,0.9c-4.9,1.3-10.1,1.7-14.7,3.9c-2.2,1.1-4.5,2-6.9,2.8
			c-6.7,2.5-11.1,7.3-14,13.7c-2,4.3-3.2,8.9-3.7,13.6c-0.4,3.3-0.9,6.7-0.3,10c1.1,6.3,3.3,12.2,6.5,17.7c3.3,5.6,7.7,10.2,13.7,13
			c1.1,0.5,2.2,1,3.4,1.1C275,793.2,278,793.6,280.7,793.5z M754.1,595.4c-4,0.7-7.8,1.4-11.6,2.1c-5,0.9-9.8,2.3-14.9,2.4
			c-5.2,0.1-10.1,0.8-14.9,2.7c-2.9,1.2-6.1,1.3-9.2,0.4c-1.1-0.3-2,0-2.9,0.6c-1.2,0.7-2,1.9-2.7,3c-1.6,2.7-1.7,2.7,1,4.4
			c6.6,4.4,13.8,7.7,21,11c6.9,3.2,13.8,6.5,19.9,11.1c2.3,1.7,4.6,3.4,7.5,4c1.6,0.4,3.1,1.3,4.6,2.1c2.1,1.3,4.2,2.6,6.4,3.8
			c1,0.6,2.1,1.2,3.1,1.8c0.9,0.5,1.9,0.4,2.3-0.6c0.8-2,1.9-3.9,2.1-6.1c0.4-3.3-2.2-5.6-5.4-4.9c-0.9,0.2-1.6,0.1-2.5-0.3
			c-11.4-6.1-22.8-12.2-34.2-18.4c-0.4-0.2-0.9-0.4-1.2-0.7c-0.8-0.6-0.8-1.3,0.1-1.7c2-0.8,3.9-2,6.4-1.7c3,0.4,5.7-0.4,8.1-2.3
			c0.5-0.4,0.9-0.6,1.5-0.6c5.5-0.3,10.9-1.5,16.3-2.7c6.4-1.4,12.8-2.6,19.5-2.1c1.6,0.1,3.2-0.1,4.7-0.6c0.9-0.3,1.8-0.5,2.5-1.4
			c-4.3-2.4-8.5-4.8-12.5-7.4c-12-8-24.1-15.8-37.1-22.1c-0.7-0.3-1.3-0.7-1.7-1.3c-3.3-4.2-8.1-5.8-12.8-7.6
			c-0.6-0.2-1.2-0.3-1.7,0.4c-1.4,2.1-2.6,4.4-3.2,6.9c-0.1,0.5-0.1,1,0.4,1.2c1.7,0.8,3.2,2.2,5.3,1.6c1.2-0.4,2.2,0.1,3.2,0.7
			c1.4,0.8,2.6,1.8,3.7,3c1.3,1.4,2.5,2.9,3.7,4.4c1.2,1.5,2.5,2.8,4.8,2c0.9-0.3,1.9,0,2.8,0.4c1,0.4,1.9,0.9,2.8,1.4
			c4.2,2.5,7.9,5.8,12.3,7.8C752.7,592.9,753.6,593.9,754.1,595.4z M742.6,400.3c-0.2,3.7,1.3,5.4,4.4,5.2c2.4-0.1,4.8-0.3,7-1.2
			c4.7-1.9,9.7-2.5,14.7-3c4.8-0.5,9.6-1,13.8-3.6c0.8-0.5,1.5-0.4,2.3-0.1c2.9,1,5.8,0.7,8.7-0.2c2-0.7,4-1.5,6-2.3
			c2.1-0.8,4.2-1.6,6.3-2.2c0.9-0.2,1.7-0.2,2.4,0.5c1.5,1.6,3.5,1.8,5.6,1.4c1.6-0.3,3.1-0.8,4.7-0.8c2.1-0.1,3.2-1.2,3.2-3.2
			c0-2.3-0.6-4.4-1.6-6.5c-0.9-1.8-1.1-1.9-3.2-1.7c-0.3,0-0.6,0.1-0.9,0.1c-5.7,1-11.3,2.3-16.9,3.5c-4.4,1-8.7,2-13.2,2.6
			c-1.6,0.2-1.7,0.1-1.6-1.5c0.1-3.4,1.4-6.4,3.5-9c2-2.3,4.1-4.5,6.1-6.8c1.6-1.9,3.5-3.7,4-6.4c0.1-0.9,0.9-1.5,1.6-2.1
			c1.6-1.2,2.7-2.9,3.7-4.7c1.7-3,2.8-6.4,5.1-9c2.4-2.7,2.6-4.9,0.5-7.8c-0.9-1.3-1.7-2.1-3.3-2.4c-1.8-0.2-1.8,1.3-2.4,2.3
			c-5.7,10.1-11.6,20.1-18.6,29.3c-1.6,2.1-3.3,4.1-5.1,6c-1.5,1.5-2.8,1.5-4.2-0.1c-2.3-2.5-4.6-4.9-6.9-7.3
			c-2.1-2.2-4.4-4.1-7-5.8c-1.6-1.1-2.9-1.1-4.3,0.2c-1,0.8-2,1.6-3,2.4c-4.1,3.9-6.5,8.9-8.1,14.2
			C743.9,387.1,743.2,393.9,742.6,400.3z M770.4,262.9c0.1,1.5-0.7,2.5-2,3.3c-1,0.6-2.2,0.9-3.4,1c-2.4,0.2-4.5,1.2-6.3,2.6
			c-1.1,0.9-2.2,1.8-3.4,2.7c-1.3,1-2.7,2-4.2,2.7c-2.1,1-3.8,0.9-5.6-1c-3-3.1-5.9-6.3-8.7-9.6c-2.2-2.6-4.7-5-7.6-6.9
			c-0.6-0.4-1.2-1-1.9-0.6c-1.1,0.6-2.3,1.1-3.3,1.9c-1.3,1-1.4,2.1-0.3,3.5c0.7,0.8,1.4,1.6,2.1,2.3c3.1,3,6.3,5.9,9.4,8.9
			c2.1,2,3.7,4.4,5,7c0.5,1,0.3,1.4-0.7,1.8c-6,2.8-11.6,6.1-17.1,9.6c-0.9,0.6-1.6,0.5-2.3-0.2c-1.1-1-1.9-2.1-2.8-3.3
			c-1-1.4-2.1-2.8-3.9-3.5c-0.8-0.3-1-1-1.4-1.6c-2.8-4.8-5.6-9.5-8.3-14.3c-0.5-0.8-0.8-1.9-1.6-2.4c-1-0.7-1.9,0.4-2.8,0.7
			c-2.8,0.9-3.1,1.7-1.6,4.1c3,5.3,6.2,10.4,9.2,15.8c2.9,5.3,6.8,10.1,9.8,15.3c0.8,1.4,1.3,1.6,3,1.1c1.9-0.6,3.8-1.2,5.7-1.7
			c0.9-0.3,1.7-0.7,2.5-1.4c4.9-4,10.2-7.4,15.8-10.4c8.1-4.2,16.2-8.3,24.3-12.4c5.9-3,11.6-6.4,16.9-10.4c1.5-1.1,1.5-1.1,0.5-2.8
			c-0.2-0.3-0.3-0.5-0.5-0.8c-5.2-8.6-10.4-17.2-15.6-25.9c-1.6-2.7-3.2-5.5-4.8-8.3c-0.5-0.9-1-1.1-1.9-0.5c-1.1,0.7-2.2,1.2-3.3,2
			c-2.1,1.4-2,1.4-1,3.8c2.3,5.8,5.9,11,7.5,17.1c0.3,1,0.9,1.9,1.4,2.8c0.7,1.3,1.5,2.7,2.2,4C770,260.2,770.5,261.5,770.4,262.9z
			 M711.4,637.3c0.1-0.7-0.2-1.2-0.7-1.6c-0.6-0.4-1.1-0.9-1.7-1.3c-2.2-1.6-3.5-1.3-4.6,1.2c-1.6,3.4-2.7,7-3.9,10.6
			c-1.2,3.5-2.6,6.9-4.9,9.8c-1.8,2.3-1.8,2.3-3.9,0.5c-0.5-0.4-1-0.8-1.5-1.2c-4.2-3.5-8.6-6.7-13.1-9.7c-1-0.7-1.2-1.3-0.8-2.4
			c0.5-1.4,1.2-2.6,1.9-3.8c0.7-1.2,1.5-2.5,1.5-4c0-1.2,0.5-2.1,1.2-3c3.3-4.5,6.7-9,10-13.5c1.5-2,1.5-2-0.2-3.7
			c-0.3-0.3-0.6-0.8-0.9-1.1c-1.4-1.3-2.4-1.3-3.6,0.2c-3.7,4.9-7.3,9.9-11,14.8c-3.8,5-6.8,10.4-10.5,15.4c-1,1.4-0.9,1.8,0.3,3.1
			c1.2,1.5,2.5,2.9,3.7,4.4c0.7,0.8,1.5,1.4,2.4,1.9c4.3,2.3,8.4,4.9,12.3,7.8c7.3,5.4,14,11.4,21,17.2c6,5,12.1,9.7,18.8,13.7
			c2.9,1.7,2.4,1.8,4.2-0.8c3.5-5,7-9.9,10.6-14.9c4.1-5.7,8.3-11.4,12.4-17.1c1.1-1.5,1.1-1.5-0.3-2.6c-1-0.8-2-1.6-3.1-2.2
			c-1.7-1-1.9-1-3.2,0.5c-3.1,3.4-6.1,6.7-9,10.3c-0.4,0.5-0.7,1.1-1.3,1.4c-2.1,1.2-3.5,3.1-4.9,4.9c-1.2,1.6-2.3,3.2-3.9,4.6
			c-2.7,2.4-5.2,2.1-7.3-0.8c-0.2-0.3-0.5-0.7-0.6-1c-1-2.1-2.6-3.6-4.6-4.7c-1.7-0.9-3.4-1.8-5.1-2.7c-1.8-1-3.4-2.1-4.6-3.8
			c-0.6-0.8-0.8-1.6-0.4-2.7c0.7-2,1.4-3.9,2.3-5.8c1.8-4.3,4.3-8.2,5.7-12.7C710.7,640.7,711.1,639,711.4,637.3z M760.7,332.4
			c-1.5,0.5-2.9,0.9-4.4,1.3c-5,1.7-9.9,3.6-14.8,5.6c-1.8,0.8-2.1,0.7-3.2-0.9c-0.8-1.1-1.4-2.3-2-3.5c-0.7-1.2-1.2-2.5-2.4-3.2
			c-1.1-0.6-1.5-1.6-1.9-2.6c-2-5.2-4-10.4-6-15.7c-0.9-2.3-0.9-2.3-3.2-1.8c-0.3,0.1-0.6,0.1-0.9,0.2c-2.5,0.5-2.9,1.3-2,3.6
			c2.2,5.7,4.5,11.3,6.6,17c2.1,5.8,5.1,11.2,7.3,16.9c0.5,1.2,1.3,1.7,2.6,1.5c1.8-0.3,3.6-0.6,5.5-0.8c1.5-0.1,2.7-0.7,4-1.4
			c3.3-1.9,6.8-3.5,10.4-5c8.4-3.4,17-5.9,25.7-8.7c8.5-2.7,17-5.6,24.9-9.8c1.6-0.8,1.6-0.9,0.9-2.5c-3.1-7.6-6.2-15.2-9.3-22.9
			c-2-4.9-3.8-9.8-5.8-14.7c-0.6-1.6-0.7-1.6-2.2-1.1c-1.2,0.4-2.4,0.9-3.5,1.5c-1.9,0.9-2,1.1-1.4,3.2c1.1,4.2,2.3,8.5,3.7,12.6
			c0.2,0.6,0.5,1.2,0.5,1.8c0,2.7,0.9,5.2,1.8,7.7c0.5,1.3,1,2.5,1.3,3.9c1.3,4.9-0.6,7.2-5.7,6.9c-2-0.1-3.8,0.2-5.6,1.1
			c-1.6,0.8-3.1,1.7-4.6,2.5c-2,1.1-4,2.1-6.2,2.4c-1.3,0.2-2.3,0-3.1-1.1c-1.9-2.5-3.7-5-5.3-7.7c-1.8-2.9-3.5-5.9-5.7-8.6
			c-1.1-1.4-2.3-2.7-3.6-3.8c-0.5-0.4-1-0.9-1.7-0.6c-1.1,0.4-2.3,0.8-3.3,1.3c-1.5,0.8-1.8,1.9-0.9,3.4c1.4,2.4,3.1,4.5,4.8,6.6
			c2,2.5,4.1,4.9,5.8,7.7C759,327.2,760.2,329.6,760.7,332.4z M635.9,190c-0.9,0.8-1.7,1.6-2.6,2.2c-1.8,1.4-1.8,2.4,0,4
			c4.5,4.1,9.1,8,13.6,12.1c4.5,4.1,9.6,7.6,14.2,11.7c1.2,1.1,1.8,1.1,3.2,0.1c1.6-1.1,3.2-2.3,4.9-3.5c0.7-0.5,1.3-1.1,1.8-1.9
			c4.4-6.7,9.6-12.8,15.3-18.4c4.6-4.6,9.3-9.3,13.9-13.9c5-5,9.7-10.2,13.9-15.9c2.4-3.4,2.5-2.5-0.6-5.2
			c-9.1-7.8-18.2-15.6-27.2-23.6c-3.8-3.4-3.9-3.4-7,0.8c-0.1,0.2-0.3,0.4-0.4,0.6c-0.9,1-0.7,1.9,0.2,2.9c2.8,2.9,5.5,6,8.4,8.8
			c0.9,0.8,1.9,1.5,2.5,2.6c1.1,2.1,2.8,3.7,4.4,5.3c1.3,1.3,2.8,2.4,3.9,3.9c2.5,3.2,1.9,5.9-1.7,7.8c-0.2,0.1-0.4,0.2-0.7,0.3
			c-2.1,0.8-3.7,2.2-5,4c-0.9,1.3-1.8,2.7-2.6,4c-1.2,1.8-2.4,3.5-4.3,4.8c-1.2,0.8-2.3,1.1-3.7,0.4c-3.9-1.9-7.6-4.1-11.3-6.3
			c-2.7-1.6-5.4-3.1-8.4-4.1c-3.4-1.1-3.6-1.1-5.9,1.6c-1.6,1.9-1.4,3.2,0.8,4.4c2.8,1.7,5.8,3,8.8,4.3c4.3,1.9,8.4,3.9,11.7,7.3
			c1.2,1.2,1.2,1.3,0,2.4c-3.9,3.8-7.6,7.7-11.1,11.9c-3.3,4-3.3,4-7.6,0.9c-1.2-0.9-2.3-1.9-3.7-2c-1.8-0.2-3.1-1.2-4.3-2.3
			c-1-0.9-2-1.8-3-2.7C643,196.2,639.4,193.1,635.9,190z M558.6,782.8c0.2-4.1,0.3-8.2,0.3-12.2c0-3,1.3-4.5,3.8-5.6
			c0.7-0.3,1.5-0.7,2.2-1c3.2-1.4,6.5-2.6,9.3-4.9c0.4-0.3,1-0.6,1.5-0.8c1.9-0.8,2.8-0.6,4.3,0.9c4.4,4.7,8.8,9.5,13.2,14.3
			c3.3,3.6,6.6,7.2,10,10.7c1.5,1.6,3.9,1.7,5.5,0.6c1.5-1.1,1.9-3.3,0.9-5.2c-0.6-1.2-1.6-2.2-2.6-3.1
			c-9.1-9.3-18.1-18.5-26.6-28.3c-0.6-0.7-1.1-1.4-1.9-1.8c-3.3-1.9-6-4.5-8.6-7.2c-1.6-1.7-3.2-3.4-5-4.9c-2.6-2.1-4.7-4.6-6.4-7.4
			c-0.5-0.8-1-1.5-1.5-2.2c-0.6-0.8-1.3-1.4-2.1-1.9c-1.4-0.9-2.9-1.5-4.5-0.5c-1.5,1-2,2.6-1.6,4.2c0.7,2.7,0.5,5.4,0.7,8.1
			c0.3,4.9,0.5,9.9,0.1,14.9c-0.7,9.2-0.2,18.4,0.4,27.5c0.2,2.9,0.6,5.7,0.4,8.6c-0.2,3.7-0.7,7.5-1.1,11.2
			c-0.3,3.3-0.3,6.5,0.9,9.7c0.3,0.7,0.5,1.3,1.5,1c2.8-0.8,5.4-1.9,7.9-3.4c0.5-0.3,0.9-0.7,0.9-1.3c0-2.6,0.2-5.3-1.4-7.7
			c-0.5-0.8-0.5-1.6-0.5-2.5C558.6,789.4,558.6,786.1,558.6,782.8z M243.2,686c-1.7,0.5-4.1,0.1-6.2,0.9c-3.3,1.3-6.8,1.8-10.3,2
			c-3.1,0.2-6.2,0.5-9.2,1.3c-0.7,0.2-1.4,0.4-1.8,1.1c-1,2-1.8,4.1-1.9,6.4c-0.1,1.9,0.6,2.6,2.5,2.7c2,0,4-0.3,5.9-0.9
			c5.6-1.8,11.2-3.2,16.9-4.3c2.1-0.4,2.5-0.2,3.2,1.8c0.2,0.5,0.4,1.1,0.5,1.6c0.3,1.9,0.8,3.8,1.4,5.6c1,2.5,0.5,5-1,7
			c-3,3.8-6.6,7.1-11.1,8.9c-11.8,4.9-23.7,9.5-35.6,14.3c-3.3,1.4-5.3,3.6-6.5,6.8c-1.1,3-1.2,3,1.7,4.5c0.8,0.4,1.6,0.8,2.3,1.2
			c4.1,2.3,8.4,4.3,12.3,6.9c2.1,1.4,4.1,2.8,5.5,4.9c1,1.5,2.4,2.5,4,3.4c2.3,1.3,4.6,2.5,6.9,3.9c0.9,0.6,1.4,0.3,1.9-0.5
			c1.1-1.6,2.2-3.2,3.3-4.7c1.3-1.9,1.3-1.9-0.1-3.7c-2-2.5-4.6-4.2-7.4-5.6c-3-1.5-6.1-2.8-9.1-4.3c-2.5-1.2-4.6-2.8-6.5-4.9
			c-1.4-1.6-1.3-2.1,0.6-3c4.3-2,8.7-3.7,13.1-5.4c8.2-3.1,16.5-6.1,24.2-10.3c0.6-0.3,1.2-0.4,1.8-0.5c3-0.6,5-2.4,6-5.3
			c0.8-2.4,1.2-5,1.4-7.5c0.1-1.3,0.8-2.5,0.3-3.8c-1.2-3.6-1.2-7.4-1.4-11.1c-0.1-2.1-0.4-4.1-1.5-6
			C248.2,687.3,246.3,686,243.2,686z M812.1,416.4c0.2,0.6-0.1,1-0.3,1.5c-4.5,9.1-9.5,17.9-15.7,26c-2.9,3.8-6,7.3-9.4,10.5
			c-0.7,0.6-1.3,1.2-2.2,0.5c-2.6-1.9-5.4-3.4-7.5-5.9c-9.7-11.6-19.1-23.4-25.7-37.1c-0.7-1.4-1.6-2.6-2.9-3.4
			c-0.7-0.4-1.3-0.5-2,0c-2,1.5-3.8,3.2-5.5,5c-1.3,1.4-1.1,2.6,0.1,4.2c1.2,1.7,3,2.9,4.1,4.7c2.1,3.4,4.7,6.5,7.6,9.2
			c6.8,6.4,13,13.2,18.7,20.5c3.2,4.1,6.5,8.1,10.4,11.6c3.5,3.2,3,3.7,6.8-0.1c5.4-5.5,10.3-11.4,14.6-17.8c4-6,7.7-12.1,11.6-18.2
			c0.3-0.4,0.5-0.8,0.6-1.3c0.7-2.7,2.2-4.9,3.9-7.1c0.8-1.1,1.5-2.2,2.2-3.4c0.9-1.7,1.2-3.6,1-5.6c-0.2-1.9-0.3-2-2.2-2.1
			c-3.5-0.1-7-0.4-10.5-1.1c-1.2-0.2-2.1-0.2-3.1,0.6c-1.3,1-2.9,1.7-4.5,2.1c-0.9,0.2-1.7,0.2-2.5-0.3c-2.3-1.4-4.7-1.4-7.2-0.6
			c-1.9,0.6-3.8,1.3-5.7,1.9c-1.7,0.5-3.4,1-5.2,0.4c-1.1-0.3-2.1-0.8-3.2-1.3c-1,1.9-0.9,3.9-0.6,5.9c0.5,3.4-0.1,3.8,4.1,3
			c3-0.6,5.9-1.2,9-1.1c0.8,0,1.6-0.1,2.4-0.2c3.8-0.5,7.6-1.1,11.4-1.5C807.1,415.5,809.7,415.6,812.1,416.4z M181.1,623.5
			c-2.7,2.3-5.6,4.3-7.8,7.1c-4.5,5.7-9.5,11-14.9,15.9c-6.9,6.3-13.9,12.5-20.9,18.7c-0.7,0.6-1.3,1.2-2.3,0.8
			c-0.6-0.2-1.1,0.2-1.5,0.5c-3.6,2.1-7.1,4.3-10.7,6.4c-0.5,0.3-0.9,0.6-1.3,1c-1.3,1.3-1.3,1.8,0,3.1c2,2,4.3,3.8,5.8,6.4
			c0.5,0.8,1.1,0.9,1.8,0.3c1.7-1.6,3.7-2.7,5.8-3.7c0.7-0.3,1-1,0.8-1.8c-0.4-1.2,0.3-2.2,0.9-3.1c1.1-1.6,2.5-2.9,4.2-3.8
			c2.2-1.2,4.5-2.4,6.8-3.6c2.1-1.1,4-2.4,5.5-4.2c1.3-1.6,1.4-1.3,2.9-0.4c4,2.2,8.1,4.2,12.3,5.8c5.5,2.1,11.1,3.7,16.9,4.1
			c2.1,0.1,2.2,0.1,2.4-1.9c0.8-8.1,0.8-16.1-0.8-24.1c-0.1-0.7-0.2-1.4-0.7-2c-1.3-1.6-1.3-1.6-0.1-3.3c0.7-1,1.1-2,0.4-3.1
			c-1.7-2.5-2.2-5.4-2.8-8.3C183.3,627.9,182.9,625.5,181.1,623.5z M159.6,602.9c3.7,0.1,4.1-0.2,4.7-1.9c0.7-1.9,0.2-3.3-1.5-4.6
			c-0.4-0.3-0.8-0.5-1.2-0.8c-2.4-1.5-4.9-2.7-7.5-3.8c-4.6-2-9.3-3.2-14.1-4.7c-5.7-1.8-11.6-3-16.8-6.2c-0.9-0.6-2.1-0.8-3.1-1.2
			c-0.6-0.2-1.2-0.4-1.9-0.3c-2.8,0.4-5.6-0.3-8.2-1.1c-1.8-0.6-3.5-1.1-5.3-1.6c-1.9-0.5-1.9-0.5-2.5,1.4
			c-4.5,14.1-7.3,28.4-8.3,43.2c-0.2,2.7,0.1,5.6-1.4,8.1c-0.4,0.6-0.3,1.4-0.2,2.1c0.4,2.9,3.2,5.6,6.3,6c1.7,0.2,2,0,2.3-1.8
			c0.1-0.9,0.2-1.7,0.3-2.6c0.4-4.9,0.9-9.9,1.9-14.7c1.2-5.6,2-11.3,2.5-17c0.4-3.9,1.5-7.7,3.6-11.1c1.6-2.5,2.3-2.7,5.2-2
			c2.3,0.6,4.4,1.8,6.6,2.8c0.7,0.3,1.4,0.8,2.2,0.8c2.4,0.1,4.7,0.8,7,1.6c1.8,0.7,3.6,1.4,5.5,1.6c2.4,0.2,4.7,1,6.9,1.9
			c3,1.2,5.9,2.4,8.9,3.6C154.5,601.8,157.5,602.8,159.6,602.9z M670.3,221.8c-1.4,0-2.7,0.1-4,0.4c-0.8,0.2-1.2,0.6-1.5,1.4
			c-0.9,2.1-0.2,4.1,1.8,5.1c1.1,0.5,2.2,1,3.3,1.4c6.1,2.2,12.4,3,18.7,3.8c6.4,0.8,12.9,0.9,19.1,3.3c2.5,1,5.1,1.3,7.7,0.4
			c1.1-0.4,2.2-0.4,3.3-0.3c2.8,0.3,5.6,0.5,8.3,1c2.2,0.4,2.2,0.2,2.5-1.9c0.6-4.7,1.2-9.4,1.4-14.1c0.5-11.5,0.4-23-1.1-34.5
			c-0.1-0.6-0.1-1.2,0.1-1.9c1.2-4,0-6.4-3.9-7.9c-1.3-0.5-2.5-1-4-0.5c-0.7,0.2-1.1,0.5-1.1,1.3c0.1,0.9,0.1,1.8,0.2,2.6
			c0.5,5.6,0.9,11.2,0.8,16.8c0,1.8-0.3,3.5-0.3,5.3c0.2,4.1,0.6,8.1,0.7,12.2c0.1,3.9-0.5,7.6-2.2,11.2c-0.7,1.4-1.6,1.8-3,1.8
			c-2.3,0-4.4-0.6-6.6-1.3c-1.8-0.6-3.7-1-5.6-0.8c-1.4,0.2-2.9,0-4.3-0.3c-2.7-0.5-5.5-0.9-8.3-0.7c-0.6,0-1.1,0-1.7-0.1
			c-3.6-0.6-7.1-1.3-10.6-2.1C676.8,222.5,673.6,221.8,670.3,221.8z M795.4,579.1c0.1-1.5-0.2-3-0.7-4.4c-1-2.6-2.1-5.2-3.1-7.8
			c-0.3-0.8-0.7-1.4-1.2-2c-1.9-2.3-3.8-4.5-5.1-7.4c-1.1-2.5-2.4-4.8-3.3-7.4c-0.6-1.7-1.3-3.4-2.6-4.8c-1-1.1-2-1.4-3.6-1.1
			c-7.9,1.9-15.1,5.1-21.7,9.7c-1.8,1.2-1.8,1.2-2.8-0.5c-3.8-6.4-7.1-13-11.5-19.1c-0.3-0.5-0.6-0.9-0.5-1.5c0.5-4.3-1.8-6.9-5.1-9
			c-1.9-1.2-1.7-1.3-3,0.8c-0.6,1-1.1,1.9-1.8,2.8c-0.8,1-0.8,1.8-0.3,3c4.5,11,9.7,21.6,15.9,31.6c0.2,0.3,0.4,0.7,0.7,1
			c1.3,1.7,2.3,2,4.3,1.4c3.1-1,5.9-2.5,8.5-4.4c3.3-2.3,6.6-4.5,9.9-6.8c2.5-1.7,5.8-1.4,7.9,0.9c4.8,5.2,7.8,11.3,8.8,18.3
			c0.4,3.1,1.6,5.8,3.3,8.4c0.9,1.4,2.1,2.6,3.6,3.4c1.6,0.8,2,0.7,2.8-0.9C795.2,582,795.5,580.6,795.4,579.1z M340,756
			c0.1,3.9-0.4,7.5-1.4,11c-1.7,6.2-3.5,12.3-5.2,18.4c-1.1,4.1-1.9,8.3-1.5,12.5c0.2,1.9,0,3.6-0.6,5.4c-0.4,1.2-0.9,2.4-1.3,3.6
			c-1.4,4.2-0.3,6,4.1,6.7c0.2,0,0.3,0,0.5,0.1c2.3,0.2,3-0.4,3.3-2.7c0.1-1.2,0.1-2.5,0.7-3.5c0.8-1.4,1.1-3,1.5-4.5
			c0.8-3.3,1.7-6.7,2.5-10c2.4-9.4,4.7-18.7,5.7-28.4c0.3-3.2,0.9-6.3,2.8-9.1c0.2-0.3,0.3-0.6,0.3-0.9c1-5.5,2.1-11,3.5-16.4
			c0.2-0.8,0.1-1.3-0.9-1.6c-1.7-0.5-3.3-1.1-5-1.7c-2.1-0.8-4.2-0.6-6.4-0.1c-1.5,0.3-2.4,1.2-2.7,2.7c-0.2,1.1-0.3,2.2-0.4,3.3
			c-0.1,1.2-0.1,2.4-0.6,3.5c-0.4,0.9-0.3,1.6-0.1,2.5C339.7,749.9,340.1,753.1,340,756z M111.7,658c0.8,0.1,1.5-0.6,2.3-1.2
			c6.9-5.3,13.9-10.5,21.5-14.8c3-1.7,5.9-3.9,8.7-5.9c6.8-4.8,13.1-10.2,19.4-15.6c0.7-0.6,1.4-1.1,2.5-1c2.7,0,5.1-1.2,7.2-2.9
			c1.5-1.2,1.9-2.1,0.9-3.7c-1.4-2.5-3.4-4.6-5-6.9c-1-1.5-2.1-1.3-3.3,0.1c-2.4,2.8-4.9,5.5-7.6,8c-7.4,7-15.6,13-24,18.7
			c-8,5.4-16.1,10.6-24,16.3c-1.2,0.8-2.4,1.7-3.4,2.6c-1.5,1.4-1.5,2.9-0.1,4.4C108.1,657.3,109.8,657.6,111.7,658z M132,552.1
			c1.8,0.1,3.5-0.5,5.1-1.1c2.1-0.9,2.6-1.7,2.1-3.9c-0.1-0.6-0.4-1.2-0.7-1.8c-0.8-1.5-1.7-2.9-1.8-4.6c-0.1-0.5-0.4-1-0.8-1.5
			c-1-1.3-1.6-1.3-3-0.4c-2,1.4-3.9,2.8-6,4c-9,5.5-18.5,9.7-28.3,13.4c-9.9,3.8-19.9,7.1-29.6,11.1c-1.3,0.5-2.7,1.1-4,1.7
			c-2.1,1.1-2.5,2.8-1.1,4.8c1.6,2.2,4.2,2.9,6.7,1.9c6.5-2.7,12.8-5.7,19.6-7.7c12.2-3.6,23.8-9,35.1-14.8c1.8-0.9,3.6-2.1,5.8-1.2
			C131.3,552.2,131.7,552.1,132,552.1z M460.9,781.4c-0.7-0.1-1.4-0.2-2.1-0.1c-3.1,0.5-6.3,1.1-9.4,1.6c-0.8,0.1-1,0.6-0.9,1.3
			c0.2,1.7,0.3,3.3,0.4,5c0.3,3,1.5,3.8,4.5,3.2c0.4-0.1,0.7-0.3,1.1-0.4c0.7-0.2,1.4-0.6,2.1-0.3c0.8,0.3,1.3-0.1,1.9-0.7
			c3-3.1,6.8-4.2,11-4.5c3.7-0.3,7.5-0.1,11.2-0.3c2.6-0.1,5.2-0.4,7.4-1.7c1.7-1,3.4-1.3,5.2-1.2c0.5,0,1,0,1.4-0.1
			c1.5-0.2,2.3-1,2.4-2.5c0.1-1.3-0.2-2.5-0.6-3.7c-0.3-0.9-0.9-1.2-1.9-1c-3.8,0.8-7.7,1-11.6,1.6c-5.8,0.9-11.6,1.4-17.1,3.3
			C464.2,781.4,462.6,781.6,460.9,781.4z M809.2,531.3c0.7,0,1.4-0.3,2-0.9c0.8-0.9,1.9-1.4,2.9-2.1c0.6-0.5,1-0.4,1.5,0.3
			c1.6,2.3,4.1,3.2,6.7,3.9c1.3,0.4,3.8-0.6,4.4-1.7c0.7-1.2,0.3-3-1.1-4.3c-1.6-1.5-3.3-3-4.9-4.5c-1.5-1.3-3-2.6-4.7-3.7
			c-1.4-0.9-2.9-1.2-4.6-0.7c-2.1,0.6-4.3,1.2-6.5,1.8c-1.9,0.5-2.6,1.2-2.6,3.1c0.1,3.2,1.1,6.1,4,8
			C807.2,531,808.1,531.3,809.2,531.3z"/>
		<path class="st3" d="M501.4,156.5l-8.9-4.8c3.1,0.7,9.9,2.3,12.9,3.1c15.3,4,30.1,9.1,44.5,15.5c12.9,5.7,25.2,12.4,37.1,20
			c12.7,8.1,24.7,17.1,36,27.1c6.8,6,13.3,12.2,19.5,18.8c9.9,10.5,18.9,21.6,27.1,33.5c8.8,12.8,16.6,26.2,23.3,40.2
			c9.6,20.2,16.7,41.3,21.4,63.2c1.8,8.3,3.2,16.8,4.1,25.3c0.6,5.5,1.1,11.1,1.5,16.7c0.7,9.9,0.5,19.8,0.3,29.7
			c-0.2,9.3-1.1,18.6-2.4,27.8c-1.1,8.3-2.6,16.5-4.5,24.6c-2,8.9-4.4,17.6-7.3,26.3c-4.7,14-10.5,27.6-17.4,40.8
			c-9.7,18.5-21.3,35.8-34.8,51.9c-7.7,9.2-16,17.9-24.8,26c-11.3,10.4-23.3,19.9-36.1,28.4c-1.3,0.9-2.5,1.4-4,0.8
			c-0.4-0.5-0.9-0.8-1.6-0.7l0,0c-0.4-0.9-1.1-1-2-1l0,0c-0.2-0.5-0.6-0.5-1-0.5l0,0c-0.1-0.5-0.6-0.5-1-0.5l0,0
			c-0.1-0.5-0.6-0.5-1-0.5l0,0c-0.1-0.5-0.6-0.5-1-0.5l0,0c-1.6-1.3-3.3-2.3-5.3-2.4l0.1,0c-0.2-0.5-0.6-0.5-1-0.5l0,0
			c-0.2-0.5-0.6-0.5-1-0.5l0,0c-1.2-1.2-2.7-1.8-4.4-1.9l0,0c-0.2-0.5-0.6-0.5-1-0.5l0,0c-0.9-1-2.1-1.4-3.4-1.5l0,0
			c-1.2-1.2-2.8-1.6-4.4-1.9l0.1,0c-0.6-0.9-1.5-0.9-2.4-1l0.1,0c-0.9-1.1-2.2-1.2-3.4-1.5l0.1,0c-0.2-0.5-0.6-0.4-1-0.5l0.1,0
			c-0.4-0.5-0.9-0.5-1.5-0.5l0.1,0c-0.6-0.9-1.5-0.9-2.5-1l0.1,0c-0.2-0.5-0.7-0.4-1-0.5c0,0,0.1,0,0.1,0c-0.4-0.5-1-0.4-1.5-0.5
			c0,0,0.1,0,0.1,0c-0.2-0.4-0.6-0.4-1-0.5l0.1,0c-0.4-0.5-1-0.5-1.5-0.5l0.1,0c-0.7-0.6-1.6-0.9-2.5-1l0.1,0
			c-0.4-0.5-1-0.4-1.5-0.5l0.1,0c-0.7-0.6-1.6-0.9-2.5-1c0,0,0.1,0,0.1,0c-0.4-0.5-1-0.4-1.5-0.5l0.1,0c-0.4-0.5-1-0.4-1.5-0.5
			l0.1,0c-1.2-0.9-2.6-1.1-3.9-1.5c0,0,0.1,0,0.1,0c-0.4-0.5-1-0.4-1.5-0.5c0,0,0.1,0,0.1,0c-0.4-0.5-0.9-0.4-1.4-0.5
			c0,0-0.1-0.1-0.1-0.1c0,0-0.1-0.1-0.1-0.1l0,0.1c-2.8-0.3-5.5-1.5-8.1-2.4c-5.6-2.1-11.3-3.7-16.9-5.6c-0.9-0.3-1.9-0.4-2.7-1
			c-0.3-0.5-0.8-0.5-1.4-0.4l-0.1-0.1c-0.3-0.6-0.8-0.5-1.3-0.4c0,0-0.1-0.1-0.1-0.1c-0.9-0.8-2-1.1-3.1-0.9c-0.1,0-0.2,0-0.3-0.1
			c-0.3-0.5-0.7-0.4-1.2-0.4c-0.1,0-0.2,0-0.2-0.1c-0.3-0.5-0.7-0.4-1.2-0.4c-0.1,0-0.2,0-0.2-0.1c-0.3-0.5-0.7-0.4-1.2-0.4
			c-0.1,0-0.2,0-0.2-0.1c-0.3-0.5-0.7-0.4-1.2-0.4h-0.1c0,0-0.1-0.1-0.1-0.1c-0.3-0.5-0.7-0.4-1.2-0.4c-0.1,0-0.2,0-0.2-0.1
			c-0.3-0.5-0.8-0.4-1.2-0.4c-0.1,0-0.2,0-0.2-0.1c-0.3-0.5-0.7-0.4-1.2-0.4c-0.1,0-0.2,0-0.2-0.1c-0.7-1-1.9-0.9-2.9-1.4
			c-0.3,0-0.6,0-0.9,0l0.1,0c-0.4-0.4-1-0.4-1.5-0.5c0,0,0.1,0,0.1,0c-0.4-0.5-1-0.4-1.5-0.5l0.1,0c-0.2-0.4-0.6-0.4-1-0.5l0,0
			c-0.4-0.9-1.2-0.8-1.9-0.9c-0.7,0-1.4-0.1-1.9-0.6c-0.5-0.9-1-1.8-1.6-2.7c-1.9-3-3.2-6.2-3.8-9.8c-1.2-7.8-1.5-15.7-1.1-23.6
			c0.3-5.8,0.5-11.6,1.1-17.4c0.4-4.2,0.8-8.4,1.2-12.6c0.5-5.2,1.1-10.3,1.7-15.5c0.5-4.6,0.9-9.2,1.2-13.8c0.2-3,0.8-6,0.8-9.1
			c1.2-1.2,2.6-1.6,4.3-1.7c6.6-0.4,13.2-0.4,19.8-0.5c8.7-0.2,17.4-0.2,26.1-0.5c5.4-0.2,10.9-0.1,16-2.2c3-1.3,6.2-2.1,9.4-2.8
			c0.5-0.1,1.2-0.2,1.5-0.6c1.5-1.6,3.5-2.5,5.2-3.8c0.7-0.2,1.2-0.6,1.2-1.4c0,0,0,0,0,0c0.3,0,0.5-0.2,0.5-0.5l0,0
			c1.7-0.4,1.8-1.9,2.1-3.1c1.2-4.1,2.1-8.3,2.6-12.6c0.5-4.6,0.4-9.2-1.6-13.6c-2.1-4.5-4.4-9-6.5-13.5c0.5-1.3,1.8-1.3,2.8-1.4
			c3.5-0.5,6.4-2.1,9.2-4.1c0.9-0.3,1.5-0.9,1.5-1.9c0-1.9,0.2-3.8-0.1-5.7c-0.2-1.9-0.7-3.7-2.2-5.1c-0.6-0.6-1.1-1.4-1.6-2.1
			c2-1.9,4.4-3.2,6-5.5c0.3-0.1,0.6-0.2,0.7-0.5l0,0c1.2-0.8,1.6-2.1,2-3.4c0.8-2.8,0.1-5.5-0.4-8.2c-0.6-2.9-1.3-5.7-1.7-8.6
			c2.9-2.5,5.8-4.4,10-4c3.5,0.4,7.2,0.2,10.7,0.1c2.8-0.1,5.1-1.6,7.3-3.2c0.6-0.5,1.2-1.1,1.7-1.6c0.4-0.1,0.6-0.5,0.6-0.9l0,0
			c0.3,0,0.5-0.2,0.5-0.5l0,0c0.4,0,0.5-0.2,0.5-0.5l0,0c1.9-1.4,2.6-3.4,2.3-5.7c-0.3-1.6-0.8-3.2-1.4-4.8
			c-3.1-7.3-6.2-14.5-9.3-21.8c-6.9-16.6-13.9-33.2-20.8-49.7c-0.8-2-1.6-4-1.6-6.2c0-1.8-0.3-3.5-0.5-5.2c-1-9-1.6-18.1-3.2-27.1
			c-1.3-7.2-2.3-14.5-3.5-21.7c0.3-2.1,0.3-2.1,2.3-2.1c7.8-0.1,15.6-0.6,23.4-0.7c4.8-0.1,9.5-0.7,14.1-2.1
			c2.4-0.7,4.2-1.7,5.4-3.8c1.3-1.2,2.2-2.6,2-4.4l0,0c0.6-0.1,0.8-0.5,1-1c1.7-3.7,2.2-7.5,0.5-11.3c-1.2-2.6-2.9-4.8-4.6-7
			c-2.8-3.5-6.1-6.5-9.1-9.8c-2.7-2.9-5.5-5.8-8.5-8.4c-6.1-5.4-12.9-10-19.5-14.6c-8.3-5.8-16.5-11.7-25-17.2
			c-0.7-0.5-1.5-0.9-2.2-1.4c-11.2-7.5-22.6-14.8-34-22C506.7,159.6,504.2,157.8,501.4,156.5"/>
		<path class="st3" d="M194,588.2c-2.1-3.4-4-6.4-5.9-9.4c-11.5-19.1-20.6-39.3-27.3-60.6c-4.1-13-7.3-26.3-9.5-39.8
			c-1.2-7.2-2-14.4-2.7-21.6c-1.2-13.3-1.2-26.7-0.7-40c0.3-7.6,1.1-15.3,2.1-22.9c1.1-7.8,2.4-15.6,4-23.3c0.6-2.9,0.6-2.9,3.4-2.1
			c1.5,0.4,3.1,0.8,4.7,1.1c0.7,0.1,1.5,0.3,2.1,0.1c5.4-1,10.8-0.6,16.2-0.1c6.8,0.6,13.6,1.7,20.3,3.2c3.4,0.8,6.8,1.8,10.1,3
			c3.5,1.3,6.2,3.5,8.5,6.4c4.5,5.9,7.7,12.5,10.7,19.2c4,8.9,7.5,18,10.6,27.2c0.5,1.4,0.6,2.7-0.1,4.1c-0.8,1.6-1.4,3.2-1.1,5.1
			c0,0.3,0,0.7-0.1,0.9c-1.9,4.5-2.9,9.5-5.9,13.6c-1.8,2.5-2.9,5.3-3.3,8.4c-0.4,2.9-1.5,5.6-2.5,8.2c-0.9,2.3-1.6,4.7-2.2,7.1
			c-0.7,2.8-0.7,5.5,0.1,8.3c0.6,1.8,1.1,3.7,1.9,5.4c1.4,2.7,1.4,5.7,1.7,8.6c0.1,1.1-0.3,1.7-1.5,1.9c-3.1,0.6-4.3,2.3-4.1,5.5
			c0,0.7,0.1,1.4,0.3,2.1c1.2,5.2,1.1,10.3-0.6,15.4c-1.2,3.8-2.2,7.7-2.7,11.6c-0.2,1.2-0.2,2.4-0.1,3.6c0.1,1.7-0.4,3.1-1.4,4.5
			c-0.7,0.9-1.3,1.8-2,2.7c-1.6,1.9-1.9,4-1.3,6.3c0.2,0.9,0.4,1.9,0.4,2.8c0,0.5,0.1,1.1-0.1,1.4c-1.3,1.5-1.7,3.6-3.2,4.9
			c-3.8,3.2-7.2,6.8-10.9,10.2c-3,2.8-4.6,6.1-4.2,10.3c0.1,1.3-0.3,2.3-1.1,3.3C195.9,585.8,195.1,586.9,194,588.2z"/>
		<path class="st4" d="M399.8,486.2c-1.3,0-2.2-0.9-3.2-1.5c-0.2-0.1-0.7-0.4-0.4-0.7c0.8-0.8-0.1-0.9-0.4-1.1
			c-4.5-2.9-9.1-5.7-13.6-8.6c-4.3-2.8-8.9-3.4-13.7-2.1c-10.9,2.9-18.5,9.7-22.9,20c-3.9,9.1-6.4,18.7-9.2,28.2
			c-3.4,11.9-6.7,23.8-10.6,35.6c-2.6,7.8-7.4,14.1-13.7,19.3c-1.2,1-2.4,2.1-3.6,3.2c-5.4,0-10.9-0.2-16.3,0
			c-5.7,0.3-11.3,0.9-16.8,2.2c-0.5,0.1-1.1,0.4-1.7,0.1c-0.1-0.7,0.4-1.2,0.6-1.7c3.1-6.3,5.4-13,7.7-19.6c3.5-10,7-20,10.5-30.1
			c0.4-1.3,0.9-2.6,1.6-3.7c0.8-1.2,0.6-2.6,0.5-4c-0.2-9.1,0.7-18,3.6-26.7c1.3-3.8,3.8-5.6,7.8-6c3.6-0.4,7.2-0.1,10.8-0.8
			c3.3-0.6,6.3-1.8,9-3.8c2.3-1.7,2.5-2.4,1.5-5c-0.3-0.8-0.2-1.4,0.5-1.9c0.5-0.3,1.1-0.7,1.6-1c5.8-3.3,9.3-8.3,10.8-14.8
			c1.1-4.8,1.4-9.6,0.4-14.5c-0.5-2.6-1.4-5.1-3.1-7.2c0-0.8,0.6-0.9,1.1-1.1c1.2-0.7,2.4-1.6,3.4-2.6c1.5-1.6,3.4-2.1,5.5-1.8
			c2,0.3,3.9,0.6,5.9,1.2c2.7,0.8,4.7,2.3,5.9,4.8c1,2.1,2,4.2,3,6.3c2.6,5.2,6.1,7.1,11.8,6.5c3-0.3,6-1,8.9-1.9
			c2.6-0.8,5.1-1.9,7-4c0.2-0.1,0.5-0.2,0.3-0.4c-0.2-0.2-0.4,0-0.6,0.1c-5.5,2-11.2,2.9-17.1,2.3c-3.7-0.4-6.5-2-8.5-5.1
			c-1.2-2-2.3-4-3.3-6.1c-1.6-3.2-4-5-7.5-5.8c-2-0.4-4-1-6-1.5c-3.8-1-6.4-3.3-8.2-6.8c-2.3-4.3-3.9-8.9-5.2-13.6
			c-0.2-0.7-0.3-1.4-0.5-2.1c3.2,0.2,6.4,0.3,9.6,0.5c2.5,1.6,5.2,2.5,8.1,2.8c2.7,0.3,2.2,0.4,2.8,2.7c0.8,3.2,1.4,6.4,2.5,9.5
			c0.7,2,2,3.1,4.2,3.4c2.5,0.3,4.9,0.4,7.3,1c3.6,0.9,7,0.3,10.2-1.5c0.4-0.2,1.2-0.3,1-1.1c-2.2,0-4.3,0-6.5,0
			c-1.1,0-2.2-0.2-3.3-0.5c-1.4-0.5-2.4-1.5-2.9-3c-0.9-2.8,0.5-4.4,3.4-4c2.1,0.3,4,1.2,5.7,2.4c0.9,0.7,1.9,1.2,3.1,1
			c0.9-0.1,1.8-0.3,2.2-1.2c0.4-0.9-0.3-1.5-0.8-2.1c-2.8-3.8-5.5-7.6-7.9-11.7c0.6,0,1.2,0,1.8,0.1c0.1,0.4,0.4,0.6,0.8,0.7
			c1.6,0.3,3.1,0.8,4.6,1.1c1.7,0.4,2.8,1.4,3.6,2.9c0.8,1.7,1.3,3.4,1.9,5.2c0.4,1.4,0.4,3,1.3,4.5c0.4-2.5,0.2-4.6-0.6-6.8
			c-0.4-1-0.8-2.1-1.2-3.1c-0.7-2.2-0.1-3.1,2.3-3.2c1.8-0.1,3.5-0.1,5.2,0.3c2.9,0.6,5.8,1.2,8.6,1.9c4.2,0.9,8.4,0.9,12.4-0.8
			c1.2-0.5,2.5-1.1,3.7-1.6c0.7,4.1,1.4,8.2,2.1,12.2c1.1,5.8,2.7,11.5,5,17c1.7,4,4.3,7.5,6.8,10.9c7.2,9.6,14.8,18.8,22.6,27.9
			c5,5.9,10.2,11.7,15.3,17.5c4.1,4.7,9.2,8.4,13.8,12.6c0.7,0.7,1.8,1.1,1.9,2.3c-2.5,0.3-4.9-0.6-7.3-1c-15.8-2.8-31.5-5.9-47-10
			c-7.8-2.1-15.5-4.4-23-7.5c-0.9-0.4-1.8-0.6-2.8-0.7c-0.6-0.4-1.9-0.1-1.6-1.6C402.9,486.8,400.9,486,399.8,486.2L399.8,486.2z"/>
		<path class="st4" d="M384.8,708.9c1.9,1.4,3.6,2.9,4.6,5.2c-1.1,0.3-2.2-0.1-3.3-0.3c-29.9-4.9-58.3-14.5-85.2-28.5
			c-4.6-2.4-9.1-5-13.6-7.6c-0.8-0.4-1.5-0.9-2.1-1.3c-0.2-0.5,0-0.8,0.2-1c10.2-12.3,21.1-23.8,33.8-33.5
			c15.1-11.5,32-18.5,50.8-20.8c5.6-0.7,11.3-1.2,16.9-1.7c0.9-0.1,1.9-0.2,2.9,0.1c0.3,0.8,1,0.6,1.6,0.7c2.1,0.2,4.3,0.3,6.4,0.6
			c7.2,1,14.5,2,21.7,3.1c1.5,0.2,3.1,1.1,4.7,0.3c5.5,1.1,10.7,2.8,16.1,4.3c0.1,0,0.2,0.2,0.3,0.3c-0.1,0.1-0.2,0.3-0.3,0.3
			c-5.1-0.3-10.2-0.9-15.2-1.4c-6.5-0.6-13.1-0.9-19.6-1.2c-5.7-0.2-11.3-0.1-17,0.3c-5.3,0.4-10.6,0.9-15.9,2.1
			c-4.8,1.1-9.4,2.6-13.3,5.7c-4.1,3.3-8.1,6.8-11.9,10.4c-3.1,2.9-6.3,5.7-9.3,8.6c-4.2,4.1-8.3,8.2-12.4,12.4
			c-1,1.1-0.9,1.4,0.5,2c7.8,3.4,15.6,6.9,23.5,10.3c1.7,0.8,2,0.7,3-0.8c1.5-2.1,3-4.1,4.7-6.1c6.3-7.4,13.5-13.5,22.7-17.2
			c14.8-6,30-10.9,46-12.9c1.7-0.2,3.4,0,5.1,0c-3.1,1.3-6.3,2.3-9.5,3.3c-9.4,3-18.6,6.4-27.1,11.4c-3.8,2.2-7.5,4.7-10.5,7.9
			c-3.9,4.1-7.5,8.5-10.9,13.1c-3.1,4.1-6.1,8.2-8.5,12.8c-1.2,2.2-1.1,2.3,0.9,3.6c2.4,1.5,4.9,3.1,7.4,4.5
			c3.4,1.9,6.4,4.2,8.8,7.3c0.7,1,1.4,2.2,2.9,2.3c0,1-0.9,1.8-0.8,2.9C384.3,710.2,384.2,709.3,384.8,708.9z"/>
		<path class="st4" d="M302.9,581.9c-1.3,1.9-3.5,2.7-5.3,3.9c-5.9,3.9-12.3,7.1-18.1,11.2c-6.3,4.4-12.3,9.2-17.5,14.9
			c-4,4.3-7.4,9-9.9,14.3c-0.4,1-0.9,1.9-0.3,3c2,3.6,3.9,7.4,6.9,10.3c2.3,2.3,3.6,2.4,6.3,0.7c4.9-3.1,9.3-6.8,14-10.1
			c6.7-4.9,13.5-9.6,21.1-13.2c9.4-4.5,19.3-7.6,29.5-9.6c4.9-0.9,9.8-1.6,14.7-1.5c0.6,0,1.3,0,2.1,0c-0.2,1.4-1.2,1.7-2.1,2.2
			c-3.9,2.1-8.1,3.8-12.2,5.5c-12.9,5.5-26,10.6-38.6,16.8c-2.8,1.4-5.5,2.9-8.1,4.7c-3.7,2.5-4.2,5-2.5,9.1c1.2,3,3.3,5.3,5.5,7.5
			c1.8,1.8,3.9,3.3,5.8,5c0.9,0.8,1.6,0.7,2.6,0c1.8-1.4,3.6-2.7,5.4-4c0.6-0.4,1.1-1,1.9-0.7c0,0.7-0.7,1.1-1.1,1.5
			c-6.1,6.5-11.9,13.4-17.3,20.5c0,0.1-0.1,0.1-0.1,0.2c-1.5,2-1.3,1.6-3.2,0.5c-5.9-3.7-11.6-7.6-17.3-11.7
			c-12-8.8-23.3-18.4-33.8-29c-2.3-2.3-2.4-1.6-0.7-4.8c1-1.8,2-3.6,3.1-5.4c0.8-1.4,1.5-2.8,3-3.6c0.8-0.5,1.3-1.4,1.8-2.2
			c4.4-7.5,8.7-15.1,13.1-22.6c0.5-0.8,0.6-1.6,0.7-2.5c0,0,0,0,0,0c0.3,0,0.6-0.1,0.5-0.5l0,0c0.6-0.1,1.1-0.2,1-1l0,0
			c0.6,0.4,0.8,0,1-0.5l0,0c3.8-2.2,8.2-2.8,12.1-4.7c1.6-0.8,3.2-1.3,4.7-2.3c1.5-1.1,3.3-1,5-1.3c8.2-1.5,16.5-1.5,24.8-1
			C301.7,581.5,302.3,581.7,302.9,581.9z"/>
		<path class="st4" d="M390.2,596c-0.2-2.7-1.2-5.3-1.7-7.9c-1.1-5.7-2-11.5-1.6-17.3c0.4-6.3,1.3-12.5,2.5-18.7
			c1.2-5.6,2.6-11.2,4.2-16.7c0.5-1.7,1.1-3.3,2.1-4.8c1.8-2.7,3.9-3,6.5-1.1c1.3,1,2.2,2.4,3,3.7c2.9,5,4.8,10.3,4.7,16.1
			c-0.2,6.3,1.1,12.2,2.7,18.1c2.9,10.2,6.6,20.2,10.4,30.1c0.4,1,0.9,1.9,0.8,3c-1.3-0.4-2.3-1.4-3.4-2.2
			c-10.4-7.4-20.4-15.2-30.1-23.4c-0.4-0.3-0.6-0.7-1.3-0.8c-0.4,0.5,0,1,0.1,1.4c1.3,4.5,3.9,8.4,6.7,12.1
			c3.5,4.6,7.5,8.7,11.8,12.5c0.7,0.6,1.4,1.3,2,2.1c-3.4-0.7-6.5-2-9.8-3.1C396.7,598.2,393.5,597.1,390.2,596z"/>
		<path class="st4" d="M528.5,699.9c-2.3-3.5-5.3-6.3-7.9-9.6c-1.6-1.9-3.2-3.8-4.8-5.7c-2.7-3.2-6.2-5.6-9.3-8.3
			c-4.8-4.1-10-7.8-14.4-12.3c-0.5-0.5-1.2-1-1.5-2.2c4,0.2,7.7-0.6,11.5,0.7c6,2,11.9,4.1,17.7,6.6c2.8,1.2,5.2,2.8,7.3,5.3
			c3.4,4.2,7.1,8,11,11.7c0.3,0.3,0.6,0.5,0.9,0.7c3.1,2,6.2,3.9,9.3,5.9c0,0.7-0.7,0.8-1.2,1c-5.3,2.3-10.7,4.4-16.1,6.6
			C529.9,700.8,529.3,700.4,528.5,699.9z"/>
		<path class="st4" d="M485.8,712.3c1.1-3.6,0.2-6.8-1.8-9.7c-3.5-5.1-7.4-10-11.2-15c-4.5-5.8-9-11.6-13.5-17.4
			c-1.3-1.7-1.5-3.8-1.2-5.9c0.2-1.2,1-1.5,2.1-1.1c0.9,0.4,1.7,0.9,2.4,1.6c5.9,5.7,12.3,10.9,18.5,16.3c2.4,2.1,4.7,4.3,6.6,6.9
			c1.1,1.5,1.7,3.3,2.6,4.8c2.5,4.3,5.9,7.9,8.9,11.8c1.2,1.5,2.9,2.7,5,3.1c-0.1,0.6-0.3,1-1,1.2c-5.6,1.4-11.3,2.7-17,3.8
			C486,712.8,485.8,712.6,485.8,712.3z"/>
		<path class="st4" d="M439.1,716.8c-0.6-4.2-1.9-8.2-3.1-12.3c-2.4-7.9-5-15.8-7.1-23.8c-0.8-3.1-0.9-6.1,0.6-9.1
			c1.1-2.2,2.8-2.3,4.2-0.4c0.8,1.1,1.5,2.3,2.1,3.5c4.4,8.6,8.7,17.3,13.2,25.8c2.3,4.4,4.5,8.8,7.5,12.8c0.7,0.9,1.3,1.8,2.4,2.3
			c-0.1,0.6-0.4,0.9-1.1,1c-5.5,0.4-11.1,0.9-16.7,0.9C440.4,717.6,439.5,717.8,439.1,716.8z"/>
		<path class="st4" d="M501.4,156.5c2.8,1.3,5.4,3.1,8,4.8c11.5,7.1,22.8,14.4,34,22c0.7,0.5,1.5,0.9,2.2,1.4
			c8.5,5.5,16.7,11.4,25,17.2c6.7,4.7,13.4,9.3,19.5,14.6c3,2.6,5.9,5.4,8.5,8.4c3,3.3,6.3,6.3,9.1,9.8c1.7,2.2,3.5,4.4,4.6,7
			c1.7,3.8,1.2,7.6-0.5,11.3c-0.2,0.4-0.4,0.9-1,1c-0.1-0.6,0-1.3,0.2-1.9c1.1-3.4,0.5-6.6-1.1-9.7c-1.7-3.2-4.1-5.9-6.5-8.6
			c-10.5-12.2-22.9-22.2-36.2-31.2c-4.7-3.2-9.3-6.5-14-9.6c-18-12.2-36.2-24-54.7-35.3c-0.5-0.3-2.3-1.4-2.9-1.9
			c-1-0.8-3.8-4.2-3.4-4.1C493.4,152,500.1,155.8,501.4,156.5z"/>
		<path class="st4" d="M563.9,267.1c1.2,7.2,2.2,14.5,3.5,21.7c1.6,9,2.2,18.1,3.2,27.1c0.2,1.7,0.4,3.5,0.5,5.2
			c0,2.2,0.8,4.2,1.6,6.2c7,16.6,13.9,33.2,20.8,49.7c3.1,7.3,6.2,14.6,9.3,21.8c0.7,1.6,1.2,3.2,1.4,4.8c0.4,2.3-0.3,4.2-2.3,5.7
			c1.2-3.8-0.1-7.2-1.5-10.6c-9.8-23.3-19.5-46.7-29.4-69.9c-1.4-3.4-1.8-6.8-2-10.2c-1-12.7-2.5-25.4-4.7-38
			c-0.7-3.9-1.2-7.9-1.8-11.8C562.1,267.4,562.1,267.4,563.9,267.1z"/>
		<path class="st4" d="M396.4,715.1c0-1.1,0.9-1.5,1.5-2c3-2.5,4.3-5.7,4.8-9.6c0.7-5.4,1.6-10.7,2.4-16c0.1-0.4,0.1-0.9,0.7-1.3
			c0.8,1.5,1.5,2.9,2.1,4.5c1.8,5,2.8,10.3,3.8,15.5c0.7,3.6,1.4,7.2,2.5,10.7c-2.2,0.4-4.4-0.2-6.6-0.4c-3.4-0.2-6.8-0.7-10.2-1
			C397.1,715.5,396.7,715.4,396.4,715.1z"/>
		<path class="st4" d="M473.8,523.4c0.1,3-0.6,6-0.8,9.1c-0.3,4.6-0.7,9.2-1.2,13.8c-0.5,5.2-1.1,10.3-1.7,15.5
			c-0.4,4.2-0.8,8.4-1.2,12.6c-0.5,5.8-0.7,11.6-1.1,17.4c-0.5,7.9-0.2,15.8,1.1,23.6c0.5,3.5,1.9,6.7,3.8,9.8
			c0.5,0.9,1,1.8,1.6,2.7c-1.2,0.1-1.6-0.9-2.1-1.7c-3.1-4.5-4.5-9.7-5-15.1c-1-10.5-0.4-20.9,0.3-31.4c0.8-10.7,2.2-21.3,3.1-32
			c0.6-7,1.2-14,1.9-21C472.5,525.5,472.2,524,473.8,523.4z"/>
		<path class="st4" d="M560.3,687.4c-3.7-3.8-7.5-7.6-10.9-11.6c0.2-0.5,0.5-0.4,0.8-0.3c5.7,2.3,11.4,4.5,17.1,6.8
			c0.4,0.2,0.9,0.3,1.1,0.9C565.8,684.9,563.2,686.3,560.3,687.4z"/>
		<path class="st4" d="M554.3,466.5c2.2,4.5,4.4,9,6.5,13.5c2.1,4.3,2.1,9,1.6,13.6c-0.5,4.3-1.4,8.5-2.6,12.6
			c-0.3,1.2-0.5,2.7-2.1,3.1c1.3-5.1,2.6-10.2,3.2-15.4c0.5-5.1,0-10-2.4-14.6c-1.8-3.5-3.4-7.2-5.2-10.8
			C552.7,467.2,553,466.7,554.3,466.5z"/>
		<path class="st4" d="M570.6,420c0.4,2.9,1.1,5.7,1.7,8.6c0.5,2.7,1.2,5.4,0.4,8.2c-0.4,1.3-0.8,2.6-2,3.4
			c1.1-4.7,0.5-9.2-0.8-13.8c-0.4-1.2-0.3-2.5-0.7-3.7C568.7,421.1,569.3,420.4,570.6,420z"/>
		<path class="st4" d="M564,446.2c0.5,0.7,1,1.5,1.6,2.1c1.5,1.4,2,3.3,2.2,5.1c0.2,1.9,0.1,3.8,0.1,5.7c0,1-0.6,1.6-1.5,1.9
			c0.1-1.9-0.1-3.8,0-5.7c0-1.9-0.5-3.9-1.8-5.5c-0.3-0.4-0.7-0.9-1-1.3C562.6,447.3,562.6,447.3,564,446.2z"/>
		<path class="st4" d="M247.7,591.3c0.5-1.8,2-2.7,3.6-3.3c1.4,0.1,2.6,0.8,3.9,1.1c0.1,0.9-1.4,0.9-0.8,1.9l0,0
			c-0.7-0.5-0.9-0.1-1,0.5l0,0c-0.6,0-1.1,0.2-1,1l0,0c-0.5-0.1-0.7,0-0.5,0.5c0,0,0,0,0,0C250.3,593.1,248.9,592.4,247.7,591.3z"/>
		<path class="st4" d="M233.3,612.5c-0.2-0.9,0.3-1.5,0.7-2.2c1.7-2.9,3.5-5.8,5.3-8.7c0.3-0.4,0.5-1,1.1-1.1
			c0.3,0.6,0.1,1.2-0.1,1.8c-0.9,3-2.2,5.8-4.2,8.2C235.3,611.3,234.6,612.3,233.3,612.5z"/>
		<path class="st4" d="M263,581.6c0.1-0.3,0.1-0.6,0.3-0.8c1.6-1.8,3.3-3.5,4.9-5.3c0.3,2.5-0.7,4.4-2.8,5.8
			C264.7,581.8,263.9,582,263,581.6z"/>
		<path class="st4" d="M576,665.3c2.1,0.2,3.8,1.2,5.3,2.4C579.4,667.2,577.7,666.2,576,665.3z"/>
		<path class="st4" d="M611,253.9c0.2,1.9-0.7,3.2-2,4.4C609.2,256.6,609.9,255.2,611,253.9z"/>
		<path class="st4" d="M569.7,662.4c1.7,0.1,3.1,0.8,4.4,1.9C572.5,663.9,571.1,663.3,569.7,662.4z"/>
		<path class="st2" d="M300.5,398.8c1.1,0.5,2.5,0.6,3.5,1.4c-0.2,0.2-0.4,0.4-0.7,0.6C302.2,400.3,301.4,399.5,300.5,398.8
			L300.5,398.8z"/>
		<path class="st4" d="M561.1,658.6c1.6,0.3,3.2,0.7,4.4,1.9C563.9,660,562.4,659.5,561.1,658.6z"/>
		<path class="st4" d="M565.4,660.5c1.3,0.1,2.5,0.4,3.4,1.5C567.6,661.7,566.5,661.2,565.4,660.5z"/>
		<path class="st2" d="M279.8,477.2c-0.6,0.6-1.4,0.8-2.3,1.3c0.5-1,1.1-1.4,1.8-1.7C279.5,477,279.7,477.1,279.8,477.2z"/>
		<path class="st4" d="M532.8,647.5c1.4,0.3,2.8,0.6,3.9,1.5C535.3,648.7,534,648.2,532.8,647.5z"/>
		<path class="st4" d="M555.3,656.2c1.2,0.3,2.5,0.4,3.4,1.5C557.5,657.3,556.4,656.9,555.3,656.2z"/>
		<path class="st4" d="M560.3,269.8c-0.2-0.8-0.3-1.6-0.6-2.7C560.9,268.1,560.5,269,560.3,269.8z"/>
		<path class="st5" d="M482.8,630.8c1,0.5,2.2,0.4,2.9,1.4c-1-0.1-1.9-0.4-2.7-0.9C482.9,631,482.8,630.9,482.8,630.8z"/>
		<path class="st5" d="M496,635.6c1.2-0.1,2.2,0.2,3.1,0.9C498,636.5,497,636.1,496,635.6z"/>
		<path class="st4" d="M550.5,654.2c0.9,0.1,1.9,0.1,2.5,1C552.1,655.1,551.3,654.8,550.5,654.2z"/>
		<path class="st4" d="M476.1,628.4c0.8,0.1,1.6,0,1.9,0.9C477.2,629.5,476.8,628.8,476.1,628.4z"/>
		<path class="st4" d="M558.7,657.6c0.9,0.1,1.9,0.1,2.4,1C560.2,658.5,559.4,658.1,558.7,657.6z"/>
		<path class="st4" d="M543.3,651.4c0.9,0.1,1.8,0.4,2.5,1C544.9,652.2,544,652,543.3,651.4z"/>
		<path class="st4" d="M539.5,649.9c0.9,0.1,1.8,0.4,2.5,1C541,650.8,540.2,650.5,539.5,649.9z"/>
		<path class="st4" d="M557.3,509.7c0,0.8-0.5,1.2-1.2,1.4C556.5,510.7,556.9,510.2,557.3,509.7z"/>
		<path class="st4" d="M585.1,669.6c0.8,0,1.6,0.1,2,1C586.3,670.5,585.6,670.1,585.1,669.6z"/>
		<path class="st4" d="M587,670.6c0.7-0.1,1.2,0.1,1.6,0.7C587.9,671.3,587.4,671,587,670.6z"/>
		<path class="st5" d="M491.7,634.1c0.5,0,0.9-0.1,1.2,0.4C492.4,634.6,492,634.5,491.7,634.1z"/>
		<path class="st5" d="M493.1,634.6c0.5,0,0.9-0.1,1.2,0.4C493.9,635,493.4,635,493.1,634.6z"/>
		<path class="st5" d="M494.6,635.1c0.5,0,0.9-0.1,1.2,0.4C495.3,635.5,494.9,635.5,494.6,635.1z"/>
		<path class="st4" d="M541.9,650.9c0.5,0.1,1.1,0,1.5,0.5C542.8,651.4,542.3,651.3,541.9,650.9z"/>
		<path class="st5" d="M499.3,636.5c0.5,0,1-0.2,1.3,0.4C500.1,637,499.6,637,499.3,636.5z"/>
		<path class="st4" d="M480.4,630.2c0.5,0.1,1.1,0.1,1.5,0.5C481.4,630.7,480.8,630.7,480.4,630.2z"/>
		<path class="st4" d="M548.1,653.3c0.5,0.1,1.1,0,1.5,0.5C549.1,653.8,548.5,653.7,548.1,653.3z"/>
		<path class="st4" d="M530,646.6c0.5,0.1,1.1,0,1.4,0.5C530.9,647,530.4,647,530,646.6z"/>
		<path class="st4" d="M531.3,647c0.5,0.1,1.1,0.1,1.5,0.5C532.3,647.5,531.7,647.5,531.3,647z"/>
		<path class="st5" d="M500.7,637c0.5-0.1,1-0.1,1.4,0.4C501.6,637.5,501.1,637.5,500.7,637z"/>
		<path class="st4" d="M545.7,652.3c0.5,0.1,1.1,0,1.5,0.5C546.7,652.8,546.1,652.8,545.7,652.3z"/>
		<path class="st4" d="M536.6,648.9c0.5,0.1,1.1,0,1.5,0.5C537.6,649.4,537,649.3,536.6,648.9z"/>
		<path class="st4" d="M538,649.4c0.5,0.1,1.1,0.1,1.5,0.5C539,649.9,538.4,649.9,538,649.4z"/>
		<path class="st4" d="M479,629.7c0.5,0.2,1.1,0,1.5,0.5C480,630.2,479.4,630.2,479,629.7z"/>
		<path class="st4" d="M552.9,655.2c0.6,0,1.1,0,1.5,0.5C553.9,655.7,553.3,655.7,552.9,655.2z"/>
		<path class="st5" d="M487.3,632.7c0.5,0,0.9-0.1,1.2,0.4C488.1,633.1,487.7,633.1,487.3,632.7z"/>
		<path class="st5" d="M488.8,633.2c0.5,0,0.9-0.1,1.2,0.4C489.5,633.6,489.1,633.6,488.8,633.2z"/>
		<path class="st5" d="M485.9,632.2c0.5,0,0.9-0.1,1.2,0.4C486.7,632.6,486.2,632.6,485.9,632.2z"/>
		<path class="st5" d="M490.2,633.6c0.5,0,0.9-0.1,1.2,0.4C491,634.1,490.5,634.1,490.2,633.6z"/>
		<path class="st4" d="M549.6,653.8c0.4,0.1,0.8,0,1,0.5C550.2,654.2,549.8,654.2,549.6,653.8z"/>
		<path class="st4" d="M554.4,655.7c0.4,0.1,0.8,0,1,0.5C555,656.1,554.6,656.2,554.4,655.7z"/>
		<path class="st4" d="M568.8,661.9c0.4,0,0.9,0,1,0.5C569.4,662.4,569,662.3,568.8,661.9z"/>
		<path class="st4" d="M574.1,664.3c0.4,0,0.9,0,1,0.5C574.7,664.8,574.3,664.7,574.1,664.3z"/>
		<path class="st4" d="M575,664.8c0.4,0,0.8,0,1,0.5C575.6,665.3,575.3,665.1,575,664.8z"/>
		<path class="st4" d="M478.1,629.3c0.4,0.1,0.8,0.2,1,0.5C478.7,629.7,478.2,629.8,478.1,629.3z"/>
		<path class="st4" d="M582.2,668.2c0.4,0,0.9,0,1,0.5C582.8,668.6,582.4,668.6,582.2,668.2z"/>
		<path class="st4" d="M583.2,668.6c0.4,0,0.9,0,1,0.5C583.8,669.1,583.4,669,583.2,668.6z"/>
		<path class="st4" d="M584.1,669.1c0.4,0,0.9,0,1,0.5C584.7,669.6,584.4,669.5,584.1,669.1z"/>
		<path class="st4" d="M601,410.4c0,0.4-0.2,0.7-0.6,0.9C600.6,411,600.8,410.7,601,410.4z"/>
		<path class="st4" d="M482.8,630.8c0.1,0.1,0.1,0.3,0.2,0.4c-0.4-0.1-0.8-0.1-1.1-0.5C482.2,630.7,482.5,630.8,482.8,630.8z"/>
		<path class="st4" d="M581.3,667.7c0.4,0,0.9,0,1,0.5C581.8,668.2,581.5,668.1,581.3,667.7z"/>
		<path class="st4" d="M547.2,652.8c0.4,0.1,0.8,0.1,1,0.5C547.8,653.2,547.4,653.3,547.2,652.8z"/>
		<path class="st4" d="M557.8,509.2c0,0.4-0.1,0.5-0.5,0.5C557.3,509.5,557.4,509.3,557.8,509.2z"/>
		<path class="st4" d="M442.2,629.1c-0.3,0.2-0.5,0.1-0.7-0.2C441.8,628.8,442.1,628.9,442.2,629.1z"/>
		<path class="st4" d="M601.4,409.9c0,0.3-0.2,0.5-0.5,0.5C601,410.1,601.1,409.9,601.4,409.9z"/>
		<path class="st4" d="M601.9,409.4c0,0.3-0.1,0.5-0.5,0.5C601.4,409.6,601.5,409.3,601.9,409.4z"/>
		<polygon class="st4" points="529.7,646.5 529.8,646.5 529.8,646.5 		"/>
		<path class="st4" d="M570.7,440.1c-0.1,0.4-0.4,0.5-0.7,0.5C570.2,440.4,570.3,440,570.7,440.1z"/>
		<path class="st5" d="M621.5,691.3c1,2-0.1,3.1-1.6,4.1c-1.6,1-3.3,2-5,2.8c-3.1,1.6-6,3.3-8.5,5.8c-1.3,1.3-2.9,2.3-4.4,3.3
			c-1.1,0.7-1.4,1.6-1.2,2.8c0.3,2.1,1.2,4,2.4,5.7c1.6,2.3,3.6,4.2,5.5,6.3c2.2,2.5,3.9,5.2,4.6,8.6c0.4,1.8,1.4,3.4,2.5,4.9
			c1.4,2,3,3.7,4.6,5.5c3.1,3.3,5.6,6.8,7,11.3c0.8,2.6,2.5,5,3.8,7.5c1.2,2.3,2.2,4.8,2.6,7.4c0.2,1.1,0.2,2-1,2.7
			c-0.9,0.5-1.5,1.4-2.4,2c-1.8,1.4-2.6,1.3-4-0.5c-2.2-2.9-4.1-6.1-5.9-9.3c-2.8-4.9-5.6-9.9-9.1-14.4c-1.3-1.6-2-3.6-2.9-5.5
			c-1.7-3.5-3.4-7-5.4-10.4c-2.3-3.9-5-7.4-8.7-10.1c-0.7-0.5-1.1-1.1-1.3-1.9c-0.2-0.8-0.6-1.7-0.8-2.5c-0.8-2.5-0.8-2.5-3.4-1.6
			c-3.1,1.1-5.8,3-8.5,4.9c-1.7,1.2-3.1,2.8-5.4,2.7c-0.6,0-1.1,0.4-1.4,0.9c-0.8,1.5-2.4,1.9-3.8,2.7c-1.1,0.7-1.9,0.3-2.7-0.7
			c-1.5-2-2-4.3-2.4-6.7c-0.1-1.1,0.7-1.3,1.4-1.6c4.8-2.7,9.6-5.4,14.4-8.1c3.8-2.2,7.5-4.7,11.7-6.1c5.5-1.9,10-5.3,14.4-8.9
			c2.5-2,4.9-4.1,7.8-5.6c1.5-0.8,2.9-2,4.9-1.4c0.7,0.2,0.8-0.3,1-0.7c0.7-1.5,1.4-3,2.2-4.5c1.2-2.3,3.2-2.6,5-0.9
			c1.8,1.7,3,3.9,4.9,5.5c0.5,0.5,0.6,1.3,0.6,2c0.1,1.1,0.5,1.9,1.4,2.7c4.9,4.4,9.9,8.9,14.7,13.4c1,0.9,1.6,0.7,2.3-0.2
			c1.8-2,3.2-4.2,4.4-6.5c1.9-3.5,3.9-6.9,6.4-10.1c1.6-2,3-4.2,4.3-6.3c1.4-2.3,1.3-3.3-0.4-5.4c-1.3-1.6-2.5-3.3-4-4.8
			c-2.1-2-4.5-3.4-7.5-3.1c-0.8,0.1-1.2-0.3-1.6-0.8c-1.5-2-3-4.2-4.8-6c-0.6-0.6-0.5-1.1-0.1-1.7c1.6-2.5,3.9-4.2,6.2-6
			c0.5-0.3,0.9-0.2,1.3,0.1c1.5,1.2,2.9,2.5,4.3,3.8c0.4,0.4,0.6,1.1,0.7,1.7c0.4,2.1,1.7,3.7,3.3,5.1c6,5.6,11.2,11.8,16.7,17.9
			c5.9,6.5,12.3,12.6,19.3,17.9c2.5,1.9,4.7,4,7.3,5.8c0.3,0.2,0.5,0.4,0.7,0.7c1.5,1.6,1.5,2-0.3,3.3c-1.4,1-2.6,2.1-4.2,2.7
			c-2.2,0.8-2.9,0.7-4.3-1.2c-5.4-7.1-11.9-13.1-18.5-19c-2-1.8-4.1-3.6-6.1-5.5c-0.9-0.9-1.5-0.7-2.3,0.1c-1.8,2-3.3,4.1-4.6,6.4
			c-3.3,6.1-5.7,12.7-9.1,18.8c-0.6,1-0.3,1.8,0.4,2.6c2.4,3.2,5,6.2,7.8,9.1c3.2,3.3,6.4,6.5,9.5,9.8c3.2,3.4,3.2,4.4-0.3,7.5
			c-2.6,2.3-4.6,2.3-7.1-0.2c-0.7-0.7-1.3-1.4-1.8-2.3c-6.5-11-14.8-20.4-23.9-29.2c-6.8-6.6-14-12.7-21-18.9
			c-0.2-0.2-0.4-0.2-0.6-0.3c-0.2-0.2-0.3-0.3-0.5,0C621.3,691,621.4,691.2,621.5,691.3z"/>
		<path class="st5" d="M280.7,793.5c-2.8,0.2-5.7-0.3-8.7-0.6c-1.2-0.1-2.3-0.6-3.4-1.1c-6-2.9-10.3-7.4-13.7-13
			c-3.3-5.5-5.4-11.4-6.5-17.7c-0.6-3.3-0.1-6.7,0.3-10c0.5-4.7,1.8-9.2,3.7-13.6c2.9-6.4,7.3-11.2,14-13.7c2.3-0.9,4.6-1.8,6.9-2.8
			c4.7-2.3,9.8-2.6,14.7-3.9c1.8-0.5,3.6-0.9,5.4-0.9c2.7-0.1,4.9,0.8,6.4,3.1c0.7,1,1.5,1.5,2.7,1.8c2,0.4,4,1,6,1.5
			c1.1,0.3,2,0.8,2.8,1.7c1.6,1.8,3.3,3.5,4.9,5.3c2.4,2.5,4.3,5.3,5.5,8.6c0.5,1.3,1.4,2.1,2.3,3c1.3,1.2,2,2.5,1.1,4.4
			c-0.7,1.5-0.3,3.3,0,5c0.1,0.8,0.1,1.6-0.4,2.3c-2.5,3.4-3.5,7.3-4.6,11.2c-0.8,3.1-1.6,6.2-2.8,9.2c-1.9,4.7-5,8.3-9.9,10.2
			c-2.8,1.1-5.3,2.7-7.5,4.7c-3.2,3.2-7.3,4.1-11.5,4.9C286,793.4,283.5,793.5,280.7,793.5z M257.7,756.8c0,0.3,0,0.6,0,1
			c0.4,9.4,3.8,17.1,11.5,22.9c3.1,2.4,6.4,3.3,10.3,2.9c5.8-0.6,11.5-1.9,17.2-3.2c0.8-0.2,1.4-0.6,2.1-1.2
			c6.1-4.9,10.6-11,13.7-18.2c2.5-6,3.3-12.1,2-18.5c-0.3-1.5-0.8-2.8-2.1-3.6c-1.1-0.6-1.8-1.6-2.4-2.6c-0.9-1.4-1.8-2.9-2.7-4.2
			c-1.7-2.4-3.7-4.4-6.5-5.5c-1.4-0.6-2.9-1.4-4.4,0c-0.2,0.2-0.8,0.1-1.2,0.2c-4.1,0.6-8.2,1.2-12.3,2c-1.4,0.2-2.9,0.2-4.2,0.9
			c-4,2.3-8,4.5-11.2,7.7c-0.6,0.6-1.3,1.1-2.2,1.5c-1.9,0.8-3.4,2.2-4.2,4.1C259.2,747.4,257.5,751.9,257.7,756.8z"/>
		<path class="st5" d="M754.1,595.4c-0.4-1.6-1.4-2.6-2.6-3.1c-4.5-2.1-8.1-5.3-12.3-7.8c-0.9-0.5-1.8-1.1-2.8-1.4
			c-0.9-0.3-1.9-0.7-2.8-0.4c-2.3,0.8-3.5-0.5-4.8-2c-1.2-1.5-2.5-2.9-3.7-4.4c-1.1-1.2-2.3-2.3-3.7-3c-1-0.5-2-1-3.2-0.7
			c-2.1,0.7-3.6-0.8-5.3-1.6c-0.5-0.2-0.6-0.7-0.4-1.2c0.6-2.5,1.8-4.8,3.2-6.9c0.5-0.7,1-0.6,1.7-0.4c4.7,1.8,9.5,3.4,12.8,7.6
			c0.5,0.6,1.1,1,1.7,1.3c13,6.3,25.1,14,37.1,22.1c4,2.7,8.1,5.1,12.5,7.4c-0.6,1-1.6,1.2-2.5,1.4c-1.5,0.5-3.1,0.7-4.7,0.6
			c-6.6-0.5-13,0.7-19.5,2.1c-5.4,1.2-10.8,2.4-16.3,2.7c-0.6,0-1.1,0.2-1.5,0.6c-2.4,1.9-5.1,2.7-8.1,2.3c-2.4-0.3-4.3,0.8-6.4,1.7
			c-0.9,0.4-0.9,1.1-0.1,1.7c0.4,0.3,0.8,0.5,1.2,0.7c11.4,6.1,22.8,12.2,34.2,18.4c0.8,0.4,1.5,0.5,2.5,0.3
			c3.2-0.7,5.7,1.7,5.4,4.9c-0.2,2.2-1.3,4.1-2.1,6.1c-0.4,1-1.4,1-2.3,0.6c-1.1-0.6-2.1-1.1-3.1-1.8c-2.1-1.3-4.2-2.6-6.4-3.8
			c-1.4-0.9-2.9-1.8-4.6-2.1c-2.9-0.6-5.2-2.3-7.5-4c-6.1-4.6-13-7.9-19.9-11.1c-7.2-3.3-14.3-6.7-21-11c-2.6-1.7-2.6-1.7-1-4.4
			c0.7-1.2,1.5-2.3,2.7-3c0.9-0.6,1.8-0.9,2.9-0.6c3.1,0.9,6.3,0.8,9.2-0.4c4.8-1.9,9.8-2.6,14.9-2.7c5-0.1,9.9-1.5,14.9-2.4
			C746.3,596.9,750,596.2,754.1,595.4z"/>
		<path class="st5" d="M742.6,400.3c0.7-6.4,1.4-13.2,3.4-19.9c1.6-5.3,4-10.3,8.1-14.2c0.9-0.9,2-1.6,3-2.4
			c1.4-1.2,2.7-1.2,4.3-0.2c2.5,1.7,4.9,3.7,7,5.8c2.3,2.4,4.6,4.9,6.9,7.3c1.5,1.6,2.7,1.6,4.2,0.1c1.8-1.9,3.5-3.9,5.1-6
			c7-9.2,12.9-19.3,18.6-29.3c0.5-0.9,0.6-2.5,2.4-2.3c1.5,0.2,2.4,1,3.3,2.4c2,2.9,1.8,5.1-0.5,7.8c-2.3,2.6-3.4,6-5.1,9
			c-1,1.8-2.1,3.4-3.7,4.7c-0.7,0.5-1.4,1.2-1.6,2.1c-0.4,2.7-2.3,4.5-4,6.4c-2,2.3-4.1,4.5-6.1,6.8c-2.2,2.6-3.5,5.6-3.5,9
			c0,1.6,0.1,1.7,1.6,1.5c4.4-0.6,8.8-1.6,13.2-2.6c5.6-1.2,11.2-2.5,16.9-3.5c0.3-0.1,0.6-0.1,0.9-0.1c2-0.2,2.3-0.2,3.2,1.7
			c1,2,1.6,4.2,1.6,6.5c0,2-1.2,3.2-3.2,3.2c-1.6,0-3.1,0.6-4.7,0.8c-2.1,0.4-4,0.2-5.6-1.4c-0.7-0.7-1.5-0.8-2.4-0.5
			c-2.2,0.6-4.3,1.4-6.3,2.2c-2,0.8-4,1.6-6,2.3c-2.9,0.9-5.8,1.2-8.7,0.2c-0.8-0.3-1.5-0.4-2.3,0.1c-4.2,2.6-9,3.1-13.8,3.6
			c-5,0.5-10,1.1-14.7,3c-2.2,0.9-4.7,1.1-7,1.2C743.9,405.7,742.4,404,742.6,400.3z M756.5,394.2c2.9,0,5-0.4,7.1-0.9
			c3.6-0.8,7.3-1.8,11-2.1c2-0.2,2.1-0.3,0.9-2.1c-2.7-4.2-5.6-8.4-8.3-12.6c-1-1.5-2.1-2.7-3.5-3.8c-3.5-2.8-3.9-2.8-6.6,1
			c-0.6,0.8-1.1,1.6-1.5,2.4c-2.6,5.1-3.5,10.6-4,16.1c-0.1,1,0.4,1.4,1.3,1.6C754.3,394.2,755.7,394.1,756.5,394.2z"/>
		<path class="st5" d="M390.1,779.6c2.7,3,5.6,5.6,8.2,8.7c3.1,3.7,5.9,7.6,7.9,12c0.7,1.6,0.5,2.6-0.6,3.9
			c-2.5,3.1-5.5,5.8-8.8,8.1c-3.5,2.5-7,5.1-10.5,7.6c-1.7,1.2-3.7,1.9-5.6,2.7c-1.1,0.5-2.3,0.1-3.1-0.7
			c-4.4-4.1-9.3-7.6-13.2-12.2c-2-2.3-3.5-4.8-4.4-7.6c-0.6-1.8-0.3-3.5,0.6-5c0.9-1.6,2.2-3,3.6-4.1c3.8-3,7.5-6.2,10.7-9.9
			c1.2-1.4,2.7-2.4,4.5-3.4c-1.8-2-3.8-3.3-5.6-4.9c-2-1.7-4.2-3.3-5.8-5.3c-1.6-1.9-2.7-4-2.4-6.6c0.1-1.1,0.4-2,1.2-2.8
			c3.9-4.1,7.7-8.3,12.3-11.7c2.4-1.8,4.9-3.3,7.7-4.4c1.2-0.5,2.4-0.6,3.7-0.3c2.4,0.6,4.5,1.8,6.1,3.6c1,1.2,2,2.5,3,3.8
			c1.4,2,2.9,4,4.6,5.8c1.5,1.7,2.8,3.5,3.5,5.7c0.3,0.8,0.5,1.5-0.3,2.2c-4.6,3.9-8.3,8.7-12.8,12.7c-0.7,0.6-1.5,1.2-2.3,1.8
			c-0.6,0.5-1.3,0.6-2,0.4c-0.1-0.2-0.3-0.3-0.5-0.1C389.7,779.4,390,779.5,390.1,779.6z M395.7,802.8c0-1-0.4-1.9-0.9-2.7
			c-0.8-1.2-1.6-2.4-2.3-3.6c-0.5-0.8-1.1-1.3-2-1.6c-1.5-0.3-2.5-1.4-3.3-2.6c-0.7-1-1.3-2-2-3c-1.2-1.7-1.5-1.9-3.2-0.7
			c-2.7,1.9-5.4,3.7-8,5.7c-1.9,1.4-3.6,3.1-5.1,5c-0.5,0.6-1,1.3-0.3,2.1c3.4,3.9,6.7,7.9,10.9,11c0.8,0.6,1.4,0.8,2.4,0.3
			c1-0.5,2.1-0.6,3.3-0.7c0.9-0.1,1.7-0.3,2.4-1c2.5-2.3,5-4.5,7.4-6.8C395.3,804,395.8,803.5,395.7,802.8z M389.3,750.7
			c-0.6-0.1-1.4,0.3-2.2,0.7c-1.6,0.8-3.1,1.9-4.5,3.2c-2.5,2.4-4.2,5.4-6.3,8.1c-0.6,0.8-0.3,1.5,0.1,2.2c1.9,3.8,4.8,6.7,8.1,9.3
			c1,0.8,1.7,0.5,2.4-0.3c1.9-2,4-3.9,5.9-6c1.7-1.8,3.3-3.7,4.6-5.8c0.4-0.6,0.9-1.1,0.5-1.9c-1.3-2.3-2.4-4.7-3.8-6.9
			C393.2,751.7,391.6,750.7,389.3,750.7z"/>
		<path class="st5" d="M770.4,262.9c0.1-1.5-0.4-2.7-1-3.9c-0.7-1.4-1.4-2.7-2.2-4c-0.5-0.9-1.1-1.8-1.4-2.8
			c-1.6-6.1-5.2-11.3-7.5-17.1c-1-2.4-1.1-2.4,1-3.8c1.1-0.7,2.2-1.3,3.3-2c0.9-0.6,1.4-0.3,1.9,0.5c1.6,2.8,3.2,5.6,4.8,8.3
			c5.2,8.6,10.4,17.3,15.6,25.9c0.2,0.3,0.3,0.5,0.5,0.8c1,1.7,1,1.7-0.5,2.8c-5.3,4-11,7.4-16.9,10.4c-8.1,4.2-16.3,8.2-24.3,12.4
			c-5.6,2.9-10.9,6.3-15.8,10.4c-0.8,0.6-1.6,1.1-2.5,1.4c-1.9,0.6-3.8,1.2-5.7,1.7c-1.6,0.5-2.1,0.3-3-1.1c-3-5.3-6.8-10-9.8-15.3
			c-2.9-5.3-6.1-10.5-9.2-15.8c-1.4-2.4-1.1-3.3,1.6-4.1c0.9-0.3,1.8-1.4,2.8-0.7c0.7,0.5,1.1,1.6,1.6,2.4c2.8,4.8,5.6,9.5,8.3,14.3
			c0.4,0.6,0.6,1.3,1.4,1.6c1.7,0.6,2.8,2,3.9,3.5c0.8,1.2,1.7,2.3,2.8,3.3c0.8,0.7,1.4,0.8,2.3,0.2c5.5-3.6,11.2-6.9,17.1-9.6
			c0.9-0.4,1.1-0.9,0.7-1.8c-1.3-2.6-2.9-5-5-7c-3.1-3-6.3-5.9-9.4-8.9c-0.7-0.7-1.5-1.5-2.1-2.3c-1.1-1.4-1-2.5,0.3-3.5
			c1-0.8,2.2-1.3,3.3-1.9c0.8-0.4,1.4,0.2,1.9,0.6c2.9,1.9,5.4,4.3,7.6,6.9c2.8,3.3,5.7,6.5,8.7,9.6c1.8,1.8,3.4,2,5.6,1
			c1.5-0.7,2.9-1.7,4.2-2.7c1.1-0.9,2.2-1.8,3.4-2.7c1.9-1.5,3.9-2.4,6.3-2.6c1.2-0.1,2.4-0.3,3.4-1
			C769.7,265.4,770.5,264.4,770.4,262.9z"/>
		<path class="st5" d="M711.4,637.3c-0.2,1.7-0.7,3.4-1.2,5.1c-1.5,4.4-3.9,8.4-5.7,12.7c-0.8,1.9-1.6,3.8-2.3,5.8
			c-0.4,1-0.2,1.8,0.4,2.7c1.2,1.6,2.8,2.8,4.6,3.8c1.7,0.9,3.4,1.8,5.1,2.7c2,1.1,3.6,2.6,4.6,4.7c0.2,0.4,0.4,0.7,0.6,1
			c2.1,2.9,4.6,3.2,7.3,0.8c1.5-1.3,2.6-3,3.9-4.6c1.4-1.8,2.8-3.7,4.9-4.9c0.6-0.3,0.9-0.9,1.3-1.4c2.8-3.6,5.9-6.9,9-10.3
			c1.3-1.5,1.5-1.5,3.2-0.5c1.1,0.7,2.1,1.4,3.1,2.2c1.4,1.1,1.4,1.1,0.3,2.6c-4.1,5.7-8.3,11.4-12.4,17.1
			c-3.6,4.9-7.1,9.9-10.6,14.9c-1.8,2.6-1.4,2.5-4.2,0.8c-6.7-3.9-12.8-8.7-18.8-13.7c-6.9-5.8-13.7-11.8-21-17.2
			c-3.9-2.9-8-5.6-12.3-7.8c-0.9-0.5-1.7-1.1-2.4-1.9c-1.2-1.5-2.5-2.9-3.7-4.4c-1.2-1.4-1.3-1.8-0.3-3.1c3.7-5,6.7-10.5,10.5-15.4
			c3.7-4.9,7.3-9.9,11-14.8c1.1-1.5,2.2-1.6,3.6-0.2c0.3,0.3,0.6,0.7,0.9,1.1c1.6,1.7,1.6,1.7,0.2,3.7c-3.3,4.5-6.6,9-10,13.5
			c-0.7,0.9-1.2,1.8-1.2,3c0,1.5-0.8,2.7-1.5,4c-0.7,1.2-1.4,2.5-1.9,3.8c-0.4,1.1-0.2,1.7,0.8,2.4c4.5,3,8.9,6.3,13.1,9.7
			c0.5,0.4,1,0.8,1.5,1.2c2.2,1.9,2.2,1.9,3.9-0.5c2.2-3,3.7-6.4,4.9-9.8c1.2-3.5,2.3-7.1,3.9-10.6c1.2-2.5,2.4-2.8,4.6-1.2
			c0.6,0.4,1.1,0.9,1.7,1.3C711.2,636,711.5,636.5,711.4,637.3z"/>
		<path class="st5" d="M760.7,332.4c-0.5-2.9-1.7-5.3-3.2-7.6c-1.7-2.7-3.7-5.2-5.8-7.7c-1.7-2.1-3.4-4.3-4.8-6.6
			c-0.9-1.5-0.6-2.5,0.9-3.4c1-0.6,2.2-0.9,3.3-1.3c0.7-0.3,1.2,0.2,1.7,0.6c1.4,1.1,2.5,2.4,3.6,3.8c2.2,2.7,3.8,5.7,5.7,8.6
			c1.7,2.6,3.4,5.2,5.3,7.7c0.9,1.1,1.8,1.4,3.1,1.1c2.3-0.4,4.3-1.3,6.2-2.4c1.5-0.9,3.1-1.8,4.6-2.5c1.7-0.9,3.6-1.2,5.6-1.1
			c5.1,0.3,7-2,5.7-6.9c-0.3-1.3-0.9-2.6-1.3-3.9c-0.9-2.5-1.8-5-1.8-7.7c0-0.6-0.3-1.2-0.5-1.8c-1.4-4.2-2.6-8.4-3.7-12.6
			c-0.6-2.1-0.5-2.2,1.4-3.2c1.1-0.6,2.3-1,3.5-1.5c1.5-0.6,1.6-0.6,2.2,1.1c1.9,4.9,3.8,9.8,5.8,14.7c3.1,7.6,6.2,15.2,9.3,22.9
			c0.7,1.7,0.7,1.7-0.9,2.5c-7.9,4.2-16.4,7.1-24.9,9.8c-8.6,2.7-17.3,5.2-25.7,8.7c-3.5,1.5-7,3-10.4,5c-1.3,0.7-2.5,1.3-4,1.4
			c-1.8,0.2-3.6,0.5-5.5,0.8c-1.3,0.2-2.2-0.2-2.6-1.5c-2.2-5.7-5.2-11.1-7.3-16.9c-2.1-5.7-4.4-11.3-6.6-17c-0.9-2.4-0.5-3.1,2-3.6
			c0.3-0.1,0.6-0.1,0.9-0.2c2.3-0.5,2.3-0.5,3.2,1.8c2,5.2,4,10.4,6,15.7c0.4,1.1,0.8,2,1.9,2.6c1.2,0.7,1.8,2,2.4,3.2
			c0.6,1.2,1.3,2.4,2,3.5c1.1,1.6,1.4,1.6,3.2,0.9c4.9-2.1,9.8-4,14.8-5.6C757.8,333.3,759.2,332.9,760.7,332.4z"/>
		<path class="st5" d="M635.9,190c3.6,3.2,7.1,6.3,10.6,9.4c1,0.9,2.1,1.8,3,2.7c1.2,1.2,2.5,2.1,4.3,2.3c1.5,0.2,2.6,1.2,3.7,2
			c4.2,3.1,4.2,3.1,7.6-0.9c3.5-4.2,7.2-8.1,11.1-11.9c1.2-1.2,1.2-1.2,0-2.4c-3.3-3.4-7.5-5.4-11.7-7.3c-3-1.3-6-2.6-8.8-4.3
			c-2.2-1.3-2.4-2.5-0.8-4.4c2.2-2.7,2.5-2.8,5.9-1.6c3,1,5.7,2.5,8.4,4.1c3.7,2.2,7.4,4.4,11.3,6.3c1.5,0.7,2.5,0.5,3.7-0.4
			c1.8-1.3,3.1-3,4.3-4.8c0.9-1.3,1.7-2.7,2.6-4c1.3-1.8,2.9-3.2,5-4c0.2-0.1,0.4-0.2,0.7-0.3c3.6-1.9,4.2-4.6,1.7-7.8
			c-1.1-1.5-2.6-2.6-3.9-3.9c-1.7-1.6-3.4-3.2-4.4-5.3c-0.6-1.1-1.6-1.8-2.5-2.6c-2.9-2.8-5.6-5.9-8.4-8.8c-0.9-1-1.1-1.8-0.2-2.9
			c0.2-0.2,0.3-0.4,0.4-0.6c3.1-4.3,3.2-4.2,7-0.8c8.9,8,18.1,15.8,27.2,23.6c3.1,2.7,3,1.8,0.6,5.2c-4.1,5.7-8.9,10.9-13.9,15.9
			c-4.6,4.6-9.3,9.3-13.9,13.9c-5.7,5.7-10.9,11.7-15.3,18.4c-0.5,0.8-1.1,1.4-1.8,1.9c-1.6,1.1-3.2,2.3-4.9,3.5
			c-1.4,0.9-2,1-3.2-0.1c-4.6-4-9.7-7.5-14.2-11.7c-4.5-4.1-9.1-8.1-13.6-12.1c-1.8-1.6-1.8-2.6,0-4
			C634.1,191.5,635,190.8,635.9,190z"/>
		<path class="st5" d="M558.6,782.8c0,3.3,0,6.6,0,9.8c0,0.9,0,1.7,0.5,2.5c1.6,2.3,1.3,5,1.4,7.7c0,0.6-0.4,1-0.9,1.3
			c-2.5,1.5-5.1,2.5-7.9,3.4c-1,0.3-1.3-0.3-1.5-1c-1.2-3.1-1.2-6.4-0.9-9.7c0.4-3.7,1-7.5,1.1-11.2c0.1-2.9-0.2-5.7-0.4-8.6
			c-0.7-9.2-1.2-18.3-0.4-27.5c0.4-4.9,0.2-9.9-0.1-14.9c-0.2-2.7,0-5.4-0.7-8.1c-0.4-1.6,0.1-3.3,1.6-4.2c1.5-1,3.1-0.4,4.5,0.5
			c0.8,0.5,1.5,1.2,2.1,1.9c0.5,0.7,1.1,1.4,1.5,2.2c1.7,2.8,3.8,5.3,6.4,7.4c1.8,1.4,3.4,3.2,5,4.9c2.6,2.7,5.3,5.3,8.6,7.2
			c0.8,0.5,1.3,1.2,1.9,1.8c8.5,9.7,17.6,19,26.6,28.3c1,1,1.9,1.9,2.6,3.1c1,1.9,0.6,4.1-0.9,5.2c-1.6,1.2-4,1-5.5-0.6
			c-3.4-3.5-6.6-7.1-10-10.7c-4.4-4.8-8.8-9.5-13.2-14.3c-1.4-1.5-2.4-1.7-4.3-0.9c-0.5,0.2-1.1,0.4-1.5,0.8
			c-2.8,2.3-6.1,3.5-9.3,4.9c-0.7,0.3-1.5,0.7-2.2,1c-2.5,1.1-3.8,2.6-3.8,5.6C558.9,774.7,558.8,778.8,558.6,782.8z M572.8,753.1
			c-4.3-6.1-12.1-12.3-15.7-12.6c0.1,5.8,1.9,11.5,0.9,17.9C563.1,755.8,568.4,755.8,572.8,753.1z"/>
		<path class="st5" d="M243.2,686c3.1,0,5,1.3,6.3,3.5c1.1,1.8,1.4,3.9,1.5,6c0.1,3.8,0.2,7.5,1.4,11.1c0.4,1.3-0.2,2.5-0.3,3.8
			c-0.2,2.5-0.6,5.1-1.4,7.5c-1,2.9-2.9,4.7-6,5.3c-0.6,0.1-1.2,0.2-1.8,0.5c-7.7,4.2-16,7.2-24.2,10.3c-4.4,1.6-8.8,3.4-13.1,5.4
			c-1.9,0.9-2,1.4-0.6,3c1.8,2,4,3.7,6.5,4.9c3,1.5,6.1,2.8,9.1,4.3c2.8,1.4,5.4,3.1,7.4,5.6c1.4,1.8,1.4,1.8,0.1,3.7
			c-1.1,1.6-2.2,3.1-3.3,4.7c-0.5,0.8-1,1-1.9,0.5c-2.3-1.3-4.6-2.6-6.9-3.9c-1.6-0.9-3-2-4-3.4c-1.4-2.1-3.4-3.5-5.5-4.9
			c-3.9-2.6-8.2-4.6-12.3-6.9c-0.8-0.4-1.6-0.8-2.3-1.2c-2.9-1.5-2.8-1.5-1.7-4.5c1.2-3.2,3.2-5.5,6.5-6.8
			c11.8-4.8,23.8-9.4,35.6-14.3c4.5-1.8,8.1-5.1,11.1-8.9c1.6-2.1,2-4.5,1-7c-0.7-1.8-1.1-3.7-1.4-5.6c-0.1-0.5-0.3-1.1-0.5-1.6
			c-0.7-1.9-1.1-2.2-3.2-1.8c-5.7,1.1-11.4,2.5-16.9,4.3c-1.9,0.6-3.9,1-5.9,0.9c-1.9,0-2.6-0.8-2.5-2.7c0.1-2.3,0.9-4.4,1.9-6.4
			c0.4-0.7,1.1-0.9,1.8-1.1c3-0.8,6.1-1,9.2-1.3c3.5-0.3,7-0.7,10.3-2C239.1,686.1,241.4,686.5,243.2,686z"/>
		<path class="st5" d="M812.1,416.4c-2.4-0.7-4.9-0.9-7.5-0.6c-3.8,0.4-7.6,1-11.4,1.5c-0.8,0.1-1.6,0.3-2.4,0.2c-3.1,0-6,0.5-9,1.1
			c-4.3,0.9-3.7,0.4-4.1-3c-0.3-1.9-0.4-4,0.6-5.9c1.1,0.4,2.1,0.9,3.2,1.3c1.8,0.5,3.5,0.1,5.2-0.4c1.9-0.6,3.8-1.3,5.7-1.9
			c2.5-0.7,4.9-0.8,7.2,0.6c0.8,0.5,1.7,0.5,2.5,0.3c1.6-0.5,3.2-1.1,4.5-2.1c1-0.8,1.9-0.8,3.1-0.6c3.4,0.7,6.9,1.1,10.5,1.1
			c1.8,0,2,0.2,2.2,2.1c0.2,2-0.1,3.8-1,5.6c-0.6,1.2-1.4,2.3-2.2,3.4c-1.6,2.2-3.1,4.4-3.9,7.1c-0.1,0.5-0.4,0.9-0.6,1.3
			c-3.8,6.1-7.6,12.2-11.6,18.2c-4.3,6.4-9.2,12.3-14.6,17.8c-3.8,3.8-3.2,3.3-6.8,0.1c-3.9-3.5-7.2-7.5-10.4-11.6
			c-5.7-7.3-11.9-14.2-18.7-20.5c-2.9-2.7-5.5-5.8-7.6-9.2c-1.1-1.8-2.9-3-4.1-4.7c-1.2-1.6-1.4-2.8-0.1-4.2c1.7-1.8,3.5-3.5,5.5-5
			c0.7-0.5,1.3-0.4,2,0c1.4,0.8,2.3,2,2.9,3.4c6.7,13.7,16,25.5,25.7,37.1c2.1,2.5,4.9,4.1,7.5,5.9c1,0.7,1.6,0.1,2.2-0.5
			c3.4-3.2,6.6-6.8,9.4-10.5c6.2-8.1,11.2-16.9,15.7-26C812,417.4,812.3,417,812.1,416.4z"/>
		<path class="st5" d="M181.1,623.5c1.8,2,2.2,4.4,2.7,6.7c0.6,2.9,1.1,5.8,2.8,8.3c0.8,1.1,0.3,2.1-0.4,3.1
			c-1.2,1.7-1.2,1.7,0.1,3.3c0.5,0.6,0.6,1.3,0.7,2c1.6,8,1.6,16,0.8,24.1c-0.2,2-0.3,2-2.4,1.9c-5.9-0.4-11.5-1.9-16.9-4.1
			c-4.2-1.7-8.4-3.6-12.3-5.8c-1.5-0.8-1.7-1.2-2.9,0.4c-1.4,1.9-3.4,3.1-5.5,4.2c-2.3,1.2-4.5,2.4-6.8,3.6
			c-1.7,0.9-3.1,2.2-4.2,3.8c-0.6,0.9-1.3,1.8-0.9,3.1c0.2,0.8-0.1,1.4-0.8,1.8c-2.1,1-4.1,2.1-5.8,3.7c-0.6,0.6-1.3,0.5-1.8-0.3
			c-1.5-2.5-3.8-4.3-5.8-6.4c-1.3-1.3-1.3-1.8,0-3.1c0.4-0.4,0.9-0.7,1.3-1c3.6-2.1,7.1-4.3,10.7-6.4c0.5-0.3,0.9-0.7,1.5-0.5
			c1,0.4,1.6-0.2,2.3-0.8c7-6.2,14-12.4,20.9-18.7c5.4-4.9,10.4-10.2,14.9-15.9C175.5,627.8,178.4,625.8,181.1,623.5z M160.5,655.8
			c0.3,0.8,1,1.1,1.6,1.6c1.6,1.2,3.3,2.2,5.1,3.1c3.4,1.8,7,3.1,10.7,4.1c2.7,0.7,2.7,0.7,2.7-2c0-3,0-5.9,0-8.9
			c0-3.8-0.3-7.5-1-11.2c-0.2-0.8-0.4-1.5-0.8-2.2c-0.9-1.3-1-1.3-2.2-0.3c-2.3,1.8-4,4.1-5.8,6.3
			C167.7,650,164.9,653.7,160.5,655.8z"/>
		<path class="st5" d="M159.6,602.9c-2.1-0.1-5.1-1.1-8.1-2.3c-3-1.2-5.9-2.5-8.9-3.6c-2.2-0.9-4.5-1.7-6.9-1.9
			c-1.9-0.2-3.7-0.9-5.5-1.6c-2.3-0.8-4.5-1.5-7-1.6c-0.8,0-1.5-0.5-2.2-0.8c-2.2-1-4.2-2.2-6.6-2.8c-2.9-0.8-3.6-0.5-5.2,2
			c-2.1,3.4-3.2,7.1-3.6,11.1c-0.6,5.7-1.3,11.4-2.5,17c-1,4.8-1.5,9.8-1.9,14.7c-0.1,0.9-0.2,1.7-0.3,2.6c-0.3,1.8-0.5,2-2.3,1.8
			c-3-0.3-5.8-3-6.3-6c-0.1-0.7-0.2-1.5,0.2-2.1c1.5-2.5,1.2-5.4,1.4-8.1c1.1-14.7,3.9-29.1,8.3-43.2c0.6-1.9,0.7-1.9,2.5-1.4
			c1.8,0.5,3.5,1,5.3,1.6c2.7,0.8,5.4,1.5,8.2,1.1c0.7-0.1,1.3,0.1,1.9,0.3c1,0.4,2.2,0.6,3.1,1.2c5.2,3.2,11.1,4.4,16.8,6.2
			c4.7,1.5,9.5,2.7,14.1,4.7c2.6,1.1,5.1,2.3,7.5,3.8c0.4,0.3,0.8,0.5,1.2,0.8c1.7,1.3,2.2,2.7,1.5,4.6
			C163.7,602.7,163.3,603,159.6,602.9z"/>
		<path class="st5" d="M670.3,221.8c3.3,0.1,6.5,0.8,9.7,1.6c3.5,0.9,7,1.6,10.6,2.1c0.5,0.1,1.1,0.1,1.7,0.1
			c2.8-0.2,5.6,0.2,8.3,0.7c1.4,0.3,2.9,0.5,4.3,0.3c2-0.2,3.8,0.2,5.6,0.8c2.1,0.7,4.3,1.3,6.6,1.3c1.4,0,2.4-0.4,3-1.8
			c1.7-3.5,2.3-7.3,2.2-11.2c-0.1-4.1-0.5-8.1-0.7-12.2c-0.1-1.7,0.2-3.5,0.3-5.3c0.1-5.6-0.3-11.2-0.8-16.8
			c-0.1-0.9-0.1-1.8-0.2-2.6c-0.1-0.8,0.4-1.1,1.1-1.3c1.4-0.4,2.7,0.1,4,0.5c3.9,1.5,5.1,3.9,3.9,7.9c-0.2,0.6-0.2,1.2-0.1,1.9
			c1.6,11.4,1.7,23,1.1,34.5c-0.2,4.7-0.8,9.4-1.4,14.1c-0.3,2.2-0.3,2.3-2.5,1.9c-2.8-0.5-5.5-0.7-8.3-1c-1.1-0.1-2.3-0.1-3.3,0.3
			c-2.7,0.9-5.3,0.5-7.7-0.4c-6.1-2.4-12.7-2.4-19.1-3.3c-6.3-0.8-12.7-1.6-18.7-3.8c-1.1-0.4-2.3-0.8-3.3-1.4c-2-1-2.6-3-1.8-5.1
			c0.3-0.7,0.7-1.2,1.5-1.4C667.5,221.8,668.9,221.8,670.3,221.8z"/>
		<path class="st5" d="M795.4,579.1c0.1,1.5-0.2,2.9-0.8,4.2c-0.7,1.6-1.1,1.7-2.8,0.9c-1.5-0.8-2.7-2-3.6-3.4
			c-1.7-2.6-2.9-5.3-3.3-8.4c-1-7-4-13.1-8.8-18.3c-2.1-2.3-5.4-2.6-7.9-0.9c-3.3,2.3-6.6,4.6-9.9,6.8c-2.6,1.8-5.4,3.4-8.5,4.4
			c-2.1,0.7-3,0.3-4.3-1.4c-0.2-0.3-0.5-0.7-0.7-1c-6.2-10.1-11.4-20.7-15.9-31.6c-0.5-1.2-0.5-2.1,0.3-3c0.7-0.9,1.3-1.8,1.8-2.8
			c1.3-2.1,1.1-2,3-0.8c3.3,2,5.6,4.7,5.1,9c-0.1,0.6,0.2,1.1,0.5,1.5c4.3,6.1,7.7,12.7,11.5,19.1c1,1.7,1,1.7,2.8,0.5
			c6.6-4.6,13.9-7.8,21.7-9.7c1.6-0.4,2.6,0,3.6,1.1c1.3,1.4,2,3,2.6,4.8c0.9,2.6,2.2,4.9,3.3,7.4c1.3,2.9,3.2,5.1,5.1,7.4
			c0.5,0.6,0.9,1.3,1.2,2c1,2.6,2.1,5.2,3.1,7.8C795.2,576.1,795.5,577.6,795.4,579.1z"/>
		<path class="st5" d="M340,756c0.1-2.9-0.2-6.1-1.2-9.1c-0.3-0.9-0.3-1.7,0.1-2.5c0.5-1.1,0.5-2.3,0.6-3.5c0.1-1.1,0.2-2.2,0.4-3.3
			c0.3-1.5,1.2-2.4,2.7-2.7c2.1-0.5,4.3-0.6,6.4,0.1c1.6,0.6,3.3,1.3,5,1.7c1,0.3,1.1,0.8,0.9,1.6c-1.3,5.4-2.5,10.9-3.5,16.4
			c-0.1,0.3-0.2,0.6-0.3,0.9c-1.8,2.7-2.4,5.9-2.8,9.1c-1,9.6-3.3,19-5.7,28.4c-0.8,3.3-1.7,6.7-2.5,10c-0.4,1.5-0.7,3.1-1.5,4.5
			c-0.6,1-0.5,2.3-0.7,3.5c-0.3,2.3-1,2.9-3.3,2.7c-0.2,0-0.3,0-0.5-0.1c-4.3-0.7-5.4-2.5-4.1-6.7c0.4-1.2,0.8-2.4,1.3-3.6
			c0.6-1.7,0.8-3.5,0.6-5.4c-0.4-4.2,0.5-8.4,1.5-12.5c1.7-6.2,3.5-12.3,5.2-18.4C339.5,763.5,340,759.9,340,756z"/>
		<path class="st5" d="M111.7,658c-1.9-0.3-3.6-0.6-4.8-1.9c-1.4-1.5-1.4-3,0.1-4.4c1.1-1,2.2-1.8,3.4-2.6c7.8-5.7,16-10.9,24-16.3
			c8.4-5.7,16.6-11.7,24-18.7c2.7-2.5,5.2-5.2,7.6-8c1.2-1.4,2.3-1.6,3.3-0.1c1.6,2.4,3.6,4.5,5,6.9c0.9,1.6,0.6,2.5-0.9,3.7
			c-2.1,1.7-4.5,2.9-7.2,2.9c-1.1,0-1.8,0.4-2.5,1c-6.3,5.4-12.7,10.7-19.4,15.6c-2.9,2-5.7,4.2-8.7,5.9
			c-7.6,4.4-14.6,9.5-21.5,14.8C113.2,657.3,112.5,658.1,111.7,658z"/>
		<path class="st5" d="M132,552.1c-0.3,0-0.7,0-1-0.1c-2.2-0.9-4,0.3-5.8,1.2c-11.3,5.8-22.9,11.2-35.1,14.8
			c-6.8,2-13.1,5.1-19.6,7.7c-2.5,1-5.1,0.3-6.7-1.9c-1.4-1.9-1-3.7,1.1-4.8c1.3-0.7,2.6-1.2,4-1.7c9.8-4,19.8-7.3,29.6-11.1
			c9.8-3.7,19.4-7.9,28.3-13.4c2-1.3,4-2.6,6-4c1.4-0.9,2-0.9,3,0.4c0.3,0.4,0.7,1,0.8,1.5c0.2,1.7,1,3.2,1.8,4.6
			c0.3,0.6,0.6,1.2,0.7,1.8c0.5,2.2,0,3.1-2.1,3.9C135.5,551.6,133.8,552.2,132,552.1z"/>
		<path class="st5" d="M460.9,781.4c1.7,0.2,3.4-0.1,5-0.6c5.6-1.9,11.4-2.4,17.1-3.3c3.9-0.6,7.8-0.7,11.6-1.6c1-0.2,1.6,0.2,1.9,1
			c0.4,1.2,0.7,2.5,0.6,3.7c-0.1,1.5-0.8,2.3-2.4,2.5c-0.5,0.1-1,0.1-1.4,0.1c-1.9-0.1-3.5,0.2-5.2,1.2c-2.2,1.3-4.8,1.6-7.4,1.7
			c-3.7,0.2-7.5,0-11.2,0.3c-4.2,0.3-8,1.5-11,4.5c-0.5,0.5-1.1,1-1.9,0.7c-0.7-0.3-1.4,0.2-2.1,0.3c-0.4,0.1-0.7,0.3-1.1,0.4
			c-3,0.6-4.1-0.2-4.5-3.2c-0.2-1.7-0.3-3.3-0.4-5c-0.1-0.7,0.1-1.2,0.9-1.3c3.1-0.5,6.3-1,9.4-1.6
			C459.5,781.3,460.2,781.4,460.9,781.4z"/>
		<path class="st5" d="M809.2,531.3c-1.1,0-2-0.3-2.8-0.8c-2.9-1.9-3.9-4.7-4-8c-0.1-2,0.6-2.6,2.6-3.1c2.2-0.6,4.3-1.1,6.5-1.8
			c1.6-0.5,3.1-0.3,4.6,0.7c1.7,1.1,3.2,2.3,4.7,3.7c1.7,1.5,3.3,3,4.9,4.5c1.4,1.3,1.8,3,1.1,4.3c-0.6,1.1-3.1,2.1-4.4,1.7
			c-2.6-0.7-5-1.7-6.7-3.9c-0.5-0.7-0.9-0.8-1.5-0.3c-0.9,0.7-2.1,1.2-2.9,2.1C810.6,531,809.9,531.3,809.2,531.3z"/>
		<path class="st4" d="M92.6,114.3c0,3.6,0.1,7.2,0,10.8c-0.1,6.6,0.3,13.3,0.7,19.9c0.5,8,1.2,16,2.2,24c1.3,10.8,3,21.5,5.4,32
			c2.6,11.4,6.1,22.5,11.6,32.9c4.2,7.9,9.8,14.5,16.8,20.1c9.5,7.5,20.2,12.9,31.4,17.1c9.7,3.7,19.8,6.3,30,8.1
			c5.7,1,11.5,1.8,17.3,2.2c3.8,0.3,7.7,0.2,11.5,0.3c2.1,0.1,4.1-0.3,6.2-0.6c2.5-0.4,4.8-1.5,7-3c5.9-4.1,12.1-7.8,18.3-11.4
			c8.6-5.1,17.2-10.1,25.9-15.1c0.7-0.4,1.4-0.9,2.5-1.1c0,1.1-0.8,1.5-1.3,2c-4.9,5-9.8,9.9-14.7,14.8c-6,6.1-11.9,12.3-18,18.3
			c-7.5,7.4-15,14.9-22.6,22.1c-7.4,7-14.7,14.2-22.8,20.5c-6.6,5.1-13.9,8.2-22.3,9.1c-11,1.2-20.9-1.9-30.2-7.3
			c-9.4-5.4-18-12.1-26.4-19c-6.1-5-11.7-10.4-17-16.2c-10.7-11.6-19.3-24.7-25.5-39.2c-4.2-9.8-7.1-20-8.7-30.5
			c-1.5-9.4-2-18.9-1.4-28.4c0.8-13.7,3.2-27.2,7-40.4c3.7-12.5,8.3-24.7,13.9-36.4C90.2,118,90.9,115.9,92.6,114.3z"/>
		<path class="st1" d="M356.6,261.3c3.8,1.8,7.8,2.8,11.8,3.6c10.8,2.2,21.7,2.7,32.7,2.2c21.3-1,42.2-4.9,62.9-9.6
			c13.8-3.1,27.6-6.1,41.2-9.8c12.4-3.4,24.6-7.3,36.4-12.5c3.2-1.4,6.4-3,9.3-5c4-2.9,4.3-4.5,1.3-8.4c-3.7-4.6-8.2-8.3-12.7-12.1
			c-11.5-9.5-23.7-18-35.6-26.9c-9.3-7-19.4-12.7-29.5-18.3c-9-5-18.1-9.9-27.1-14.8c-1.7-1-3.4-2.1-5.1-3.2
			c-0.7-0.5-1.6-0.9-1.7-1.9c0.5-0.7,1.1-0.5,1.8-0.4c2.4,0.2,4.7,1,6.9,1.9c8.2,3.5,15.8,8,23.4,12.6
			c25.6,15.5,50.2,32.5,74.6,49.7c5,3.6,10,7.2,14.9,10.9c7.4,5.6,13.3,12.5,17.3,20.8c0.5,0.9,0.8,1.9,1.3,2.9
			c-0.7,0.5-1.4,0.3-2.1,0.3c-6,0.1-12,0.3-18,0.4c-9.7,0.2-19,2-28.2,5c-6,1.9-11.9,4.2-17.9,6c-9,2.7-18.2,4.3-27.3,6.1
			c-13.1,2.5-26.1,5.5-39,8.9c-12.7,3.3-25.5,5.8-38.5,7.5c-4,0.5-8,0.7-12,1c-4.7,0.3-9.2-0.8-13.6-2.5c-7.9-3-15.4-6.9-22.9-11
			c-1.6-0.9-3.2-1.8-4.8-2.6C356.4,261.8,356.4,261.5,356.6,261.3z"/>
		<path class="st4" d="M253.2,414.7c-0.4-2.6-0.8-5-1.2-7.4c-1-6.1-2.5-12.2-4.6-18.1c-0.7-2.1-2.1-3.9-3.6-5.6
			c-3.8-4.1-8.2-7.6-12.7-10.9c-8.5-6.1-17.5-11.4-26.7-16.5c-1.5-0.8-3-1.7-4.5-2.6c0-0.8,0.6-1,1-1.3c8.6-5.6,17.4-10.7,27.1-14.3
			c3.8-1.4,7.8-2.4,11.9-2.5c4.5-0.2,8.2,1.7,10.7,5.6c3.3,4.9,5.8,10.3,8,15.8c4.9,12,8.5,24.4,12,36.8c0.5,1.7,0.2,2.9-1.1,4.2
			c-4.8,4.9-9.4,10-14.1,15C254.8,413.7,254.3,414.4,253.2,414.7z"/>
		<path class="st4" d="M356.6,261.3c-0.2,0.3-0.2,0.6-0.1,0.9c-0.9-0.2-1.7-0.7-2.4-1.3c0.1-0.1,0.2-0.3,0.3-0.4
			C355.2,260.5,356,260.7,356.6,261.3z"/>
		<path class="st4" d="M352.6,259.6c0,0.2-0.1,0.3-0.3,0.2c-0.1,0-0.1-0.1-0.2-0.1c-0.2-0.2-0.1-0.3,0.1-0.3
			C352.4,259.4,352.5,259.5,352.6,259.6z"/>
		<path class="st4" d="M354.1,260.8c-0.3-0.1-0.7-0.3-0.6-0.5c0.2-0.4,0.6-0.2,0.9,0.1C354.3,260.5,354.2,260.7,354.1,260.8z"/>
		<path class="st4" d="M557.8,326.4c1,1.1,1.3,2.6,1.8,3.9c4.8,13.3,8.9,26.8,13.2,40.2c1.6,5.2,3.3,10.3,5,15.5
			c0.2,0.6,0.4,1.2,0.6,1.8c0.4,1.5,0.1,1.9-1.5,1.8c-4.7,0-3.8,0.6-5-3.9c-2.9-10.8-5.8-21.6-9.3-32.2c-0.9-2.8-2-5.5-3.1-8.3
			c-0.9-2.5-2.6-4.3-4.8-5.8c-4.7-3.1-9.7-5.6-15.1-7.1c-1.8-0.5-3.6-0.2-5.7-0.5c2.6-3.3,5.6-5.8,9-7.9c3.5-0.2,6.9,0.8,10.3,1.6
			C554.7,326,556.2,326.6,557.8,326.4z"/>
		<path class="st1" d="M372.3,406.7c2.3,4.1,5.1,7.9,7.9,11.7c0.5,0.6,1.2,1.2,0.8,2.1c-0.4,0.9-1.3,1.1-2.2,1.2
			c-1.2,0.2-2.2-0.3-3.1-1c-1.7-1.2-3.6-2.1-5.7-2.4c-2.9-0.5-4.3,1.2-3.4,4c0.5,1.5,1.5,2.4,2.9,3c1.1,0.4,2.2,0.5,3.3,0.5
			c2.2,0,4.3,0,6.5,0c0.2,0.8-0.6,0.9-1,1.1c-3.2,1.7-6.6,2.3-10.2,1.5c-2.4-0.6-4.9-0.7-7.3-1c-2.2-0.3-3.5-1.4-4.2-3.4
			c-1.1-3.1-1.6-6.3-2.5-9.5c-0.6-2.3-0.1-2.4-2.8-2.7c-2.9-0.3-5.6-1.2-8.1-2.8c1.2-1,2.7-0.9,4.1-0.9c5.7-0.2,11.4-0.3,17-0.5
			c2.4-0.1,4.8-0.1,7.1-0.7c0.2,0.1,0.5,0.1,0.6-0.2L372.3,406.7z"/>
		<path class="st1" d="M557.8,326.4c-1.6,0.2-3.1-0.4-4.7-0.8c-3.4-0.8-6.8-1.8-10.3-1.6c-4.1-0.3-7.8,0.4-11.4,2.6
			c-5,3.2-10.3,6.1-15.4,9.1c-1,0.6-2.1,1.2-3,2c-0.1,0-0.2,0-0.2,0c-5.2,3-10.4,6-15.5,9c-0.6,0.4-0.9,0.8-1,1.5
			c0,1.7-0.2,3.3,0.3,5c0.8,2.4,1.5,2.8,3.9,2.1c2.5-0.7,4.8-1.8,7.1-2.9c4.1-2,8.1-4,12.2-6c-0.1,0.7-0.8,0.9-1.3,1.2
			c-7.4,4.5-14.7,8.9-22.1,13.4c-1.1,0.7-2,0.7-3.1,0.4c-2.1-0.7-4.1-1.3-5.9-2.5c-2.5-1.6-3-3.3-2-6.1c0.8-2.3,2.2-3.9,4.3-5.2
			c6.5-4,13.3-7.6,20.1-11.1c5.2-2.7,10.6-5.2,15.7-8.1c5-2.8,10.2-5.3,15.4-7.7c3.2-1.5,6.5-2,10-1.2c2.7,0.7,4.8,2.2,6.2,4.5
			C557.6,324.8,558,325.5,557.8,326.4z"/>
		<path class="st1" d="M506.7,360.8c2.1-2.5,4.7-4,7.3-5.2c5.3-2.6,10.3-5.8,15.4-8.8c2.2-1.3,4.4-2.6,6.8-3.5
			c0.9-0.4,2.1-1.2,2.8-0.4c0.7,0.8-0.3,1.8-0.8,2.5c-1.3,2.2-2.6,4.4-4.9,5.8c-0.7,0.4-0.5,1.1-0.5,1.7c0.1,2.1-0.1,4.2-0.5,6.2
			c-0.8,4.5-3,6.4-7.5,6.4C518.4,365.4,512.6,363.3,506.7,360.8z"/>
		<path class="st1" d="M242.6,484.5c0.8-0.9,1.7-0.8,2.4-1.1c1.4-0.5,2.8-0.8,4.1-1.3c3.9-1.4,6.8-3.8,8.2-7.8
			c1.5-4.1,3.1-8.2,4.7-12.3c0.5-1.3,1.1-2.5,1.7-3.7c0.7-1.3,1.9-1.7,3.2-1.4c2.2,0.5,4.2,1.6,6.1,2.8c0.6,0.4,0.6,0.9,0.6,1.4
			c-0.2,4.9-1.7,9.4-5.4,12.7c-3.6,3.2-7.3,6.2-11.5,8.7c-3.4,2-7,3.2-11,2.7C244.9,485.2,243.9,484.9,242.6,484.5z"/>
		<path class="st1" d="M416.9,407.8c-1.2,0.5-2.5,1-3.7,1.6c-4.1,1.8-8.2,1.8-12.4,0.8c-2.9-0.6-5.8-1.2-8.6-1.9
			c-1.7-0.4-3.5-0.4-5.2-0.3c-2.4,0.1-3,1-2.3,3.2c0.3,1.1,0.8,2.1,1.2,3.1c0.8,2.1,1,4.3,0.6,6.8c-0.9-1.5-0.8-3-1.3-4.5
			c-0.5-1.8-1-3.5-1.9-5.2c-0.8-1.5-1.9-2.5-3.6-2.9c-1.6-0.3-3.1-0.8-4.6-1.1c-0.5-0.1-0.7-0.3-0.8-0.7c4.3-0.2,8-2.1,11.5-4.3
			c2.4-1.5,5-2.1,7.7-1.2c1.1,0.3,2.2,0.5,3.2,0.8c4.6,1.1,9.1,2.3,13.8,2.6c3,0.2,6-0.1,9-0.7c1.1-0.2,2.1-0.3,3.6-0.3
			C421,405.5,418.8,406.4,416.9,407.8z"/>
		<path class="st4" d="M519.9,346.5c-4.1,2-8.1,4-12.2,6c-2.3,1.1-4.6,2.2-7.1,2.9c-2.4,0.7-3.1,0.3-3.9-2.1c-0.5-1.6-0.4-3.3-0.3-5
			c0-0.7,0.3-1.2,1-1.5c5.2-3,10.4-6,15.5-9c0.1,0,0.2,0,0.2,0c0,0.1,0,0.2,0,0.2c-0.9,3.6-0.5,4.4,3.3,5.2c2.8,0.6,5.7,1.1,8.6,0.3
			c0.1,0.1,0.2,0.2,0.2,0.2c-1.3,1-2.5,2.2-4.3,2.3C520.5,346.2,520,346.2,519.9,346.5L519.9,346.5z"/>
		<path class="st4" d="M565.2,396.7c-2.2,1.1-3.9,1.9-5.9,1.7c-1.8-0.2-3.5,0.2-5.2,0.6c-1.6,0.4-3.2,0.9-4.6,2
			c-2.8,2.1-5.7,4.1-7.9,6.9c-0.3,0.3-0.5,0.7-0.9,0.5c-0.4-0.2-0.5-0.6-0.6-1c-0.1-1.6,0.2-3.1,1.1-4.3c1.2-1.8,2.7-3.4,4.9-4.1
			c1.8-0.6,3.6-1.4,5.4-1.9c1.8-0.4,2.9-1.4,3.6-3.2c0.1-0.4,0.3-0.7,0.5-1.1c0.9-1.8,1-1.8,2.6-0.8
			C560.4,393.4,562.6,395,565.2,396.7z"/>
		<path class="st1" d="M542.3,415.6c6.3,1,12.4,1.9,18.4,2.9c-3.6,1.9-7.3,3.4-11.3,3.9c-1.4,0.2-2.5-0.2-3.4-1.3
			C544.7,419.5,543.3,417.9,542.3,415.6z"/>
		<path class="st1" d="M519.8,346.6c0.2-0.4,0.7-0.4,1.1-0.5C520.7,346.6,520.3,346.8,519.8,346.6z"/>
		<polygon class="st4" points="526.2,342.9 526.4,342.9 526.3,343 		"/>
		<path class="st4" d="M525,343.5c0.1-0.2,0.3-0.3,0.5-0.2c0.2,0.2-0.1,0.3-0.2,0.4C525.1,343.7,525.1,343.6,525,343.5z"/>
		<path class="st1" d="M272.2,503.1c-0.2-0.2-0.2-0.4,0.1-0.5c0.1,0,0.2,0,0.2,0.1C272.6,502.9,272.4,503,272.2,503.1L272.2,503.1z"
			/>
		<path class="st1" d="M293.2,441.2c-0.2-0.1-0.5-0.1-0.3-0.4c0.1-0.2,0.4-0.1,0.6,0.1C293.4,441,293.3,441.1,293.2,441.2z"/>
		<path class="st1" d="M272.2,503c0,0.2-0.1,0.4-0.4,0.4c0,0-0.2-0.3-0.1-0.4C271.8,502.8,272,503,272.2,503
			C272.2,503.1,272.2,503,272.2,503z"/>
		<path class="st2" d="M300.5,398.8l-0.1,0C300.4,398.9,300.5,398.8,300.5,398.8C300.5,398.8,300.5,398.8,300.5,398.8z"/>
		<path class="st4" d="M372.1,406.7c-0.2,0.2-0.4,0.2-0.6,0.2C371.6,406.5,371.8,406.5,372.1,406.7z"/>
		<path class="st4" d="M399.8,486.2c0.1,0.1,0.2,0.1,0.3,0.2C399.9,486.7,399.9,486.4,399.8,486.2
			C399.8,486.2,399.8,486.2,399.8,486.2z"/>
		<path class="st1" d="M390,447.1c0.2-0.1,0.4-0.3,0.6-0.1c0.2,0.2-0.1,0.4-0.3,0.4C390.2,447.3,390.1,447.2,390,447.1z"/>
		<path class="st1" d="M252.5,592.3c-0.1-0.8,0.4-1,1-1C253.6,592.2,253.1,592.3,252.5,592.3z"/>
		<path class="st1" d="M253.4,591.4c0.1-0.6,0.3-1,1-0.5C254.2,591.4,254,591.8,253.4,591.4z"/>
		<path class="st1" d="M252,592.8c-0.2-0.5,0-0.7,0.5-0.5C252.5,592.7,252.3,592.8,252,592.8z"/>
		<path class="st1" d="M201.6,593c-0.1-0.2-0.3-0.3-0.4-0.5c0.1-0.1,0.3-0.2,0.4-0.3c0.3,0,0.5,0.1,0.6,0.4
			C202,592.8,201.8,592.9,201.6,593z"/>
		<path class="st1" d="M201.2,592.6c-0.1-0.2-0.2-0.5-0.2-0.5c0.3-0.2,0.5-0.1,0.6,0.2C201.5,592.4,201.4,592.5,201.2,592.6z"/>
		<path class="st2" d="M621.5,691.3c-0.1-0.1-0.2-0.3-0.2-0.3c0.2-0.3,0.3-0.1,0.5,0C621.7,691.1,621.6,691.2,621.5,691.3z"/>
		<path class="st2" d="M257.7,756.8c-0.1-4.9,1.5-9.4,3.3-13.8c0.8-1.9,2.3-3.3,4.2-4.1c0.8-0.4,1.5-0.8,2.2-1.5
			c3.2-3.3,7.2-5.5,11.2-7.7c1.3-0.7,2.8-0.7,4.2-0.9c4.1-0.7,8.2-1.3,12.3-2c0.4-0.1,0.9,0,1.2-0.2c1.5-1.4,3-0.6,4.4,0
			c2.8,1.1,4.8,3.1,6.5,5.5c1,1.4,1.8,2.8,2.7,4.2c0.6,1,1.3,1.9,2.4,2.6c1.3,0.7,1.8,2.1,2.1,3.6c1.3,6.4,0.5,12.6-2,18.5
			c-3,7.2-7.5,13.3-13.7,18.2c-0.6,0.5-1.3,1-2.1,1.2c-5.7,1.2-11.4,2.6-17.2,3.2c-3.9,0.4-7.2-0.5-10.3-2.9
			c-7.7-5.8-11.1-13.5-11.5-22.9C257.7,757.4,257.7,757.1,257.7,756.8z"/>
		<path class="st2" d="M756.5,394.2c-0.7,0-2.2,0-3.6-0.4c-0.9-0.2-1.4-0.6-1.3-1.6c0.5-5.6,1.4-11.1,4-16.1
			c0.4-0.9,0.9-1.7,1.5-2.4c2.7-3.7,3-3.7,6.6-1c1.4,1.1,2.6,2.3,3.5,3.8c2.7,4.2,5.5,8.4,8.3,12.6c1.2,1.8,1.1,2-0.9,2.1
			c-3.8,0.3-7.4,1.3-11,2.1C761.4,393.8,759.3,394.2,756.5,394.2z"/>
		<path class="st2" d="M395.7,802.8c0.1,0.7-0.4,1.2-0.8,1.6c-2.5,2.3-4.9,4.5-7.4,6.8c-0.7,0.6-1.5,0.9-2.4,1
			c-1.1,0.1-2.3,0.1-3.3,0.7c-0.9,0.5-1.6,0.3-2.4-0.3c-4.3-3.1-7.5-7.1-10.9-11c-0.7-0.8-0.2-1.5,0.3-2.1c1.5-1.9,3.2-3.6,5.1-5
			c2.6-2,5.3-3.8,8-5.7c1.7-1.2,2-1,3.2,0.7c0.7,1,1.3,2,2,3c0.9,1.2,1.9,2.2,3.3,2.6c0.9,0.2,1.5,0.8,2,1.6
			c0.8,1.2,1.6,2.4,2.3,3.6C395.3,800.9,395.6,801.8,395.7,802.8z"/>
		<path class="st2" d="M389.3,750.7c2.3,0,3.9,1,4.9,2.6c1.3,2.2,2.5,4.6,3.8,6.9c0.4,0.8-0.1,1.4-0.5,1.9c-1.4,2.1-3,4-4.6,5.8
			c-1.9,2-3.9,4-5.9,6c-0.8,0.8-1.4,1.1-2.4,0.3c-3.3-2.6-6.2-5.5-8.1-9.3c-0.4-0.7-0.7-1.4-0.1-2.2c2.1-2.7,3.8-5.7,6.3-8.1
			c1.3-1.3,2.8-2.3,4.5-3.2C387.9,751,388.7,750.6,389.3,750.7z"/>
		<path class="st2" d="M390.1,779.6c-0.2-0.1-0.4-0.2-0.2-0.4c0.2-0.2,0.4,0,0.5,0.1C390.3,779.4,390.2,779.5,390.1,779.6z"/>
		<path class="st2" d="M572.8,753.1c-4.4,2.7-9.7,2.7-14.7,5.3c1-6.4-0.9-12.1-0.9-17.9C560.7,740.7,568.5,747,572.8,753.1z"/>
		<path class="st2" d="M160.5,655.8c4.4-2.1,7.3-5.8,10.2-9.5c1.8-2.2,3.6-4.5,5.8-6.3c1.2-1,1.3-0.9,2.2,0.3
			c0.5,0.7,0.7,1.4,0.8,2.2c0.7,3.7,1,7.4,1,11.2c0,3,0,5.9,0,8.9c0,2.6,0,2.6-2.7,2c-3.7-0.9-7.3-2.3-10.7-4.1
			c-1.8-0.9-3.5-2-5.1-3.1C161.5,657,160.8,656.7,160.5,655.8z"/>
	</g>
</g>
</svg>
